%
M48
M72
T01C0.0197
T02C0.0315
T03C0.0320
T04C0.0354
T05C0.0394
T06C0.0400
T07C0.0433
T08C0.0440
%
T01
X36433Y7883
T02
X5808Y2133
X12183Y2633
X13058Y1883
X14308Y1883
X16808Y2133
X16808Y1133
X14308Y883
X13058Y883
X20933Y2133
X21933Y2133
X24558Y1883
X24558Y883
X27683Y883
X28933Y883
X28933Y1883
X27683Y1883
X36433Y4133
X31183Y6508
X33933Y8383
X38933Y8383
X38933Y10383
X38933Y12133
X33933Y12133
X31183Y11508
X33933Y10383
X28308Y9633
X27683Y9133
X27558Y10758
X22933Y13258
X20308Y13508
X20933Y10758
X21371Y9633
X20308Y9133
X14308Y7008
X13558Y9258
X9558Y9258
X1683Y9508
X12808Y4883
X33933Y14133
X36433Y14633
X38933Y14133
T03
X36933Y11383
X35933Y11383
X30058Y11633
X29058Y11883
X26683Y12508
X23683Y12508
X19558Y11258
X19558Y10258
X18623Y9541
X19558Y9258
X18104Y8853
X19558Y8258
X17762Y7914
X19558Y7258
X19558Y6258
X16808Y7008
X15808Y7008
X14808Y7008
X13433Y7508
X8433Y7508
X1808Y7008
X1808Y8008
X1808Y6008
X1808Y5008
X1808Y4008
X1808Y3008
X16744Y10225
X10558Y11883
X6558Y11883
X3058Y12008
X3058Y11008
X27308Y3758
X28308Y3758
X29308Y3758
X31308Y4133
X31308Y3133
X29683Y5508
X28683Y5508
X27683Y5508
X32433Y7258
X33433Y7258
X30058Y7633
X29058Y7883
X39433Y7258
X40433Y7258
T04
X27660Y9668
X21963Y9866
X8683Y6293
X8683Y593
T05
X8680Y13391
X9680Y13391
X10680Y13391
X11680Y13391
X12680Y13391
X13680Y13391
X14680Y13391
X15680Y13391
X16680Y13391
X17680Y13391
X18680Y13391
X7680Y13391
X6680Y13391
X5680Y13391
X4680Y13391
X3680Y13391
T06
X3683Y13383
X4683Y13383
X5683Y13383
X6683Y13383
X7683Y13383
X8683Y13383
X9683Y13383
X10683Y13383
X11683Y13383
X12683Y13383
X13683Y13383
X14683Y13383
X15683Y13383
X16683Y13383
X17683Y13383
X18683Y13383
X32653Y14023
X35213Y14023
X37653Y14023
X40213Y14023
X40213Y12243
X37653Y12243
X35213Y12243
X32653Y12243
X32653Y10273
X35213Y10273
X37653Y10273
X40213Y10273
X40213Y8493
X37653Y8493
X35213Y8493
X32653Y8493
X24183Y6133
X21183Y6133
X25433Y2633
X1433Y10508
X1433Y11508
T07
X4574Y10133
X6543Y10133
T08
X14308Y10158
X14308Y9258
X14308Y8358
M30
