G75*
G70*
%OFA0B0*%
%FSLAX24Y24*%
%IPPOS*%
%LPD*%
%AMOC8*
5,1,8,0,0,1.08239X$1,22.5*
%
%ADD10C,0.0715*%
%ADD11C,0.0906*%
%ADD12C,0.0827*%
%ADD13C,0.0635*%
%ADD14OC8,0.0906*%
%ADD15C,0.3150*%
%ADD16C,0.0787*%
%ADD17C,0.1000*%
%ADD18OC8,0.1000*%
%ADD19C,0.0755*%
%ADD20C,0.0181*%
%ADD21C,0.0748*%
%ADD22R,0.0787X0.0787*%
%ADD23C,0.0709*%
%ADD24C,0.0118*%
%ADD25R,0.0787X0.0787*%
%ADD26OC8,0.0635*%
%ADD27C,0.0160*%
D10*
X000698Y010508D02*
X001412Y010508D01*
X001412Y011508D02*
X000698Y011508D01*
X003305Y013026D02*
X003305Y013741D01*
X004305Y013741D02*
X004305Y013026D01*
X005305Y013026D02*
X005305Y013741D01*
X006305Y013741D02*
X006305Y013026D01*
X007305Y013026D02*
X007305Y013741D01*
X008305Y013741D02*
X008305Y013026D01*
X009305Y013026D02*
X009305Y013741D01*
X010305Y013741D02*
X010305Y013026D01*
X011305Y013026D02*
X011305Y013741D01*
X012305Y013741D02*
X012305Y013026D01*
X013305Y013026D02*
X013305Y013741D01*
X014305Y013741D02*
X014305Y013026D01*
X015305Y013026D02*
X015305Y013741D01*
X016305Y013741D02*
X016305Y013026D01*
X017305Y013026D02*
X017305Y013741D01*
X018305Y013741D02*
X018305Y013026D01*
X031918Y012243D02*
X032632Y012243D01*
X034478Y012243D02*
X035192Y012243D01*
X036918Y012243D02*
X037632Y012243D01*
X039478Y012243D02*
X040192Y012243D01*
X040192Y014023D02*
X039478Y014023D01*
X037632Y014023D02*
X036918Y014023D01*
X035192Y014023D02*
X034478Y014023D01*
X032632Y014023D02*
X031918Y014023D01*
X031918Y010273D02*
X032632Y010273D01*
X034478Y010273D02*
X035192Y010273D01*
X036918Y010273D02*
X037632Y010273D01*
X039478Y010273D02*
X040192Y010273D01*
X040192Y008493D02*
X039478Y008493D01*
X037632Y008493D02*
X036918Y008493D01*
X035192Y008493D02*
X034478Y008493D01*
X032632Y008493D02*
X031918Y008493D01*
D11*
X033555Y008383D03*
X030805Y006508D03*
X027305Y009133D03*
X027282Y009668D03*
X027180Y010758D03*
X030805Y011508D03*
X033555Y012133D03*
X033555Y010383D03*
X038555Y010383D03*
X038555Y012133D03*
X038555Y014133D03*
X033555Y014133D03*
X022555Y013258D03*
X020180Y014258D03*
X020555Y010758D03*
X021585Y009866D03*
X020180Y009133D03*
X013930Y007258D03*
X009680Y007258D03*
X008305Y006293D03*
X012430Y004883D03*
X011805Y002633D03*
X008305Y000593D03*
X005430Y002508D03*
X038555Y008383D03*
D12*
X029305Y005922D02*
X029305Y005095D01*
X028305Y005095D02*
X028305Y005922D01*
X027305Y005922D02*
X027305Y005095D01*
X026930Y004172D02*
X026930Y003345D01*
X027930Y003345D02*
X027930Y004172D01*
X028930Y004172D02*
X028930Y003345D01*
X016430Y006595D02*
X016430Y007422D01*
X015430Y007422D02*
X015430Y006595D01*
X014430Y006595D02*
X014430Y007422D01*
D13*
X018863Y007258D02*
X019497Y007258D01*
X019497Y008258D02*
X018863Y008258D01*
X018863Y009258D02*
X019497Y009258D01*
X019497Y010258D02*
X018863Y010258D01*
X018863Y011258D02*
X019497Y011258D01*
X019497Y006258D02*
X018863Y006258D01*
X034920Y011383D02*
X035555Y011383D01*
X036555Y011383D02*
X037190Y011383D01*
X001747Y008008D02*
X001113Y008008D01*
X001113Y007008D02*
X001747Y007008D01*
X001747Y006008D02*
X001113Y006008D01*
X001113Y005008D02*
X001747Y005008D01*
X001747Y004008D02*
X001113Y004008D01*
X001113Y003008D02*
X001747Y003008D01*
D14*
X012680Y001883D03*
X013930Y001883D03*
X016430Y002133D03*
X016430Y001133D03*
X013930Y000883D03*
X012680Y000883D03*
X020555Y002133D03*
X021555Y002133D03*
X024180Y001883D03*
X025055Y002633D03*
X027305Y001883D03*
X028555Y001883D03*
X028555Y000883D03*
X027305Y000883D03*
X024180Y000883D03*
X030930Y003133D03*
X030930Y004133D03*
X032055Y007258D03*
X033055Y007258D03*
X029680Y007633D03*
X028680Y007883D03*
X029680Y011633D03*
X028680Y011883D03*
X026305Y012508D03*
X023305Y012508D03*
X010680Y011758D03*
X006680Y011758D03*
X039055Y007258D03*
X040055Y007258D03*
D15*
X036055Y004133D03*
D16*
X032472Y004133D02*
X032476Y004309D01*
X032489Y004484D01*
X032511Y004659D01*
X032541Y004832D01*
X032579Y005004D01*
X032626Y005173D01*
X032681Y005340D01*
X032745Y005504D01*
X032816Y005665D01*
X032895Y005822D01*
X032982Y005975D01*
X033076Y006124D01*
X033177Y006267D01*
X033285Y006406D01*
X033400Y006539D01*
X033521Y006667D01*
X033649Y006788D01*
X033782Y006903D01*
X033921Y007011D01*
X034064Y007112D01*
X034213Y007206D01*
X034366Y007293D01*
X034523Y007372D01*
X034684Y007443D01*
X034848Y007507D01*
X035015Y007562D01*
X035184Y007609D01*
X035356Y007647D01*
X035529Y007677D01*
X035704Y007699D01*
X035879Y007712D01*
X036055Y007716D01*
X036231Y007712D01*
X036406Y007699D01*
X036581Y007677D01*
X036754Y007647D01*
X036926Y007609D01*
X037095Y007562D01*
X037262Y007507D01*
X037426Y007443D01*
X037587Y007372D01*
X037744Y007293D01*
X037897Y007206D01*
X038046Y007112D01*
X038189Y007011D01*
X038328Y006903D01*
X038461Y006788D01*
X038589Y006667D01*
X038710Y006539D01*
X038825Y006406D01*
X038933Y006267D01*
X039034Y006124D01*
X039128Y005975D01*
X039215Y005822D01*
X039294Y005665D01*
X039365Y005504D01*
X039429Y005340D01*
X039484Y005173D01*
X039531Y005004D01*
X039569Y004832D01*
X039599Y004659D01*
X039621Y004484D01*
X039634Y004309D01*
X039638Y004133D01*
X039634Y003957D01*
X039621Y003782D01*
X039599Y003607D01*
X039569Y003434D01*
X039531Y003262D01*
X039484Y003093D01*
X039429Y002926D01*
X039365Y002762D01*
X039294Y002601D01*
X039215Y002444D01*
X039128Y002291D01*
X039034Y002142D01*
X038933Y001999D01*
X038825Y001860D01*
X038710Y001727D01*
X038589Y001599D01*
X038461Y001478D01*
X038328Y001363D01*
X038189Y001255D01*
X038046Y001154D01*
X037897Y001060D01*
X037744Y000973D01*
X037587Y000894D01*
X037426Y000823D01*
X037262Y000759D01*
X037095Y000704D01*
X036926Y000657D01*
X036754Y000619D01*
X036581Y000589D01*
X036406Y000567D01*
X036231Y000554D01*
X036055Y000550D01*
X035879Y000554D01*
X035704Y000567D01*
X035529Y000589D01*
X035356Y000619D01*
X035184Y000657D01*
X035015Y000704D01*
X034848Y000759D01*
X034684Y000823D01*
X034523Y000894D01*
X034366Y000973D01*
X034213Y001060D01*
X034064Y001154D01*
X033921Y001255D01*
X033782Y001363D01*
X033649Y001478D01*
X033521Y001599D01*
X033400Y001727D01*
X033285Y001860D01*
X033177Y001999D01*
X033076Y002142D01*
X032982Y002291D01*
X032895Y002444D01*
X032816Y002601D01*
X032745Y002762D01*
X032681Y002926D01*
X032626Y003093D01*
X032579Y003262D01*
X032541Y003434D01*
X032511Y003607D01*
X032489Y003782D01*
X032476Y003957D01*
X032472Y004133D01*
D17*
X036055Y007883D03*
D18*
X023805Y006133D03*
X020805Y006133D03*
D19*
X014682Y008358D02*
X013928Y008358D01*
X013928Y009258D02*
X014682Y009258D01*
X014682Y010158D02*
X013928Y010158D01*
D20*
X016562Y010052D02*
X016653Y009961D01*
X016382Y009834D01*
X016101Y009937D01*
X015974Y010208D01*
X016077Y010489D01*
X016348Y010616D01*
X016629Y010513D01*
X016756Y010242D01*
X016653Y009961D01*
X016545Y010061D01*
X016375Y009981D01*
X016201Y010045D01*
X016121Y010215D01*
X016185Y010389D01*
X016355Y010469D01*
X016529Y010405D01*
X016609Y010235D01*
X016545Y010061D01*
X016436Y010160D01*
X016368Y010128D01*
X016300Y010154D01*
X016268Y010222D01*
X016294Y010290D01*
X016362Y010322D01*
X016430Y010296D01*
X016462Y010228D01*
X016436Y010160D01*
X018442Y009368D02*
X018533Y009277D01*
X018262Y009150D01*
X017981Y009253D01*
X017854Y009524D01*
X017957Y009805D01*
X018228Y009932D01*
X018509Y009829D01*
X018636Y009558D01*
X018533Y009277D01*
X018425Y009377D01*
X018255Y009297D01*
X018081Y009361D01*
X018001Y009531D01*
X018065Y009705D01*
X018235Y009785D01*
X018409Y009721D01*
X018489Y009551D01*
X018425Y009377D01*
X018316Y009476D01*
X018248Y009444D01*
X018180Y009470D01*
X018148Y009538D01*
X018174Y009606D01*
X018242Y009638D01*
X018310Y009612D01*
X018342Y009544D01*
X018316Y009476D01*
D21*
X006039Y009759D02*
X006039Y010507D01*
X004071Y010507D02*
X004071Y009759D01*
D22*
X002680Y011008D03*
X002680Y012008D03*
D23*
X003302Y013391D03*
X004302Y013391D03*
X005302Y013391D03*
X006302Y013391D03*
X007302Y013391D03*
X008302Y013391D03*
X009302Y013391D03*
X010302Y013391D03*
X011302Y013391D03*
X012302Y013391D03*
X013302Y013391D03*
X014302Y013391D03*
X015302Y013391D03*
X016302Y013391D03*
X017302Y013391D03*
X018302Y013391D03*
D24*
X030467Y013391D02*
X030469Y013418D01*
X030475Y013445D01*
X030484Y013471D01*
X030497Y013495D01*
X030513Y013518D01*
X030532Y013537D01*
X030554Y013554D01*
X030578Y013568D01*
X030603Y013578D01*
X030630Y013585D01*
X030657Y013588D01*
X030685Y013587D01*
X030712Y013582D01*
X030738Y013574D01*
X030762Y013562D01*
X030785Y013546D01*
X030806Y013528D01*
X030823Y013507D01*
X030838Y013483D01*
X030849Y013458D01*
X030857Y013432D01*
X030861Y013405D01*
X030861Y013377D01*
X030857Y013350D01*
X030849Y013324D01*
X030838Y013299D01*
X030823Y013275D01*
X030806Y013254D01*
X030785Y013236D01*
X030763Y013220D01*
X030738Y013208D01*
X030712Y013200D01*
X030685Y013195D01*
X030657Y013194D01*
X030630Y013197D01*
X030603Y013204D01*
X030578Y013214D01*
X030554Y013228D01*
X030532Y013245D01*
X030513Y013264D01*
X030497Y013287D01*
X030484Y013311D01*
X030475Y013337D01*
X030469Y013364D01*
X030467Y013391D01*
X000939Y013391D02*
X000941Y013418D01*
X000947Y013445D01*
X000956Y013471D01*
X000969Y013495D01*
X000985Y013518D01*
X001004Y013537D01*
X001026Y013554D01*
X001050Y013568D01*
X001075Y013578D01*
X001102Y013585D01*
X001129Y013588D01*
X001157Y013587D01*
X001184Y013582D01*
X001210Y013574D01*
X001234Y013562D01*
X001257Y013546D01*
X001278Y013528D01*
X001295Y013507D01*
X001310Y013483D01*
X001321Y013458D01*
X001329Y013432D01*
X001333Y013405D01*
X001333Y013377D01*
X001329Y013350D01*
X001321Y013324D01*
X001310Y013299D01*
X001295Y013275D01*
X001278Y013254D01*
X001257Y013236D01*
X001235Y013220D01*
X001210Y013208D01*
X001184Y013200D01*
X001157Y013195D01*
X001129Y013194D01*
X001102Y013197D01*
X001075Y013204D01*
X001050Y013214D01*
X001026Y013228D01*
X001004Y013245D01*
X000985Y013264D01*
X000969Y013287D01*
X000956Y013311D01*
X000947Y013337D01*
X000941Y013364D01*
X000939Y013391D01*
X000939Y001186D02*
X000941Y001213D01*
X000947Y001240D01*
X000956Y001266D01*
X000969Y001290D01*
X000985Y001313D01*
X001004Y001332D01*
X001026Y001349D01*
X001050Y001363D01*
X001075Y001373D01*
X001102Y001380D01*
X001129Y001383D01*
X001157Y001382D01*
X001184Y001377D01*
X001210Y001369D01*
X001234Y001357D01*
X001257Y001341D01*
X001278Y001323D01*
X001295Y001302D01*
X001310Y001278D01*
X001321Y001253D01*
X001329Y001227D01*
X001333Y001200D01*
X001333Y001172D01*
X001329Y001145D01*
X001321Y001119D01*
X001310Y001094D01*
X001295Y001070D01*
X001278Y001049D01*
X001257Y001031D01*
X001235Y001015D01*
X001210Y001003D01*
X001184Y000995D01*
X001157Y000990D01*
X001129Y000989D01*
X001102Y000992D01*
X001075Y000999D01*
X001050Y001009D01*
X001026Y001023D01*
X001004Y001040D01*
X000985Y001059D01*
X000969Y001082D01*
X000956Y001106D01*
X000947Y001132D01*
X000941Y001159D01*
X000939Y001186D01*
X030467Y001186D02*
X030469Y001213D01*
X030475Y001240D01*
X030484Y001266D01*
X030497Y001290D01*
X030513Y001313D01*
X030532Y001332D01*
X030554Y001349D01*
X030578Y001363D01*
X030603Y001373D01*
X030630Y001380D01*
X030657Y001383D01*
X030685Y001382D01*
X030712Y001377D01*
X030738Y001369D01*
X030762Y001357D01*
X030785Y001341D01*
X030806Y001323D01*
X030823Y001302D01*
X030838Y001278D01*
X030849Y001253D01*
X030857Y001227D01*
X030861Y001200D01*
X030861Y001172D01*
X030857Y001145D01*
X030849Y001119D01*
X030838Y001094D01*
X030823Y001070D01*
X030806Y001049D01*
X030785Y001031D01*
X030763Y001015D01*
X030738Y001003D01*
X030712Y000995D01*
X030685Y000990D01*
X030657Y000989D01*
X030630Y000992D01*
X030603Y000999D01*
X030578Y001009D01*
X030554Y001023D01*
X030532Y001040D01*
X030513Y001059D01*
X030497Y001082D01*
X030484Y001106D01*
X030475Y001132D01*
X030469Y001159D01*
X030467Y001186D01*
D25*
G36*
X017150Y008417D02*
X017887Y008148D01*
X017618Y007411D01*
X016881Y007680D01*
X017150Y008417D01*
G37*
G36*
X017492Y009356D02*
X018229Y009087D01*
X017960Y008350D01*
X017223Y008619D01*
X017492Y009356D01*
G37*
D26*
X013805Y008258D03*
X008805Y008258D03*
D27*
X000680Y000258D02*
X000180Y000258D01*
X000180Y000758D01*
X005430Y002508D02*
X008930Y005633D01*
X019930Y005508D01*
X021555Y012633D01*
X022555Y013258D01*
X020180Y014258D02*
X019930Y010633D01*
X020180Y009133D01*
X027305Y009133D01*
X027180Y010758D02*
X020555Y010758D01*
X013930Y007258D02*
X009680Y007258D01*
X011805Y004383D02*
X012430Y004883D01*
X011805Y004383D02*
X011805Y002633D01*
X030805Y006508D02*
X030805Y011508D01*
X039930Y015258D02*
X040430Y015258D01*
X040430Y014758D01*
X040430Y000758D02*
X040430Y000258D01*
X039930Y000258D01*
X000680Y015258D02*
X000180Y015258D01*
X000180Y014758D01*
M02*
