G75*
G70*
%OFA0B0*%
%FSLAX24Y24*%
%IPPOS*%
%LPD*%
%AMOC8*
5,1,8,0,0,1.08239X$1,22.5*
%
%ADD10C,0.0795*%
%ADD11R,0.0530X0.0380*%
%ADD12R,0.0380X0.0530*%
%ADD13C,0.0986*%
%ADD14C,0.0907*%
%ADD15R,0.0552X0.0789*%
%ADD16R,0.0631X0.0789*%
%ADD17R,0.0789X0.0631*%
%ADD18C,0.0715*%
%ADD19R,0.0592X0.0671*%
%ADD20OC8,0.0986*%
%ADD21R,0.0671X0.0592*%
%ADD22C,0.3230*%
%ADD23C,0.1080*%
%ADD24OC8,0.1080*%
%ADD25C,0.0835*%
%ADD26R,0.0789X0.0552*%
%ADD27C,0.0197*%
%ADD28R,0.0946X0.0316*%
%ADD29C,0.0828*%
%ADD30R,0.0710X0.0592*%
%ADD31R,0.0867X0.0867*%
%ADD32R,0.1025X0.1025*%
%ADD33R,0.0592X0.0710*%
%ADD34C,0.0789*%
%ADD35R,0.0867X0.0867*%
%ADD36R,0.0474X0.0474*%
%ADD37OC8,0.0715*%
%ADD38R,0.1143X0.0710*%
D10*
X001076Y010508D02*
X001791Y010508D01*
X001791Y011508D02*
X001076Y011508D01*
X003683Y013026D02*
X003683Y013741D01*
X004683Y013741D02*
X004683Y013026D01*
X005683Y013026D02*
X005683Y013741D01*
X006683Y013741D02*
X006683Y013026D01*
X007683Y013026D02*
X007683Y013741D01*
X008683Y013741D02*
X008683Y013026D01*
X009683Y013026D02*
X009683Y013741D01*
X010683Y013741D02*
X010683Y013026D01*
X011683Y013026D02*
X011683Y013741D01*
X012683Y013741D02*
X012683Y013026D01*
X013683Y013026D02*
X013683Y013741D01*
X014683Y013741D02*
X014683Y013026D01*
X015683Y013026D02*
X015683Y013741D01*
X016683Y013741D02*
X016683Y013026D01*
X017683Y013026D02*
X017683Y013741D01*
X018683Y013741D02*
X018683Y013026D01*
X032296Y012243D02*
X033011Y012243D01*
X034856Y012243D02*
X035571Y012243D01*
X037296Y012243D02*
X038011Y012243D01*
X039856Y012243D02*
X040571Y012243D01*
X040571Y014023D02*
X039856Y014023D01*
X038011Y014023D02*
X037296Y014023D01*
X035571Y014023D02*
X034856Y014023D01*
X033011Y014023D02*
X032296Y014023D01*
X032296Y010273D02*
X033011Y010273D01*
X034856Y010273D02*
X035571Y010273D01*
X037296Y010273D02*
X038011Y010273D01*
X039856Y010273D02*
X040571Y010273D01*
X040571Y008493D02*
X039856Y008493D01*
X038011Y008493D02*
X037296Y008493D01*
X035571Y008493D02*
X034856Y008493D01*
X033011Y008493D02*
X032296Y008493D01*
D11*
X026568Y008383D03*
X026568Y007883D03*
X026568Y008883D03*
X026568Y009383D03*
X026568Y009883D03*
X026568Y010383D03*
X026568Y010883D03*
X026568Y011383D03*
X026568Y011883D03*
X022798Y011883D03*
X022798Y011383D03*
X022798Y010883D03*
X022798Y010383D03*
X022798Y009883D03*
X022798Y009383D03*
X022798Y008883D03*
X022798Y008383D03*
X022798Y007883D03*
D12*
X010683Y005643D03*
X010183Y005643D03*
X009683Y005643D03*
X009183Y005643D03*
X008683Y005643D03*
X008183Y005643D03*
X007683Y005643D03*
X007183Y005643D03*
X006683Y005643D03*
X006683Y001873D03*
X007183Y001873D03*
X007683Y001873D03*
X008183Y001873D03*
X008683Y001873D03*
X009183Y001873D03*
X009683Y001873D03*
X010183Y001873D03*
X010683Y001873D03*
D13*
X005808Y002133D03*
X008683Y000593D03*
X012183Y002633D03*
X012808Y004883D03*
X008683Y006293D03*
X014308Y007008D03*
X013558Y009258D03*
X009558Y009258D03*
X001683Y009508D03*
X020308Y009133D03*
X021963Y009866D03*
X020933Y010758D03*
X022933Y013258D03*
X020308Y013508D03*
X027558Y010758D03*
X027660Y009668D03*
X027683Y009133D03*
X031183Y011508D03*
X033933Y012133D03*
X033933Y010383D03*
X038933Y010383D03*
X038933Y012133D03*
X038933Y014133D03*
X033933Y014133D03*
X033933Y008383D03*
X031183Y006508D03*
X038933Y008383D03*
D14*
X029683Y005922D02*
X029683Y005095D01*
X028683Y005095D02*
X028683Y005922D01*
X027683Y005922D02*
X027683Y005095D01*
X027308Y004172D02*
X027308Y003345D01*
X028308Y003345D02*
X028308Y004172D01*
X029308Y004172D02*
X029308Y003345D01*
X016808Y006595D02*
X016808Y007422D01*
X015808Y007422D02*
X015808Y006595D01*
X014808Y006595D02*
X014808Y007422D01*
D15*
X009558Y010543D03*
X009558Y011724D03*
X020683Y011543D03*
X020683Y012724D03*
X027683Y012973D03*
X027683Y011793D03*
X011308Y004224D03*
X011308Y003043D03*
X004058Y005793D03*
X004058Y006974D03*
D16*
X022014Y006133D03*
X023353Y006133D03*
X028389Y006633D03*
X029728Y006633D03*
X029139Y009383D03*
X030478Y009383D03*
X026978Y001758D03*
X025639Y001758D03*
D17*
X032558Y002714D03*
X032558Y004053D03*
X036338Y008967D03*
X036338Y010305D03*
D18*
X035933Y011383D02*
X035298Y011383D01*
X036933Y011383D02*
X037568Y011383D01*
X019876Y011258D02*
X019241Y011258D01*
X019241Y010258D02*
X019876Y010258D01*
X019876Y009258D02*
X019241Y009258D01*
X019241Y008258D02*
X019876Y008258D01*
X019876Y007258D02*
X019241Y007258D01*
X019241Y006258D02*
X019876Y006258D01*
X002126Y006008D02*
X001491Y006008D01*
X001491Y005008D02*
X002126Y005008D01*
X002126Y004008D02*
X001491Y004008D01*
X001491Y003008D02*
X002126Y003008D01*
X002126Y007008D02*
X001491Y007008D01*
X001491Y008008D02*
X002126Y008008D01*
D19*
X004974Y007008D03*
X005643Y007008D03*
X003268Y010008D03*
X002599Y010008D03*
X004934Y012258D03*
X005682Y012258D03*
X018684Y012133D03*
X019432Y012133D03*
G36*
X021267Y010077D02*
X020848Y010496D01*
X021321Y010969D01*
X021740Y010550D01*
X021267Y010077D01*
G37*
G36*
X021796Y009548D02*
X021377Y009967D01*
X021850Y010440D01*
X022269Y010021D01*
X021796Y009548D01*
G37*
X024434Y007133D03*
X025182Y007133D03*
X018432Y002133D03*
X017684Y002133D03*
X015932Y002008D03*
X015184Y002008D03*
X019184Y014133D03*
X019932Y014133D03*
X029059Y014133D03*
X029807Y014133D03*
D20*
X026683Y012508D03*
X029058Y011883D03*
X030058Y011633D03*
X023683Y012508D03*
X029058Y007883D03*
X030058Y007633D03*
X032433Y007258D03*
X033433Y007258D03*
X039433Y007258D03*
X040433Y007258D03*
X031308Y004133D03*
X031308Y003133D03*
X028933Y001883D03*
X027683Y001883D03*
X025433Y002633D03*
X024558Y001883D03*
X021933Y002133D03*
X020933Y002133D03*
X024558Y000883D03*
X027683Y000883D03*
X028933Y000883D03*
X016808Y001133D03*
X016808Y002133D03*
X014308Y001883D03*
X013058Y001883D03*
X013058Y000883D03*
X014308Y000883D03*
X010558Y011883D03*
X006558Y011883D03*
D21*
X003433Y008843D03*
X003433Y008174D03*
X016683Y008009D03*
X016683Y008757D03*
X033683Y003757D03*
X033683Y003009D03*
X023558Y002132D03*
X022808Y002132D03*
X022808Y001384D03*
X023558Y001384D03*
X020058Y001384D03*
X019308Y001384D03*
X019308Y002132D03*
X020058Y002132D03*
D22*
X036433Y004133D03*
D23*
X036433Y007883D03*
D24*
X024183Y006133D03*
X021183Y006133D03*
D25*
X014686Y008358D02*
X013931Y008358D01*
X013931Y009258D02*
X014686Y009258D01*
X014686Y010158D02*
X013931Y010158D01*
D26*
X015593Y009508D03*
X016773Y009508D03*
X025218Y006008D03*
X026398Y006008D03*
X026468Y007008D03*
X027648Y007008D03*
X022648Y005258D03*
X021468Y005258D03*
X038843Y006258D03*
X040023Y006258D03*
D27*
X018838Y009353D02*
X018937Y009254D01*
X018641Y009116D01*
X018336Y009227D01*
X018198Y009523D01*
X018309Y009828D01*
X018605Y009966D01*
X018910Y009855D01*
X019048Y009559D01*
X018937Y009254D01*
X018819Y009362D01*
X018634Y009275D01*
X018444Y009345D01*
X018357Y009530D01*
X018427Y009720D01*
X018612Y009807D01*
X018802Y009737D01*
X018889Y009552D01*
X018819Y009362D01*
X018701Y009470D01*
X018627Y009436D01*
X018552Y009463D01*
X018518Y009537D01*
X018545Y009612D01*
X018619Y009646D01*
X018694Y009619D01*
X018728Y009545D01*
X018701Y009470D01*
X016959Y010037D02*
X017058Y009938D01*
X016762Y009800D01*
X016457Y009911D01*
X016319Y010207D01*
X016430Y010512D01*
X016726Y010650D01*
X017031Y010539D01*
X017169Y010243D01*
X017058Y009938D01*
X016940Y010046D01*
X016755Y009959D01*
X016565Y010029D01*
X016478Y010214D01*
X016548Y010404D01*
X016733Y010491D01*
X016923Y010421D01*
X017010Y010236D01*
X016940Y010046D01*
X016822Y010154D01*
X016748Y010120D01*
X016673Y010147D01*
X016639Y010221D01*
X016666Y010296D01*
X016740Y010330D01*
X016815Y010303D01*
X016849Y010229D01*
X016822Y010154D01*
D28*
X006457Y009008D03*
X006457Y008508D03*
X006457Y008008D03*
X006457Y007508D03*
X004410Y007508D03*
X004410Y008008D03*
X004410Y008508D03*
X004410Y009008D03*
D29*
X004574Y009759D02*
X004574Y010507D01*
X006543Y010507D02*
X006543Y009759D01*
D30*
X003808Y011115D03*
X003808Y011902D03*
X007308Y007902D03*
X007308Y007115D03*
D31*
X003058Y011008D03*
X003058Y012008D03*
D32*
X008308Y010125D03*
X008308Y008392D03*
D33*
X018165Y010508D03*
X018952Y010508D03*
X024809Y012508D03*
X025557Y012508D03*
D34*
X018680Y013391D03*
X017680Y013391D03*
X016680Y013391D03*
X015680Y013391D03*
X014680Y013391D03*
X013680Y013391D03*
X012680Y013391D03*
X011680Y013391D03*
X010680Y013391D03*
X009680Y013391D03*
X008680Y013391D03*
X007680Y013391D03*
X006680Y013391D03*
X005680Y013391D03*
X004680Y013391D03*
X003680Y013391D03*
D35*
G36*
X017504Y008468D02*
X018316Y008172D01*
X018020Y007360D01*
X017208Y007656D01*
X017504Y008468D01*
G37*
G36*
X017846Y009407D02*
X018658Y009111D01*
X018362Y008299D01*
X017550Y008595D01*
X017846Y009407D01*
G37*
D36*
X009098Y001321D03*
X008269Y001321D03*
D37*
X008433Y007508D03*
X013433Y007508D03*
D38*
X005183Y006185D03*
X005183Y005082D03*
M02*
