G75*
G70*
%OFA0B0*%
%FSLAX24Y24*%
%IPPOS*%
%LPD*%
%AMOC8*
5,1,8,0,0,1.08239X$1,22.5*
%
%ADD10C,0.0060*%
%ADD11R,0.0530X0.0160*%
%ADD12C,0.0070*%
%ADD13R,0.0160X0.0530*%
%ADD14R,0.0689X0.0295*%
%ADD15C,0.0040*%
%ADD16C,0.0080*%
%ADD17R,0.0220X0.0680*%
%ADD18R,0.0240X0.0620*%
%ADD19R,0.0680X0.0220*%
%ADD20R,0.0620X0.0240*%
%ADD21R,0.0256X0.0551*%
%ADD22R,0.0551X0.0256*%
%ADD23R,0.0295X0.0689*%
%ADD24R,0.0433X0.0193*%
%ADD25R,0.0512X0.0197*%
%ADD26C,0.0030*%
%ADD27R,0.0860X0.0210*%
%ADD28R,0.1496X0.0217*%
%ADD29R,0.0197X0.0512*%
%ADD30R,0.0140X0.0560*%
%ADD31C,0.0050*%
%ADD32R,0.1024X0.0295*%
D10*
X006085Y002303D02*
X006085Y005203D01*
X010535Y005203D01*
X010535Y002303D01*
X006085Y002303D01*
X008144Y001571D02*
X008466Y001571D01*
X008466Y001071D02*
X008144Y001071D01*
X009935Y002663D02*
X009937Y002692D01*
X009943Y002720D01*
X009952Y002747D01*
X009966Y002772D01*
X009982Y002796D01*
X010002Y002816D01*
X010024Y002835D01*
X010048Y002849D01*
X010075Y002861D01*
X010102Y002869D01*
X010131Y002873D01*
X010159Y002873D01*
X010188Y002869D01*
X010215Y002861D01*
X010242Y002849D01*
X010266Y002835D01*
X010288Y002816D01*
X010308Y002796D01*
X010324Y002772D01*
X010338Y002747D01*
X010347Y002720D01*
X010353Y002692D01*
X010355Y002663D01*
X010353Y002634D01*
X010347Y002606D01*
X010338Y002579D01*
X010324Y002554D01*
X010308Y002530D01*
X010288Y002510D01*
X010266Y002491D01*
X010242Y002477D01*
X010215Y002465D01*
X010188Y002457D01*
X010159Y002453D01*
X010131Y002453D01*
X010102Y002457D01*
X010075Y002465D01*
X010048Y002477D01*
X010024Y002491D01*
X010002Y002510D01*
X009982Y002530D01*
X009966Y002554D01*
X009952Y002579D01*
X009943Y002606D01*
X009937Y002634D01*
X009935Y002663D01*
X010615Y003284D02*
X010615Y003993D01*
X011245Y003993D02*
X011245Y003284D01*
X015019Y002258D02*
X015341Y002258D01*
X015341Y001758D02*
X015019Y001758D01*
X017519Y001883D02*
X017841Y001883D01*
X018680Y001920D02*
X018680Y001597D01*
X019180Y001597D02*
X019180Y001920D01*
X019430Y001920D02*
X019430Y001597D01*
X019930Y001597D02*
X019930Y001920D01*
X017841Y002383D02*
X017519Y002383D01*
X022180Y001920D02*
X022180Y001597D01*
X022680Y001597D02*
X022680Y001920D01*
X022930Y001920D02*
X022930Y001597D01*
X023430Y001597D02*
X023430Y001920D01*
X025410Y001943D02*
X026450Y001943D01*
X026450Y001323D02*
X025410Y001323D01*
X031870Y002863D02*
X031870Y003903D01*
X032490Y003903D02*
X032490Y002863D01*
X033055Y003222D02*
X033055Y003545D01*
X033555Y003545D02*
X033555Y003222D01*
X038705Y005943D02*
X039414Y005943D01*
X039414Y006573D02*
X038705Y006573D01*
X036270Y009116D02*
X036270Y010156D01*
X035650Y010156D02*
X035650Y009116D01*
X029950Y009073D02*
X028910Y009073D01*
X028910Y009693D02*
X029950Y009693D01*
X025760Y007663D02*
X022860Y007663D01*
X022860Y012113D01*
X025760Y012113D01*
X025760Y007663D01*
X026330Y007323D02*
X027039Y007323D01*
X028160Y006943D02*
X029200Y006943D01*
X029200Y006323D02*
X028160Y006323D01*
X027039Y006693D02*
X026330Y006693D01*
X025789Y006323D02*
X025080Y006323D01*
X025080Y005693D02*
X025789Y005693D01*
X022825Y005823D02*
X021785Y005823D01*
X022030Y005573D02*
X021321Y005573D01*
X021321Y004943D02*
X022030Y004943D01*
X021785Y006443D02*
X022825Y006443D01*
X024269Y006883D02*
X024591Y006883D01*
X024591Y007383D02*
X024269Y007383D01*
X021117Y009967D02*
X020889Y010196D01*
X021243Y010549D02*
X021471Y010321D01*
X020620Y011784D02*
X020620Y012493D01*
X019990Y012493D02*
X019990Y011784D01*
X018841Y011883D02*
X018519Y011883D01*
X018519Y012383D02*
X018841Y012383D01*
X019019Y013883D02*
X019341Y013883D01*
X019341Y014383D02*
X019019Y014383D01*
X024525Y012758D02*
X025085Y012758D01*
X025085Y012258D02*
X024525Y012258D01*
X025190Y011723D02*
X025192Y011752D01*
X025198Y011780D01*
X025207Y011807D01*
X025221Y011832D01*
X025237Y011856D01*
X025257Y011876D01*
X025279Y011895D01*
X025303Y011909D01*
X025330Y011921D01*
X025357Y011929D01*
X025386Y011933D01*
X025414Y011933D01*
X025443Y011929D01*
X025470Y011921D01*
X025497Y011909D01*
X025521Y011895D01*
X025543Y011876D01*
X025563Y011856D01*
X025579Y011832D01*
X025593Y011807D01*
X025602Y011780D01*
X025608Y011752D01*
X025610Y011723D01*
X025608Y011694D01*
X025602Y011666D01*
X025593Y011639D01*
X025579Y011614D01*
X025563Y011590D01*
X025543Y011570D01*
X025521Y011551D01*
X025497Y011537D01*
X025470Y011525D01*
X025443Y011517D01*
X025414Y011513D01*
X025386Y011513D01*
X025357Y011517D01*
X025330Y011525D01*
X025303Y011537D01*
X025279Y011551D01*
X025257Y011570D01*
X025237Y011590D01*
X025221Y011614D01*
X025207Y011639D01*
X025198Y011666D01*
X025192Y011694D01*
X025190Y011723D01*
X026990Y012024D02*
X026990Y012733D01*
X027620Y012733D02*
X027620Y012024D01*
X028894Y013883D02*
X029216Y013883D01*
X029216Y014383D02*
X028894Y014383D01*
X016164Y009573D02*
X015455Y009573D01*
X015455Y008943D02*
X016164Y008943D01*
X016055Y008295D02*
X016055Y007972D01*
X016555Y007972D02*
X016555Y008295D01*
X009495Y010774D02*
X009495Y011483D01*
X008865Y011483D02*
X008865Y010774D01*
X005091Y012008D02*
X004769Y012008D01*
X004769Y012508D02*
X005091Y012508D01*
X002716Y010258D02*
X002394Y010258D01*
X002394Y009758D02*
X002716Y009758D01*
X002805Y008670D02*
X002805Y008347D01*
X003305Y008347D02*
X003305Y008670D01*
X004769Y007258D02*
X005091Y007258D01*
X005091Y006758D02*
X004769Y006758D01*
X003995Y006743D02*
X003995Y006034D01*
X003365Y006034D02*
X003365Y006743D01*
D11*
X022575Y007883D03*
X022575Y008383D03*
X022575Y008883D03*
X022575Y009383D03*
X022575Y009883D03*
X022575Y010383D03*
X022575Y010883D03*
X022575Y011383D03*
X022575Y011883D03*
X026045Y011883D03*
X026045Y011383D03*
X026045Y010883D03*
X026045Y010383D03*
X026045Y009883D03*
X026045Y009383D03*
X026045Y008883D03*
X026045Y008383D03*
X026045Y007883D03*
D12*
X025395Y010428D02*
X025080Y010428D01*
X024975Y010533D01*
X024975Y010954D01*
X025080Y011059D01*
X025395Y011059D01*
X025395Y010428D01*
X024750Y010428D02*
X024435Y010428D01*
X024330Y010533D01*
X024330Y010954D01*
X024435Y011059D01*
X024750Y011059D01*
X024750Y010428D01*
X024106Y010428D02*
X023686Y010849D01*
X023686Y010954D01*
X023791Y011059D01*
X024001Y011059D01*
X024106Y010954D01*
X024106Y010428D02*
X023686Y010428D01*
X005731Y004543D02*
X005100Y004543D01*
X005100Y004333D02*
X005100Y004753D01*
X005520Y004333D02*
X005731Y004543D01*
X005625Y004108D02*
X005205Y004108D01*
X005100Y004003D01*
X005100Y003688D01*
X005731Y003688D01*
X005731Y004003D01*
X005625Y004108D01*
X005625Y003464D02*
X005205Y003464D01*
X005100Y003359D01*
X005100Y003043D01*
X005731Y003043D01*
X005731Y003359D01*
X005625Y003464D01*
D13*
X006305Y002018D03*
X006805Y002018D03*
X007305Y002018D03*
X007805Y002018D03*
X008305Y002018D03*
X008805Y002018D03*
X009305Y002018D03*
X009805Y002018D03*
X010305Y002018D03*
X010305Y005488D03*
X009805Y005488D03*
X009305Y005488D03*
X008805Y005488D03*
X008305Y005488D03*
X007805Y005488D03*
X007305Y005488D03*
X006805Y005488D03*
X006305Y005488D03*
D14*
X003680Y005886D03*
X003680Y006886D03*
X010930Y004136D03*
X010930Y003136D03*
X009180Y010631D03*
X009180Y011631D03*
X020305Y011636D03*
X020305Y012636D03*
X027305Y012881D03*
X027305Y011881D03*
D15*
X027893Y012653D02*
X028200Y012653D01*
X027893Y012960D01*
X027893Y013037D01*
X027970Y013114D01*
X028123Y013114D01*
X028200Y013037D01*
X028353Y013037D02*
X028353Y012884D01*
X028430Y012807D01*
X028660Y012807D01*
X028507Y012807D02*
X028353Y012653D01*
X028660Y012653D02*
X028660Y013114D01*
X028430Y013114D01*
X028353Y013037D01*
X028432Y013153D02*
X028739Y013153D01*
X028432Y013460D01*
X028432Y013537D01*
X028509Y013614D01*
X028662Y013614D01*
X028739Y013537D01*
X029046Y013614D02*
X029046Y013153D01*
X028893Y013153D02*
X029200Y013153D01*
X029353Y013153D02*
X029507Y013307D01*
X029430Y013307D02*
X029660Y013307D01*
X029660Y013153D02*
X029660Y013614D01*
X029430Y013614D01*
X029353Y013537D01*
X029353Y013384D01*
X029430Y013307D01*
X029200Y013460D02*
X029046Y013614D01*
X028279Y013537D02*
X027972Y013230D01*
X028125Y013230D02*
X028125Y013537D01*
X027972Y013537D02*
X028279Y013230D01*
X028279Y013384D02*
X027972Y013384D01*
X025285Y013489D02*
X025285Y013028D01*
X025285Y013182D02*
X025055Y013182D01*
X024978Y013259D01*
X024978Y013412D01*
X025055Y013489D01*
X025285Y013489D01*
X025132Y013182D02*
X024978Y013028D01*
X024825Y013105D02*
X024748Y013028D01*
X024594Y013028D01*
X024518Y013105D01*
X024518Y013182D01*
X024594Y013259D01*
X024671Y013259D01*
X024594Y013259D02*
X024518Y013335D01*
X024518Y013412D01*
X024594Y013489D01*
X024748Y013489D01*
X024825Y013412D01*
X024364Y013489D02*
X024134Y013489D01*
X024057Y013412D01*
X024057Y013335D01*
X024134Y013259D01*
X024364Y013259D01*
X024364Y013489D02*
X024364Y013028D01*
X024134Y013028D01*
X024057Y013105D01*
X024057Y013182D01*
X024134Y013259D01*
X021285Y012673D02*
X021285Y012520D01*
X021209Y012443D01*
X021132Y012443D01*
X021055Y012520D01*
X021055Y012673D01*
X020978Y012750D01*
X020902Y012750D01*
X020825Y012673D01*
X020825Y012520D01*
X020902Y012443D01*
X020978Y012443D01*
X021055Y012520D01*
X021055Y012673D02*
X021132Y012750D01*
X021209Y012750D01*
X021285Y012673D01*
X021209Y012290D02*
X021055Y012290D01*
X020978Y012213D01*
X020978Y011983D01*
X020825Y011983D02*
X021285Y011983D01*
X021285Y012213D01*
X021209Y012290D01*
X020978Y012136D02*
X020825Y012290D01*
X019785Y013153D02*
X019785Y013614D01*
X019555Y013614D01*
X019478Y013537D01*
X019478Y013384D01*
X019555Y013307D01*
X019785Y013307D01*
X019632Y013307D02*
X019478Y013153D01*
X019325Y013230D02*
X019248Y013153D01*
X019094Y013153D01*
X019018Y013230D01*
X019018Y013537D01*
X019094Y013614D01*
X019248Y013614D01*
X019325Y013537D01*
X019325Y013460D01*
X019248Y013384D01*
X019018Y013384D01*
X018864Y013384D02*
X018557Y013384D01*
X018557Y013537D02*
X018864Y013230D01*
X018711Y013230D02*
X018711Y013537D01*
X018864Y013537D02*
X018557Y013230D01*
X017660Y012489D02*
X017430Y012489D01*
X017353Y012412D01*
X017353Y012259D01*
X017430Y012182D01*
X017660Y012182D01*
X017507Y012182D02*
X017353Y012028D01*
X017200Y012028D02*
X017200Y012105D01*
X016893Y012412D01*
X016893Y012489D01*
X017200Y012489D01*
X017660Y012489D02*
X017660Y012028D01*
X015910Y011614D02*
X015680Y011614D01*
X015603Y011537D01*
X015603Y011384D01*
X015680Y011307D01*
X015910Y011307D01*
X015757Y011307D02*
X015603Y011153D01*
X015450Y011384D02*
X015143Y011384D01*
X014989Y011384D02*
X014682Y011384D01*
X014682Y011537D02*
X014989Y011230D01*
X014836Y011230D02*
X014836Y011537D01*
X014989Y011537D02*
X014682Y011230D01*
X015219Y011153D02*
X015219Y011614D01*
X015450Y011384D01*
X015910Y011153D02*
X015910Y011614D01*
X015785Y010921D02*
X015785Y010614D01*
X015555Y010614D01*
X015632Y010767D01*
X015632Y010844D01*
X015555Y010921D01*
X015402Y010921D01*
X015325Y010844D01*
X015325Y010691D01*
X015402Y010614D01*
X015325Y010460D02*
X015478Y010307D01*
X015478Y010384D02*
X015478Y010153D01*
X015325Y010153D02*
X015785Y010153D01*
X015785Y010384D01*
X015709Y010460D01*
X015555Y010460D01*
X015478Y010384D01*
X017816Y010272D02*
X018544Y010272D01*
X018544Y010745D02*
X017816Y010745D01*
X010410Y010730D02*
X010333Y010653D01*
X010257Y010653D01*
X010180Y010730D01*
X010180Y011114D01*
X010257Y011114D02*
X010103Y011114D01*
X009950Y011037D02*
X009873Y011114D01*
X009719Y011114D01*
X009643Y011037D01*
X009643Y010960D01*
X009719Y010884D01*
X009643Y010807D01*
X009643Y010730D01*
X009719Y010653D01*
X009873Y010653D01*
X009950Y010730D01*
X009796Y010884D02*
X009719Y010884D01*
X008680Y010273D02*
X007180Y010273D01*
X007180Y008493D01*
X008680Y008493D01*
X008680Y010273D01*
X008927Y009850D02*
X008850Y009773D01*
X008850Y009620D01*
X008927Y009543D01*
X009003Y009543D01*
X009080Y009620D01*
X009080Y009773D01*
X009003Y009850D01*
X008927Y009850D01*
X009080Y009773D02*
X009157Y009850D01*
X009234Y009850D01*
X009310Y009773D01*
X009310Y009620D01*
X009234Y009543D01*
X009157Y009543D01*
X009080Y009620D01*
X008927Y009390D02*
X009234Y009390D01*
X009310Y009313D01*
X009310Y009083D01*
X008850Y009083D01*
X008850Y009313D01*
X008927Y009390D01*
X009003Y008929D02*
X009310Y008929D01*
X009003Y008929D02*
X008850Y008776D01*
X009003Y008622D01*
X009310Y008622D01*
X007166Y008248D02*
X007166Y007519D01*
X006694Y007519D02*
X006694Y008248D01*
X005785Y009328D02*
X005555Y009328D01*
X005478Y009405D01*
X005478Y009712D01*
X005555Y009789D01*
X005785Y009789D01*
X005785Y009328D01*
X005325Y009328D02*
X005325Y009635D01*
X005171Y009789D01*
X005018Y009635D01*
X005018Y009328D01*
X004864Y009328D02*
X004557Y009328D01*
X004711Y009328D02*
X004711Y009789D01*
X004864Y009635D01*
X005018Y009559D02*
X005325Y009559D01*
X003241Y009589D02*
X003241Y009128D01*
X003241Y009282D02*
X003011Y009282D01*
X002934Y009359D01*
X002934Y009512D01*
X003011Y009589D01*
X003241Y009589D01*
X002781Y009512D02*
X002704Y009589D01*
X002551Y009589D01*
X002474Y009512D01*
X002474Y009435D01*
X002781Y009128D01*
X002474Y009128D01*
X002320Y009128D02*
X002013Y009435D01*
X002013Y009512D01*
X002090Y009589D01*
X002244Y009589D01*
X002320Y009512D01*
X002320Y009128D02*
X002013Y009128D01*
X002934Y009128D02*
X003088Y009282D01*
X003105Y007764D02*
X003028Y007687D01*
X003028Y007534D01*
X003105Y007457D01*
X003335Y007457D01*
X003182Y007457D02*
X003028Y007303D01*
X002875Y007303D02*
X002568Y007610D01*
X002568Y007687D01*
X002644Y007764D01*
X002798Y007764D01*
X002875Y007687D01*
X003105Y007764D02*
X003335Y007764D01*
X003335Y007303D01*
X002875Y007303D02*
X002568Y007303D01*
X002414Y007303D02*
X002107Y007303D01*
X002261Y007303D02*
X002261Y007764D01*
X002414Y007610D01*
X005732Y006937D02*
X005732Y006860D01*
X005809Y006784D01*
X005732Y006707D01*
X005732Y006630D01*
X005809Y006553D01*
X005962Y006553D01*
X006039Y006630D01*
X006193Y006553D02*
X006500Y006553D01*
X006193Y006860D01*
X006193Y006937D01*
X006269Y007014D01*
X006423Y007014D01*
X006500Y006937D01*
X006653Y006937D02*
X006653Y006784D01*
X006730Y006707D01*
X006960Y006707D01*
X006807Y006707D02*
X006653Y006553D01*
X006960Y006553D02*
X006960Y007014D01*
X006730Y007014D01*
X006653Y006937D01*
X006039Y006937D02*
X005962Y007014D01*
X005809Y007014D01*
X005732Y006937D01*
X005809Y006784D02*
X005886Y006784D01*
X005295Y006138D02*
X005295Y005378D01*
X004315Y005378D02*
X004315Y006138D01*
X003735Y005404D02*
X003275Y005404D01*
X003505Y005481D02*
X003505Y005174D01*
X003735Y005404D01*
X003659Y005021D02*
X003735Y004944D01*
X003735Y004791D01*
X003659Y004714D01*
X003662Y004614D02*
X003509Y004614D01*
X003432Y004537D01*
X003432Y004460D01*
X003509Y004384D01*
X003432Y004307D01*
X003432Y004230D01*
X003509Y004153D01*
X003662Y004153D01*
X003739Y004230D01*
X003735Y004253D02*
X003735Y004484D01*
X003659Y004560D01*
X003505Y004560D01*
X003428Y004484D01*
X003428Y004253D01*
X003275Y004253D02*
X003735Y004253D01*
X003893Y004153D02*
X004200Y004153D01*
X004046Y004153D02*
X004046Y004614D01*
X004200Y004460D01*
X004353Y004537D02*
X004430Y004614D01*
X004583Y004614D01*
X004660Y004537D01*
X004660Y004230D01*
X004583Y004153D01*
X004430Y004153D01*
X004353Y004230D01*
X003739Y004537D02*
X003662Y004614D01*
X003586Y004384D02*
X003509Y004384D01*
X003428Y004407D02*
X003275Y004560D01*
X003275Y004714D02*
X003582Y005021D01*
X003659Y005021D01*
X003275Y005021D02*
X003275Y004714D01*
X010813Y004778D02*
X011120Y004778D01*
X010967Y004778D02*
X010967Y005239D01*
X011120Y005085D01*
X011274Y005009D02*
X011351Y004932D01*
X011581Y004932D01*
X011581Y004778D02*
X011581Y005239D01*
X011351Y005239D01*
X011274Y005162D01*
X011274Y005009D01*
X011427Y004932D02*
X011274Y004778D01*
X014432Y003037D02*
X014509Y003114D01*
X014662Y003114D01*
X014739Y003037D01*
X014739Y002960D01*
X014662Y002884D01*
X014432Y002884D01*
X014432Y003037D02*
X014432Y002730D01*
X014509Y002653D01*
X014662Y002653D01*
X014739Y002730D01*
X014893Y002653D02*
X015200Y002653D01*
X015353Y002653D02*
X015507Y002807D01*
X015430Y002807D02*
X015660Y002807D01*
X015660Y002653D02*
X015660Y003114D01*
X015430Y003114D01*
X015353Y003037D01*
X015353Y002884D01*
X015430Y002807D01*
X015200Y002960D02*
X015046Y003114D01*
X015046Y002653D01*
X016932Y002730D02*
X017009Y002653D01*
X017162Y002653D01*
X017239Y002730D01*
X017239Y002807D01*
X017162Y002884D01*
X017009Y002884D01*
X016932Y002807D01*
X016932Y002730D01*
X017009Y002884D02*
X016932Y002960D01*
X016932Y003037D01*
X017009Y003114D01*
X017162Y003114D01*
X017239Y003037D01*
X017239Y002960D01*
X017162Y002884D01*
X017393Y002653D02*
X017700Y002653D01*
X017853Y002653D02*
X018007Y002807D01*
X017930Y002807D02*
X018160Y002807D01*
X018160Y002653D02*
X018160Y003114D01*
X017930Y003114D01*
X017853Y003037D01*
X017853Y002884D01*
X017930Y002807D01*
X017700Y002960D02*
X017546Y003114D01*
X017546Y002653D01*
X018347Y002730D02*
X018424Y002653D01*
X018654Y002653D01*
X018654Y003114D01*
X018424Y003114D01*
X018347Y003037D01*
X018347Y002960D01*
X018424Y002884D01*
X018654Y002884D01*
X018807Y003037D02*
X019114Y002730D01*
X019114Y002653D01*
X019268Y002653D02*
X019575Y002653D01*
X019728Y002653D02*
X019882Y002807D01*
X019805Y002807D02*
X020035Y002807D01*
X020035Y002653D02*
X020035Y003114D01*
X019805Y003114D01*
X019728Y003037D01*
X019728Y002884D01*
X019805Y002807D01*
X019575Y002960D02*
X019421Y003114D01*
X019421Y002653D01*
X018807Y003037D02*
X018807Y003114D01*
X019114Y003114D01*
X019149Y003153D02*
X019456Y003153D01*
X019609Y003153D02*
X019763Y003307D01*
X019686Y003307D02*
X019916Y003307D01*
X019916Y003153D02*
X019916Y003614D01*
X019686Y003614D01*
X019609Y003537D01*
X019609Y003384D01*
X019686Y003307D01*
X019456Y003460D02*
X019302Y003614D01*
X019302Y003153D01*
X018995Y003153D02*
X018995Y003230D01*
X018688Y003537D01*
X018688Y003614D01*
X018995Y003614D01*
X018424Y002884D02*
X018347Y002807D01*
X018347Y002730D01*
X022097Y002730D02*
X022174Y002653D01*
X022404Y002653D01*
X022404Y003114D01*
X022174Y003114D01*
X022097Y003037D01*
X022097Y002960D01*
X022174Y002884D01*
X022404Y002884D01*
X022557Y002807D02*
X022557Y002730D01*
X022634Y002653D01*
X022787Y002653D01*
X022864Y002730D01*
X022864Y002884D01*
X022634Y002884D01*
X022557Y002807D01*
X022711Y003037D02*
X022864Y002884D01*
X022711Y003037D02*
X022557Y003114D01*
X022544Y003278D02*
X022390Y003278D01*
X022313Y003355D01*
X022313Y003432D01*
X022390Y003509D01*
X022620Y003509D01*
X022620Y003355D01*
X022544Y003278D01*
X022774Y003278D02*
X023081Y003278D01*
X023234Y003278D02*
X023388Y003432D01*
X023311Y003432D02*
X023541Y003432D01*
X023541Y003278D02*
X023541Y003739D01*
X023311Y003739D01*
X023234Y003662D01*
X023234Y003509D01*
X023311Y003432D01*
X023081Y003585D02*
X022927Y003739D01*
X022927Y003278D01*
X023171Y003114D02*
X023171Y002653D01*
X023018Y002653D02*
X023325Y002653D01*
X023478Y002653D02*
X023632Y002807D01*
X023555Y002807D02*
X023785Y002807D01*
X023785Y002653D02*
X023785Y003114D01*
X023555Y003114D01*
X023478Y003037D01*
X023478Y002884D01*
X023555Y002807D01*
X023325Y002960D02*
X023171Y003114D01*
X022620Y003509D02*
X022467Y003662D01*
X022313Y003739D01*
X021754Y004278D02*
X021677Y004278D01*
X021601Y004355D01*
X021601Y004739D01*
X021677Y004739D02*
X021524Y004739D01*
X021370Y004739D02*
X021370Y004509D01*
X021217Y004585D01*
X021140Y004585D01*
X021063Y004509D01*
X021063Y004355D01*
X021140Y004278D01*
X021294Y004278D01*
X021370Y004355D01*
X021754Y004278D02*
X021831Y004355D01*
X021370Y004739D02*
X021063Y004739D01*
X021782Y005103D02*
X022089Y005103D01*
X021936Y005103D02*
X021936Y005564D01*
X022089Y005410D01*
X022243Y005487D02*
X022319Y005564D01*
X022550Y005564D01*
X022550Y005103D01*
X022319Y005103D01*
X022243Y005180D01*
X022243Y005487D01*
X022703Y005564D02*
X022703Y005257D01*
X022857Y005103D01*
X023010Y005257D01*
X023010Y005564D01*
X024768Y006528D02*
X025075Y006528D01*
X024768Y006835D01*
X024768Y006912D01*
X024844Y006989D01*
X024998Y006989D01*
X025075Y006912D01*
X025228Y006989D02*
X025382Y006989D01*
X025305Y006989D02*
X025305Y006605D01*
X025382Y006528D01*
X025458Y006528D01*
X025535Y006605D01*
X023410Y006903D02*
X023410Y007364D01*
X023180Y007364D01*
X023103Y007287D01*
X023103Y007134D01*
X023180Y007057D01*
X023410Y007057D01*
X023257Y007057D02*
X023103Y006903D01*
X022950Y006980D02*
X022873Y006903D01*
X022719Y006903D01*
X022643Y006980D01*
X022643Y007057D01*
X022719Y007134D01*
X022950Y007134D01*
X022950Y006980D01*
X022950Y007134D02*
X022796Y007287D01*
X022643Y007364D01*
X026643Y007528D02*
X026950Y007528D01*
X026796Y007528D02*
X026796Y007989D01*
X026950Y007835D01*
X027103Y007989D02*
X027257Y007989D01*
X027180Y007989D02*
X027180Y007605D01*
X027257Y007528D01*
X027333Y007528D01*
X027410Y007605D01*
X029750Y006648D02*
X029750Y006495D01*
X029827Y006418D01*
X029980Y006418D02*
X030057Y006571D01*
X030057Y006648D01*
X029980Y006725D01*
X029827Y006725D01*
X029750Y006648D01*
X030210Y006725D02*
X030210Y006418D01*
X029980Y006418D01*
X029827Y006265D02*
X030134Y006265D01*
X030210Y006188D01*
X030210Y005958D01*
X029750Y005958D01*
X029750Y006188D01*
X029827Y006265D01*
X029903Y005804D02*
X030210Y005804D01*
X029903Y005804D02*
X029750Y005651D01*
X029903Y005497D01*
X030210Y005497D01*
X037018Y006009D02*
X037325Y006009D01*
X037094Y006239D01*
X037094Y005778D01*
X037555Y005855D02*
X037555Y006239D01*
X037632Y006239D02*
X037478Y006239D01*
X037555Y005855D02*
X037632Y005778D01*
X037708Y005778D01*
X037785Y005855D01*
X035380Y009143D02*
X035227Y009297D01*
X035227Y009604D01*
X035073Y009604D02*
X034843Y009604D01*
X034766Y009527D01*
X034766Y009220D01*
X034843Y009143D01*
X035073Y009143D01*
X035073Y009604D01*
X035534Y009604D02*
X035534Y009297D01*
X035380Y009143D01*
X034613Y009220D02*
X034536Y009143D01*
X034383Y009143D01*
X034306Y009220D01*
X034306Y009297D01*
X034383Y009374D01*
X034459Y009374D01*
X034383Y009374D02*
X034306Y009450D01*
X034306Y009527D01*
X034383Y009604D01*
X034536Y009604D01*
X034613Y009527D01*
X030010Y010007D02*
X029857Y009853D01*
X029703Y010007D01*
X029703Y010314D01*
X029550Y010314D02*
X029319Y010314D01*
X029243Y010237D01*
X029243Y009930D01*
X029319Y009853D01*
X029550Y009853D01*
X029550Y010314D01*
X030010Y010314D02*
X030010Y010007D01*
X029089Y010084D02*
X028782Y010084D01*
X028859Y010314D02*
X029089Y010084D01*
X028859Y009853D02*
X028859Y010314D01*
X022174Y002884D02*
X022097Y002807D01*
X022097Y002730D01*
X025338Y001039D02*
X025338Y000962D01*
X025645Y000655D01*
X025645Y000578D01*
X025799Y000655D02*
X025799Y000962D01*
X025876Y001039D01*
X026106Y001039D01*
X026106Y000578D01*
X025876Y000578D01*
X025799Y000655D01*
X026259Y000732D02*
X026413Y000578D01*
X026566Y000732D01*
X026566Y001039D01*
X026259Y001039D02*
X026259Y000732D01*
X025645Y001039D02*
X025338Y001039D01*
X032025Y001207D02*
X032178Y001053D01*
X032485Y001053D01*
X032178Y001360D02*
X032025Y001207D01*
X032178Y001360D02*
X032485Y001360D01*
X032485Y001514D02*
X032025Y001514D01*
X032025Y001744D01*
X032102Y001821D01*
X032409Y001821D01*
X032485Y001744D01*
X032485Y001514D01*
X033075Y001511D02*
X033535Y001511D01*
X033382Y001358D01*
X033459Y001204D02*
X033305Y001204D01*
X033228Y001127D01*
X033228Y000897D01*
X033075Y000897D02*
X033535Y000897D01*
X033535Y001127D01*
X033459Y001204D01*
X033228Y001051D02*
X033075Y001204D01*
X033075Y001358D02*
X033075Y001665D01*
X033152Y001818D02*
X033075Y001895D01*
X033075Y002048D01*
X033152Y002125D01*
X033305Y002125D01*
X033382Y002048D01*
X033382Y001971D01*
X033305Y001818D01*
X033535Y001818D01*
X033535Y002125D01*
X032485Y002281D02*
X032409Y002128D01*
X032255Y001974D01*
X032255Y002204D01*
X032178Y002281D01*
X032102Y002281D01*
X032025Y002204D01*
X032025Y002051D01*
X032102Y001974D01*
X032255Y001974D01*
X010081Y000918D02*
X010004Y000841D01*
X009927Y000841D01*
X009851Y000918D01*
X009851Y001301D01*
X009927Y001301D02*
X009774Y001301D01*
X009620Y001071D02*
X009467Y001225D01*
X009313Y001301D01*
X009390Y001071D02*
X009313Y000994D01*
X009313Y000918D01*
X009390Y000841D01*
X009544Y000841D01*
X009620Y000918D01*
X009620Y001071D01*
X009390Y001071D01*
X003666Y011144D02*
X003666Y011873D01*
X003194Y011873D02*
X003194Y011144D01*
X004307Y011355D02*
X004307Y011662D01*
X004614Y011355D01*
X004537Y011278D01*
X004384Y011278D01*
X004307Y011355D01*
X004614Y011355D02*
X004614Y011662D01*
X004537Y011739D01*
X004384Y011739D01*
X004307Y011662D01*
X004768Y011278D02*
X005075Y011278D01*
X005228Y011278D02*
X005382Y011432D01*
X005305Y011432D02*
X005535Y011432D01*
X005535Y011278D02*
X005535Y011739D01*
X005305Y011739D01*
X005228Y011662D01*
X005228Y011509D01*
X005305Y011432D01*
X005075Y011585D02*
X004921Y011739D01*
X004921Y011278D01*
D16*
X007536Y009459D02*
X008324Y009459D01*
X007930Y009057D01*
X007536Y009459D01*
X005803Y009203D02*
X005606Y009203D01*
X005606Y007314D01*
X005803Y007314D01*
X005803Y009203D01*
X005606Y009203D02*
X004307Y009203D01*
X004307Y007314D01*
X005606Y007314D01*
X022158Y006133D02*
X022552Y006370D01*
X022552Y005897D01*
X022158Y006133D01*
X028533Y006633D02*
X028927Y006397D01*
X028927Y006870D01*
X028533Y006633D01*
X029183Y009147D02*
X029183Y009620D01*
X029577Y009383D01*
X029183Y009147D01*
X035724Y009389D02*
X036196Y009389D01*
X035960Y009783D01*
X035724Y009389D01*
X032180Y003530D02*
X032416Y003137D01*
X031944Y003137D01*
X032180Y003530D01*
X026177Y001870D02*
X026177Y001397D01*
X025783Y001633D01*
X026177Y001870D01*
D17*
X026550Y001633D03*
X025310Y001633D03*
X022925Y006133D03*
X021685Y006133D03*
X028060Y006633D03*
X029300Y006633D03*
X028810Y009383D03*
X030050Y009383D03*
D18*
X029650Y009383D03*
X028460Y006633D03*
X022085Y006133D03*
X025710Y001633D03*
D19*
X032180Y002763D03*
X032180Y004003D03*
X035960Y009016D03*
X035960Y010256D03*
D20*
X035960Y009856D03*
X032180Y003603D03*
D21*
X024722Y007134D03*
X024142Y007134D03*
G36*
X021280Y009770D02*
X021099Y009951D01*
X021486Y010338D01*
X021667Y010157D01*
X021280Y009770D01*
G37*
G36*
X020870Y010180D02*
X020689Y010361D01*
X021076Y010748D01*
X021257Y010567D01*
X020870Y010180D01*
G37*
X018972Y012134D03*
X018392Y012134D03*
X018892Y014134D03*
X019472Y014134D03*
X028767Y014134D03*
X029347Y014134D03*
X005222Y012259D03*
X004642Y012259D03*
X002843Y010008D03*
X002263Y010008D03*
X004642Y007009D03*
X005222Y007009D03*
X014892Y002009D03*
X015472Y002009D03*
X017392Y002134D03*
X017972Y002134D03*
X008593Y001320D03*
X008013Y001320D03*
D22*
X018931Y001466D03*
X019679Y001470D03*
X019679Y002050D03*
X018931Y002046D03*
X022431Y002046D03*
X023179Y002050D03*
X023179Y001470D03*
X022431Y001466D03*
X033306Y003091D03*
X033306Y003671D03*
X016304Y007845D03*
X016304Y008425D03*
X003056Y008216D03*
X003056Y008796D03*
D23*
X015307Y009258D03*
X016307Y009258D03*
X024932Y006008D03*
X025932Y006008D03*
X026182Y007008D03*
X027182Y007008D03*
X022178Y005259D03*
X021178Y005259D03*
X038557Y006258D03*
X039557Y006258D03*
D24*
X006059Y007508D03*
X006059Y008008D03*
X006059Y008508D03*
X006059Y009008D03*
X004051Y009008D03*
X004051Y008508D03*
X004051Y008008D03*
X004051Y007508D03*
D25*
X006930Y007588D03*
X006930Y008179D03*
X003430Y011213D03*
X003430Y011804D03*
D26*
X004641Y011149D02*
X004641Y010779D01*
X004518Y010779D02*
X004765Y010779D01*
X004886Y010779D02*
X005133Y010779D01*
X005009Y010779D02*
X005009Y011149D01*
X005133Y011026D01*
X005254Y011088D02*
X005316Y011149D01*
X005440Y011149D01*
X005501Y011088D01*
X005501Y010841D01*
X005440Y010779D01*
X005316Y010779D01*
X005254Y010841D01*
X004765Y011026D02*
X004641Y011149D01*
X007579Y007649D02*
X007703Y007649D01*
X007765Y007588D01*
X007579Y007649D02*
X007518Y007588D01*
X007518Y007526D01*
X007765Y007279D01*
X007518Y007279D01*
X007886Y007279D02*
X008133Y007279D01*
X008009Y007279D02*
X008009Y007649D01*
X008133Y007526D01*
X008254Y007588D02*
X008316Y007649D01*
X008440Y007649D01*
X008501Y007588D01*
X008501Y007341D01*
X008440Y007279D01*
X008316Y007279D01*
X008254Y007341D01*
X017450Y011180D02*
X017512Y011118D01*
X017635Y011118D01*
X017697Y011180D01*
X017697Y011303D02*
X017574Y011365D01*
X017512Y011365D01*
X017450Y011303D01*
X017450Y011180D01*
X017697Y011303D02*
X017697Y011488D01*
X017450Y011488D01*
X017942Y011488D02*
X017942Y011118D01*
X018065Y011118D02*
X017819Y011118D01*
X018065Y011365D02*
X017942Y011488D01*
X018187Y011426D02*
X018249Y011488D01*
X018372Y011488D01*
X018434Y011426D01*
X018434Y011180D01*
X018372Y011118D01*
X018249Y011118D01*
X018187Y011180D01*
D27*
X007930Y010378D03*
X007930Y008388D03*
D28*
X007930Y008960D03*
D29*
X017885Y010508D03*
X018475Y010508D03*
D30*
X024465Y012508D03*
X025145Y012508D03*
D31*
X021838Y008615D02*
X021732Y008615D01*
X021625Y008509D01*
X021625Y008403D01*
X021785Y008244D01*
X021679Y008350D02*
X021466Y008350D01*
X021679Y008137D02*
X021997Y008456D01*
X021838Y008615D01*
D32*
X004803Y006281D03*
X004807Y005236D03*
M02*
