G75*
G70*
%OFA0B0*%
%FSLAX24Y24*%
%IPPOS*%
%LPD*%
%AMOC8*
5,1,8,0,0,1.08239X$1,22.5*
%
%ADD10C,0.0060*%
%ADD11R,0.0530X0.0160*%
%ADD12C,0.0070*%
%ADD13R,0.0160X0.0530*%
%ADD14R,0.0689X0.0295*%
%ADD15C,0.0040*%
%ADD16C,0.0080*%
%ADD17R,0.0220X0.0680*%
%ADD18R,0.0240X0.0620*%
%ADD19R,0.0680X0.0220*%
%ADD20R,0.0620X0.0240*%
%ADD21R,0.0256X0.0551*%
%ADD22R,0.0551X0.0256*%
%ADD23R,0.0295X0.0689*%
%ADD24R,0.0433X0.0193*%
%ADD25R,0.0512X0.0197*%
%ADD26C,0.0030*%
%ADD27R,0.0860X0.0210*%
%ADD28R,0.1496X0.0217*%
%ADD29R,0.0197X0.0512*%
%ADD30R,0.0140X0.0560*%
%ADD31C,0.0050*%
%ADD32R,0.1024X0.0295*%
D10*
X006463Y002303D02*
X006463Y005203D01*
X010913Y005203D01*
X010913Y002303D01*
X006463Y002303D01*
X008522Y001571D02*
X008845Y001571D01*
X008845Y001071D02*
X008522Y001071D01*
X010313Y002663D02*
X010315Y002692D01*
X010321Y002720D01*
X010330Y002747D01*
X010344Y002772D01*
X010360Y002796D01*
X010380Y002816D01*
X010402Y002835D01*
X010426Y002849D01*
X010453Y002861D01*
X010480Y002869D01*
X010509Y002873D01*
X010537Y002873D01*
X010566Y002869D01*
X010593Y002861D01*
X010620Y002849D01*
X010644Y002835D01*
X010666Y002816D01*
X010686Y002796D01*
X010702Y002772D01*
X010716Y002747D01*
X010725Y002720D01*
X010731Y002692D01*
X010733Y002663D01*
X010731Y002634D01*
X010725Y002606D01*
X010716Y002579D01*
X010702Y002554D01*
X010686Y002530D01*
X010666Y002510D01*
X010644Y002491D01*
X010620Y002477D01*
X010593Y002465D01*
X010566Y002457D01*
X010537Y002453D01*
X010509Y002453D01*
X010480Y002457D01*
X010453Y002465D01*
X010426Y002477D01*
X010402Y002491D01*
X010380Y002510D01*
X010360Y002530D01*
X010344Y002554D01*
X010330Y002579D01*
X010321Y002606D01*
X010315Y002634D01*
X010313Y002663D01*
X010993Y003284D02*
X010993Y003993D01*
X011623Y003993D02*
X011623Y003284D01*
X015397Y002258D02*
X015720Y002258D01*
X015720Y001758D02*
X015397Y001758D01*
X017897Y001883D02*
X018220Y001883D01*
X019058Y001920D02*
X019058Y001597D01*
X019558Y001597D02*
X019558Y001920D01*
X019808Y001920D02*
X019808Y001597D01*
X020308Y001597D02*
X020308Y001920D01*
X018220Y002383D02*
X017897Y002383D01*
X022558Y001920D02*
X022558Y001597D01*
X023058Y001597D02*
X023058Y001920D01*
X023308Y001920D02*
X023308Y001597D01*
X023808Y001597D02*
X023808Y001920D01*
X025788Y002068D02*
X026828Y002068D01*
X026828Y001448D02*
X025788Y001448D01*
X032248Y002863D02*
X032248Y003903D01*
X032868Y003903D02*
X032868Y002863D01*
X033433Y003222D02*
X033433Y003545D01*
X033933Y003545D02*
X033933Y003222D01*
X039084Y005943D02*
X039793Y005943D01*
X039793Y006573D02*
X039084Y006573D01*
X036648Y009116D02*
X036648Y010156D01*
X036028Y010156D02*
X036028Y009116D01*
X030328Y009073D02*
X029288Y009073D01*
X029288Y009693D02*
X030328Y009693D01*
X026138Y007663D02*
X023238Y007663D01*
X023238Y012113D01*
X026138Y012113D01*
X026138Y007663D01*
X026709Y007323D02*
X027418Y007323D01*
X028538Y006943D02*
X029578Y006943D01*
X029578Y006323D02*
X028538Y006323D01*
X027418Y006693D02*
X026709Y006693D01*
X026168Y006323D02*
X025459Y006323D01*
X025459Y005693D02*
X026168Y005693D01*
X023203Y005823D02*
X022163Y005823D01*
X022408Y005573D02*
X021699Y005573D01*
X021699Y004943D02*
X022408Y004943D01*
X022163Y006443D02*
X023203Y006443D01*
X024647Y006883D02*
X024970Y006883D01*
X024970Y007383D02*
X024647Y007383D01*
X021433Y010030D02*
X021205Y010258D01*
X021558Y010612D02*
X021787Y010384D01*
X020998Y011784D02*
X020998Y012493D01*
X020368Y012493D02*
X020368Y011784D01*
X019220Y011883D02*
X018897Y011883D01*
X018897Y012383D02*
X019220Y012383D01*
X019397Y013883D02*
X019720Y013883D01*
X019720Y014383D02*
X019397Y014383D01*
X024903Y012758D02*
X025463Y012758D01*
X025463Y012258D02*
X024903Y012258D01*
X025568Y011723D02*
X025570Y011752D01*
X025576Y011780D01*
X025585Y011807D01*
X025599Y011832D01*
X025615Y011856D01*
X025635Y011876D01*
X025657Y011895D01*
X025681Y011909D01*
X025708Y011921D01*
X025735Y011929D01*
X025764Y011933D01*
X025792Y011933D01*
X025821Y011929D01*
X025848Y011921D01*
X025875Y011909D01*
X025899Y011895D01*
X025921Y011876D01*
X025941Y011856D01*
X025957Y011832D01*
X025971Y011807D01*
X025980Y011780D01*
X025986Y011752D01*
X025988Y011723D01*
X025986Y011694D01*
X025980Y011666D01*
X025971Y011639D01*
X025957Y011614D01*
X025941Y011590D01*
X025921Y011570D01*
X025899Y011551D01*
X025875Y011537D01*
X025848Y011525D01*
X025821Y011517D01*
X025792Y011513D01*
X025764Y011513D01*
X025735Y011517D01*
X025708Y011525D01*
X025681Y011537D01*
X025657Y011551D01*
X025635Y011570D01*
X025615Y011590D01*
X025599Y011614D01*
X025585Y011639D01*
X025576Y011666D01*
X025570Y011694D01*
X025568Y011723D01*
X027368Y012024D02*
X027368Y012733D01*
X027998Y012733D02*
X027998Y012024D01*
X029272Y013883D02*
X029595Y013883D01*
X029595Y014383D02*
X029272Y014383D01*
X016543Y009823D02*
X015834Y009823D01*
X015834Y009193D02*
X016543Y009193D01*
X015808Y008670D02*
X015808Y008347D01*
X015308Y008347D02*
X015308Y008670D01*
X016433Y008545D02*
X016433Y008222D01*
X016933Y008222D02*
X016933Y008545D01*
X009873Y010774D02*
X009873Y011483D01*
X009243Y011483D02*
X009243Y010774D01*
X005470Y012008D02*
X005147Y012008D01*
X005147Y012508D02*
X005470Y012508D01*
X003095Y010258D02*
X002772Y010258D01*
X002772Y009758D02*
X003095Y009758D01*
X003183Y008670D02*
X003183Y008347D01*
X003683Y008347D02*
X003683Y008670D01*
X005147Y007258D02*
X005470Y007258D01*
X005470Y006758D02*
X005147Y006758D01*
X004373Y006743D02*
X004373Y006034D01*
X003743Y006034D02*
X003743Y006743D01*
D11*
X022953Y007883D03*
X022953Y008383D03*
X022953Y008883D03*
X022953Y009383D03*
X022953Y009883D03*
X022953Y010383D03*
X022953Y010883D03*
X022953Y011383D03*
X022953Y011883D03*
X026423Y011883D03*
X026423Y011383D03*
X026423Y010883D03*
X026423Y010383D03*
X026423Y009883D03*
X026423Y009383D03*
X026423Y008883D03*
X026423Y008383D03*
X026423Y007883D03*
D12*
X025773Y010428D02*
X025458Y010428D01*
X025353Y010533D01*
X025353Y010954D01*
X025458Y011059D01*
X025773Y011059D01*
X025773Y010428D01*
X025129Y010428D02*
X024814Y010428D01*
X024708Y010533D01*
X024708Y010954D01*
X024814Y011059D01*
X025129Y011059D01*
X025129Y010428D01*
X024484Y010428D02*
X024064Y010849D01*
X024064Y010954D01*
X024169Y011059D01*
X024379Y011059D01*
X024484Y010954D01*
X024484Y010428D02*
X024064Y010428D01*
X006109Y004543D02*
X005899Y004333D01*
X006109Y004543D02*
X005478Y004543D01*
X005478Y004333D02*
X005478Y004753D01*
X005583Y004108D02*
X006004Y004108D01*
X006109Y004003D01*
X006109Y003688D01*
X005478Y003688D01*
X005478Y004003D01*
X005583Y004108D01*
X005583Y003464D02*
X006004Y003464D01*
X006109Y003359D01*
X006109Y003043D01*
X005478Y003043D01*
X005478Y003359D01*
X005583Y003464D01*
D13*
X006683Y002018D03*
X007183Y002018D03*
X007683Y002018D03*
X008183Y002018D03*
X008683Y002018D03*
X009183Y002018D03*
X009683Y002018D03*
X010183Y002018D03*
X010683Y002018D03*
X010683Y005488D03*
X010183Y005488D03*
X009683Y005488D03*
X009183Y005488D03*
X008683Y005488D03*
X008183Y005488D03*
X007683Y005488D03*
X007183Y005488D03*
X006683Y005488D03*
D14*
X004059Y005886D03*
X004059Y006886D03*
X011309Y004136D03*
X011309Y003136D03*
X009558Y010631D03*
X009558Y011631D03*
X020684Y011636D03*
X020684Y012636D03*
X027683Y012881D03*
X027683Y011881D03*
D15*
X028271Y012528D02*
X028578Y012528D01*
X028271Y012835D01*
X028271Y012912D01*
X028348Y012989D01*
X028501Y012989D01*
X028578Y012912D01*
X028732Y012912D02*
X028732Y012759D01*
X028808Y012682D01*
X029039Y012682D01*
X029039Y012528D02*
X029039Y012989D01*
X028808Y012989D01*
X028732Y012912D01*
X028885Y012682D02*
X028732Y012528D01*
X028811Y013153D02*
X029118Y013153D01*
X028811Y013460D01*
X028811Y013537D01*
X028887Y013614D01*
X029041Y013614D01*
X029118Y013537D01*
X029424Y013614D02*
X029424Y013153D01*
X029271Y013153D02*
X029578Y013153D01*
X029731Y013153D02*
X029885Y013307D01*
X029808Y013307D02*
X030038Y013307D01*
X030038Y013153D02*
X030038Y013614D01*
X029808Y013614D01*
X029731Y013537D01*
X029731Y013384D01*
X029808Y013307D01*
X029578Y013460D02*
X029424Y013614D01*
X028657Y013537D02*
X028350Y013230D01*
X028350Y013384D02*
X028657Y013384D01*
X028657Y013230D02*
X028350Y013537D01*
X028504Y013537D02*
X028504Y013230D01*
X025663Y013182D02*
X025433Y013182D01*
X025356Y013259D01*
X025356Y013412D01*
X025433Y013489D01*
X025663Y013489D01*
X025663Y013028D01*
X025510Y013182D02*
X025356Y013028D01*
X025203Y013105D02*
X025126Y013028D01*
X024973Y013028D01*
X024896Y013105D01*
X024896Y013182D01*
X024973Y013259D01*
X025049Y013259D01*
X024973Y013259D02*
X024896Y013335D01*
X024896Y013412D01*
X024973Y013489D01*
X025126Y013489D01*
X025203Y013412D01*
X024743Y013489D02*
X024666Y013566D01*
X024512Y013412D01*
X024436Y013489D01*
X021795Y013903D02*
X021795Y014364D01*
X021564Y014364D01*
X021488Y014287D01*
X021488Y014134D01*
X021564Y014057D01*
X021795Y014057D01*
X021641Y014057D02*
X021488Y013903D01*
X021334Y013980D02*
X021257Y013903D01*
X021104Y013903D01*
X021027Y013980D01*
X021027Y014287D01*
X021104Y014364D01*
X021257Y014364D01*
X021334Y014287D01*
X021334Y014210D01*
X021257Y014134D01*
X021027Y014134D01*
X020874Y014134D02*
X020567Y014134D01*
X020567Y014287D02*
X020874Y013980D01*
X020720Y013980D02*
X020720Y014287D01*
X020874Y014287D02*
X020567Y013980D01*
X021280Y012750D02*
X021203Y012673D01*
X021203Y012520D01*
X021280Y012443D01*
X021357Y012443D01*
X021434Y012520D01*
X021434Y012673D01*
X021357Y012750D01*
X021280Y012750D01*
X021434Y012673D02*
X021510Y012750D01*
X021587Y012750D01*
X021664Y012673D01*
X021664Y012520D01*
X021587Y012443D01*
X021510Y012443D01*
X021434Y012520D01*
X021434Y012290D02*
X021357Y012213D01*
X021357Y011983D01*
X021357Y012136D02*
X021203Y012290D01*
X021434Y012290D02*
X021587Y012290D01*
X021664Y012213D01*
X021664Y011983D01*
X021203Y011983D01*
X018923Y010745D02*
X018194Y010745D01*
X018194Y010272D02*
X018923Y010272D01*
X016851Y011466D02*
X016851Y011926D01*
X016621Y011926D01*
X016544Y011850D01*
X016544Y011696D01*
X016621Y011619D01*
X016851Y011619D01*
X016697Y011619D02*
X016544Y011466D01*
X016390Y011543D02*
X016314Y011466D01*
X016160Y011466D01*
X016084Y011543D01*
X016084Y011696D01*
X016160Y011773D01*
X016237Y011773D01*
X016390Y011696D01*
X016390Y011926D01*
X016084Y011926D01*
X015788Y011926D02*
X015558Y011926D01*
X015481Y011850D01*
X015481Y011696D01*
X015558Y011619D01*
X015788Y011619D01*
X015788Y011466D02*
X015788Y011926D01*
X015635Y011619D02*
X015481Y011466D01*
X015328Y011696D02*
X015021Y011696D01*
X015098Y011466D02*
X015098Y011926D01*
X015328Y011696D01*
X015291Y011239D02*
X015522Y011009D01*
X015215Y011009D01*
X015061Y011009D02*
X014754Y011009D01*
X014754Y011162D02*
X015061Y010855D01*
X014908Y010855D02*
X014908Y011162D01*
X015061Y011162D02*
X014754Y010855D01*
X015291Y010778D02*
X015291Y011239D01*
X015675Y011162D02*
X015675Y011009D01*
X015752Y010932D01*
X015982Y010932D01*
X015829Y010932D02*
X015675Y010778D01*
X015982Y010778D02*
X015982Y011239D01*
X015752Y011239D01*
X015675Y011162D01*
X017578Y012028D02*
X017578Y012105D01*
X017271Y012412D01*
X017271Y012489D01*
X017578Y012489D01*
X017731Y012412D02*
X017731Y012259D01*
X017808Y012182D01*
X018038Y012182D01*
X017885Y012182D02*
X017731Y012028D01*
X018038Y012028D02*
X018038Y012489D01*
X017808Y012489D01*
X017731Y012412D01*
X010913Y010980D02*
X010837Y010903D01*
X010760Y010903D01*
X010683Y010980D01*
X010683Y011364D01*
X010760Y011364D02*
X010606Y011364D01*
X010453Y011287D02*
X010376Y011364D01*
X010223Y011364D01*
X010146Y011287D01*
X010146Y011210D01*
X010223Y011134D01*
X010146Y011057D01*
X010146Y010980D01*
X010223Y010903D01*
X010376Y010903D01*
X010453Y010980D01*
X010299Y011134D02*
X010223Y011134D01*
X008445Y011264D02*
X008445Y010957D01*
X008291Y010803D01*
X008138Y010957D01*
X008138Y011264D01*
X007984Y011264D02*
X007754Y011264D01*
X007677Y011187D01*
X007677Y010880D01*
X007754Y010803D01*
X007984Y010803D01*
X007984Y011264D01*
X007524Y011187D02*
X007524Y011110D01*
X007447Y011034D01*
X007294Y011034D01*
X007217Y010957D01*
X007217Y010880D01*
X007294Y010803D01*
X007447Y010803D01*
X007524Y010880D01*
X007524Y010957D01*
X007447Y011034D01*
X007294Y011034D02*
X007217Y011110D01*
X007217Y011187D01*
X007294Y011264D01*
X007447Y011264D01*
X007524Y011187D01*
X005913Y011278D02*
X005913Y011739D01*
X005683Y011739D01*
X005606Y011662D01*
X005606Y011509D01*
X005683Y011432D01*
X005913Y011432D01*
X005760Y011432D02*
X005606Y011278D01*
X005453Y011278D02*
X005146Y011278D01*
X005299Y011278D02*
X005299Y011739D01*
X005453Y011585D01*
X004993Y011662D02*
X004916Y011739D01*
X004762Y011739D01*
X004686Y011662D01*
X004993Y011355D01*
X004916Y011278D01*
X004762Y011278D01*
X004686Y011355D01*
X004686Y011662D01*
X004993Y011662D02*
X004993Y011355D01*
X004045Y011144D02*
X004045Y011873D01*
X003572Y011873D02*
X003572Y011144D01*
X005089Y009789D02*
X005089Y009328D01*
X004936Y009328D02*
X005243Y009328D01*
X005396Y009328D02*
X005396Y009635D01*
X005549Y009789D01*
X005703Y009635D01*
X005703Y009328D01*
X005856Y009405D02*
X005856Y009712D01*
X005933Y009789D01*
X006163Y009789D01*
X006163Y009328D01*
X005933Y009328D01*
X005856Y009405D01*
X005703Y009559D02*
X005396Y009559D01*
X005243Y009635D02*
X005089Y009789D01*
X003620Y009589D02*
X003620Y009128D01*
X003620Y009282D02*
X003389Y009282D01*
X003313Y009359D01*
X003313Y009512D01*
X003389Y009589D01*
X003620Y009589D01*
X003159Y009512D02*
X003082Y009589D01*
X002929Y009589D01*
X002852Y009512D01*
X002852Y009435D01*
X003159Y009128D01*
X002852Y009128D01*
X002699Y009128D02*
X002392Y009435D01*
X002392Y009512D01*
X002469Y009589D01*
X002622Y009589D01*
X002699Y009512D01*
X002699Y009128D02*
X002392Y009128D01*
X003313Y009128D02*
X003466Y009282D01*
X003483Y007764D02*
X003406Y007687D01*
X003406Y007534D01*
X003483Y007457D01*
X003713Y007457D01*
X003560Y007457D02*
X003406Y007303D01*
X003253Y007303D02*
X002946Y007610D01*
X002946Y007687D01*
X003023Y007764D01*
X003176Y007764D01*
X003253Y007687D01*
X003483Y007764D02*
X003713Y007764D01*
X003713Y007303D01*
X003253Y007303D02*
X002946Y007303D01*
X002793Y007303D02*
X002486Y007303D01*
X002639Y007303D02*
X002639Y007764D01*
X002793Y007610D01*
X006053Y006848D02*
X006053Y006695D01*
X006130Y006618D01*
X006053Y006465D02*
X006053Y006158D01*
X006360Y006465D01*
X006437Y006465D01*
X006514Y006388D01*
X006514Y006234D01*
X006437Y006158D01*
X006437Y006004D02*
X006284Y006004D01*
X006207Y005927D01*
X006207Y005697D01*
X006053Y005697D02*
X006514Y005697D01*
X006514Y005927D01*
X006437Y006004D01*
X006207Y005851D02*
X006053Y006004D01*
X005673Y006013D02*
X005673Y005253D01*
X004693Y005253D02*
X004693Y006013D01*
X004114Y005404D02*
X003653Y005404D01*
X003884Y005481D02*
X003884Y005174D01*
X004114Y005404D01*
X004037Y005021D02*
X004114Y004944D01*
X004114Y004791D01*
X004037Y004714D01*
X004037Y004560D02*
X003884Y004560D01*
X003807Y004484D01*
X003807Y004253D01*
X003811Y004182D02*
X003811Y004105D01*
X003887Y004028D01*
X004041Y004028D01*
X004118Y004105D01*
X004114Y004253D02*
X004114Y004484D01*
X004037Y004560D01*
X004041Y004489D02*
X003887Y004489D01*
X003811Y004412D01*
X003811Y004335D01*
X003887Y004259D01*
X003811Y004182D01*
X003887Y004259D02*
X003964Y004259D01*
X004114Y004253D02*
X003653Y004253D01*
X003807Y004407D02*
X003653Y004560D01*
X003653Y004714D02*
X003960Y005021D01*
X004037Y005021D01*
X003653Y005021D02*
X003653Y004714D01*
X004041Y004489D02*
X004118Y004412D01*
X004424Y004489D02*
X004424Y004028D01*
X004271Y004028D02*
X004578Y004028D01*
X004731Y004105D02*
X004808Y004028D01*
X004962Y004028D01*
X005038Y004105D01*
X005038Y004412D01*
X004962Y004489D01*
X004808Y004489D01*
X004731Y004412D01*
X004578Y004335D02*
X004424Y004489D01*
X006437Y006618D02*
X006514Y006695D01*
X006514Y006848D01*
X006437Y006925D01*
X006360Y006925D01*
X006284Y006848D01*
X006207Y006925D01*
X006130Y006925D01*
X006053Y006848D01*
X006284Y006848D02*
X006284Y006771D01*
X007072Y007144D02*
X007072Y007873D01*
X007545Y007873D02*
X007545Y007144D01*
X007558Y008368D02*
X009058Y008368D01*
X009058Y010148D01*
X007558Y010148D01*
X007558Y008368D01*
X011345Y005239D02*
X011345Y004778D01*
X011192Y004778D02*
X011499Y004778D01*
X011652Y004778D02*
X011806Y004932D01*
X011729Y004932D02*
X011959Y004932D01*
X011959Y004778D02*
X011959Y005239D01*
X011729Y005239D01*
X011652Y005162D01*
X011652Y005009D01*
X011729Y004932D01*
X011499Y005085D02*
X011345Y005239D01*
X014811Y003037D02*
X014887Y003114D01*
X015041Y003114D01*
X015118Y003037D01*
X015118Y002960D01*
X015041Y002884D01*
X014811Y002884D01*
X014811Y003037D02*
X014811Y002730D01*
X014887Y002653D01*
X015041Y002653D01*
X015118Y002730D01*
X015271Y002653D02*
X015578Y002653D01*
X015731Y002653D02*
X015885Y002807D01*
X015808Y002807D02*
X016038Y002807D01*
X016038Y002653D02*
X016038Y003114D01*
X015808Y003114D01*
X015731Y003037D01*
X015731Y002884D01*
X015808Y002807D01*
X015578Y002960D02*
X015424Y003114D01*
X015424Y002653D01*
X017311Y002730D02*
X017387Y002653D01*
X017541Y002653D01*
X017618Y002730D01*
X017618Y002807D01*
X017541Y002884D01*
X017387Y002884D01*
X017311Y002807D01*
X017311Y002730D01*
X017387Y002884D02*
X017311Y002960D01*
X017311Y003037D01*
X017387Y003114D01*
X017541Y003114D01*
X017618Y003037D01*
X017618Y002960D01*
X017541Y002884D01*
X017771Y002653D02*
X018078Y002653D01*
X018231Y002653D02*
X018385Y002807D01*
X018308Y002807D02*
X018538Y002807D01*
X018538Y002653D02*
X018538Y003114D01*
X018308Y003114D01*
X018231Y003037D01*
X018231Y002884D01*
X018308Y002807D01*
X018078Y002960D02*
X017924Y003114D01*
X017924Y002653D01*
X018725Y002730D02*
X018802Y002653D01*
X019032Y002653D01*
X019032Y003114D01*
X018802Y003114D01*
X018725Y003037D01*
X018725Y002960D01*
X018802Y002884D01*
X019032Y002884D01*
X019186Y003037D02*
X019493Y002730D01*
X019493Y002653D01*
X019646Y002653D02*
X019953Y002653D01*
X020106Y002653D02*
X020260Y002807D01*
X020183Y002807D02*
X020413Y002807D01*
X020413Y002653D02*
X020413Y003114D01*
X020183Y003114D01*
X020106Y003037D01*
X020106Y002884D01*
X020183Y002807D01*
X019953Y002960D02*
X019799Y003114D01*
X019799Y002653D01*
X019186Y003037D02*
X019186Y003114D01*
X019493Y003114D01*
X019527Y003153D02*
X019834Y003153D01*
X019681Y003153D02*
X019681Y003614D01*
X019834Y003460D01*
X019988Y003384D02*
X019988Y003537D01*
X020064Y003614D01*
X020295Y003614D01*
X020295Y003153D01*
X020295Y003307D02*
X020064Y003307D01*
X019988Y003384D01*
X020141Y003307D02*
X019988Y003153D01*
X019374Y003153D02*
X019374Y003230D01*
X019067Y003537D01*
X019067Y003614D01*
X019374Y003614D01*
X018802Y002884D02*
X018725Y002807D01*
X018725Y002730D01*
X022475Y002730D02*
X022552Y002653D01*
X022782Y002653D01*
X022782Y003114D01*
X022552Y003114D01*
X022475Y003037D01*
X022475Y002960D01*
X022552Y002884D01*
X022782Y002884D01*
X022936Y002807D02*
X023012Y002884D01*
X023243Y002884D01*
X023243Y002730D01*
X023166Y002653D01*
X023012Y002653D01*
X022936Y002730D01*
X022936Y002807D01*
X023089Y003037D02*
X023243Y002884D01*
X023089Y003037D02*
X022936Y003114D01*
X022922Y003278D02*
X022769Y003278D01*
X022692Y003355D01*
X022692Y003432D01*
X022769Y003509D01*
X022999Y003509D01*
X022999Y003355D01*
X022922Y003278D01*
X023152Y003278D02*
X023459Y003278D01*
X023306Y003278D02*
X023306Y003739D01*
X023459Y003585D01*
X023613Y003509D02*
X023613Y003662D01*
X023689Y003739D01*
X023920Y003739D01*
X023920Y003278D01*
X023920Y003432D02*
X023689Y003432D01*
X023613Y003509D01*
X023766Y003432D02*
X023613Y003278D01*
X023549Y003114D02*
X023549Y002653D01*
X023396Y002653D02*
X023703Y002653D01*
X023856Y002653D02*
X024010Y002807D01*
X023933Y002807D02*
X024163Y002807D01*
X024163Y002653D02*
X024163Y003114D01*
X023933Y003114D01*
X023856Y003037D01*
X023856Y002884D01*
X023933Y002807D01*
X023703Y002960D02*
X023549Y003114D01*
X022999Y003509D02*
X022845Y003662D01*
X022692Y003739D01*
X022132Y004278D02*
X022056Y004278D01*
X021979Y004355D01*
X021979Y004739D01*
X022056Y004739D02*
X021902Y004739D01*
X021749Y004739D02*
X021749Y004509D01*
X021595Y004585D01*
X021519Y004585D01*
X021442Y004509D01*
X021442Y004355D01*
X021519Y004278D01*
X021672Y004278D01*
X021749Y004355D01*
X022132Y004278D02*
X022209Y004355D01*
X021749Y004739D02*
X021442Y004739D01*
X022161Y005103D02*
X022468Y005103D01*
X022314Y005103D02*
X022314Y005564D01*
X022468Y005410D01*
X022621Y005487D02*
X022698Y005564D01*
X022928Y005564D01*
X022928Y005103D01*
X022698Y005103D01*
X022621Y005180D01*
X022621Y005487D01*
X023081Y005564D02*
X023081Y005257D01*
X023235Y005103D01*
X023388Y005257D01*
X023388Y005564D01*
X025146Y006528D02*
X025453Y006528D01*
X025146Y006835D01*
X025146Y006912D01*
X025223Y006989D01*
X025376Y006989D01*
X025453Y006912D01*
X025606Y006989D02*
X025760Y006989D01*
X025683Y006989D02*
X025683Y006605D01*
X025760Y006528D01*
X025837Y006528D01*
X025913Y006605D01*
X027021Y007528D02*
X027328Y007528D01*
X027174Y007528D02*
X027174Y007989D01*
X027328Y007835D01*
X027481Y007989D02*
X027635Y007989D01*
X027558Y007989D02*
X027558Y007605D01*
X027635Y007528D01*
X027712Y007528D01*
X027788Y007605D01*
X030128Y006648D02*
X030128Y006495D01*
X030205Y006418D01*
X030205Y006265D02*
X030512Y006265D01*
X030589Y006188D01*
X030589Y005958D01*
X030128Y005958D01*
X030128Y006188D01*
X030205Y006265D01*
X030359Y006418D02*
X030435Y006571D01*
X030435Y006648D01*
X030359Y006725D01*
X030205Y006725D01*
X030128Y006648D01*
X030589Y006725D02*
X030589Y006418D01*
X030359Y006418D01*
X030282Y005804D02*
X030589Y005804D01*
X030282Y005804D02*
X030128Y005651D01*
X030282Y005497D01*
X030589Y005497D01*
X037396Y006009D02*
X037703Y006009D01*
X037473Y006239D01*
X037473Y005778D01*
X037933Y005855D02*
X037933Y006239D01*
X038010Y006239D02*
X037856Y006239D01*
X037933Y005855D02*
X038010Y005778D01*
X038087Y005778D01*
X038163Y005855D01*
X035759Y009143D02*
X035605Y009297D01*
X035605Y009604D01*
X035452Y009604D02*
X035221Y009604D01*
X035145Y009527D01*
X035145Y009220D01*
X035221Y009143D01*
X035452Y009143D01*
X035452Y009604D01*
X035912Y009604D02*
X035912Y009297D01*
X035759Y009143D01*
X034991Y009220D02*
X034914Y009143D01*
X034761Y009143D01*
X034684Y009220D01*
X034684Y009297D01*
X034761Y009374D01*
X034838Y009374D01*
X034761Y009374D02*
X034684Y009450D01*
X034684Y009527D01*
X034761Y009604D01*
X034914Y009604D01*
X034991Y009527D01*
X030388Y010007D02*
X030235Y009853D01*
X030081Y010007D01*
X030081Y010314D01*
X029928Y010314D02*
X029698Y010314D01*
X029621Y010237D01*
X029621Y009930D01*
X029698Y009853D01*
X029928Y009853D01*
X029928Y010314D01*
X030388Y010314D02*
X030388Y010007D01*
X029468Y010084D02*
X029237Y010314D01*
X029237Y009853D01*
X029161Y010084D02*
X029468Y010084D01*
X023788Y007364D02*
X023558Y007364D01*
X023481Y007287D01*
X023481Y007134D01*
X023558Y007057D01*
X023788Y007057D01*
X023635Y007057D02*
X023481Y006903D01*
X023328Y006980D02*
X023251Y006903D01*
X023098Y006903D01*
X023021Y006980D01*
X023021Y007057D01*
X023098Y007134D01*
X023328Y007134D01*
X023328Y006980D01*
X023328Y007134D02*
X023174Y007287D01*
X023021Y007364D01*
X023788Y007364D02*
X023788Y006903D01*
X022552Y002884D02*
X022475Y002807D01*
X022475Y002730D01*
X025717Y001164D02*
X025717Y001087D01*
X026024Y000780D01*
X026024Y000703D01*
X026177Y000780D02*
X026254Y000703D01*
X026484Y000703D01*
X026484Y001164D01*
X026254Y001164D01*
X026177Y001087D01*
X026177Y000780D01*
X026638Y000857D02*
X026638Y001164D01*
X026945Y001164D02*
X026945Y000857D01*
X026791Y000703D01*
X026638Y000857D01*
X026024Y001164D02*
X025717Y001164D01*
X032403Y001207D02*
X032557Y001360D01*
X032864Y001360D01*
X032864Y001514D02*
X032403Y001514D01*
X032403Y001744D01*
X032480Y001821D01*
X032787Y001821D01*
X032864Y001744D01*
X032864Y001514D01*
X032557Y001053D02*
X032403Y001207D01*
X032557Y001053D02*
X032864Y001053D01*
X033453Y001204D02*
X033607Y001051D01*
X033607Y001127D02*
X033607Y000897D01*
X033453Y000897D02*
X033914Y000897D01*
X033914Y001127D01*
X033837Y001204D01*
X033684Y001204D01*
X033607Y001127D01*
X033760Y001358D02*
X033914Y001511D01*
X033453Y001511D01*
X033453Y001358D02*
X033453Y001665D01*
X033530Y001818D02*
X033453Y001895D01*
X033453Y002048D01*
X033530Y002125D01*
X033684Y002125D01*
X033760Y002048D01*
X033760Y001971D01*
X033684Y001818D01*
X033914Y001818D01*
X033914Y002125D01*
X032864Y002281D02*
X032787Y002128D01*
X032634Y001974D01*
X032634Y002204D01*
X032557Y002281D01*
X032480Y002281D01*
X032403Y002204D01*
X032403Y002051D01*
X032480Y001974D01*
X032634Y001974D01*
X010459Y000918D02*
X010382Y000841D01*
X010306Y000841D01*
X010229Y000918D01*
X010229Y001301D01*
X010306Y001301D02*
X010152Y001301D01*
X009999Y001071D02*
X009845Y001225D01*
X009692Y001301D01*
X009769Y001071D02*
X009999Y001071D01*
X009999Y000918D01*
X009922Y000841D01*
X009769Y000841D01*
X009692Y000918D01*
X009692Y000994D01*
X009769Y001071D01*
D16*
X022536Y006133D02*
X022930Y005897D01*
X022930Y006370D01*
X022536Y006133D01*
X028911Y006633D02*
X029305Y006870D01*
X029305Y006397D01*
X028911Y006633D01*
X029561Y009147D02*
X029561Y009620D01*
X029955Y009383D01*
X029561Y009147D01*
X036102Y009389D02*
X036575Y009389D01*
X036338Y009783D01*
X036102Y009389D01*
X032558Y003530D02*
X032795Y003137D01*
X032322Y003137D01*
X032558Y003530D01*
X026555Y001995D02*
X026555Y001522D01*
X026161Y001758D01*
X026555Y001995D01*
X008702Y009334D02*
X008308Y008932D01*
X007915Y009334D01*
X008702Y009334D01*
X006181Y009203D02*
X005985Y009203D01*
X005985Y007314D01*
X006181Y007314D01*
X006181Y009203D01*
X005985Y009203D02*
X004685Y009203D01*
X004685Y007314D01*
X005985Y007314D01*
D17*
X022063Y006133D03*
X023303Y006133D03*
X028438Y006633D03*
X029678Y006633D03*
X029188Y009383D03*
X030428Y009383D03*
X026928Y001758D03*
X025688Y001758D03*
D18*
X026088Y001758D03*
X022463Y006133D03*
X028838Y006633D03*
X030028Y009383D03*
D19*
X036338Y009016D03*
X036338Y010256D03*
X032558Y004003D03*
X032558Y002763D03*
D20*
X032558Y003603D03*
X036338Y009856D03*
D21*
X025100Y007134D03*
X024520Y007134D03*
G36*
X021596Y009833D02*
X021415Y010014D01*
X021802Y010401D01*
X021983Y010220D01*
X021596Y009833D01*
G37*
G36*
X021186Y010243D02*
X021005Y010424D01*
X021392Y010811D01*
X021573Y010630D01*
X021186Y010243D01*
G37*
X019350Y012134D03*
X018770Y012134D03*
X019270Y014134D03*
X019850Y014134D03*
X029145Y014134D03*
X029725Y014134D03*
X005600Y012259D03*
X005020Y012259D03*
X003221Y010008D03*
X002641Y010008D03*
X005020Y007009D03*
X005600Y007009D03*
X015270Y002009D03*
X015850Y002009D03*
X017770Y002134D03*
X018350Y002134D03*
X008971Y001320D03*
X008391Y001320D03*
D22*
X019309Y001466D03*
X020058Y001470D03*
X020058Y002050D03*
X019309Y002046D03*
X022809Y002046D03*
X023558Y002050D03*
X023558Y001470D03*
X022809Y001466D03*
X033684Y003091D03*
X033684Y003671D03*
X016683Y008095D03*
X015558Y008220D03*
X016683Y008675D03*
X015558Y008800D03*
X003434Y008796D03*
X003434Y008216D03*
D23*
X015686Y009508D03*
X016686Y009508D03*
X025311Y006008D03*
X026311Y006008D03*
X026561Y007008D03*
X027561Y007008D03*
X022556Y005259D03*
X021556Y005259D03*
X038936Y006258D03*
X039936Y006258D03*
D24*
X006437Y007508D03*
X006437Y008008D03*
X006437Y008508D03*
X006437Y009008D03*
X004429Y009008D03*
X004429Y008508D03*
X004429Y008008D03*
X004429Y007508D03*
D25*
X007308Y007213D03*
X007308Y007804D03*
X003808Y011213D03*
X003808Y011804D03*
D26*
X005020Y011149D02*
X005020Y010779D01*
X005143Y010779D02*
X004896Y010779D01*
X005264Y010779D02*
X005511Y010779D01*
X005388Y010779D02*
X005388Y011149D01*
X005511Y011026D01*
X005633Y011088D02*
X005694Y011149D01*
X005818Y011149D01*
X005880Y011088D01*
X005880Y010841D01*
X005818Y010779D01*
X005694Y010779D01*
X005633Y010841D01*
X005143Y011026D02*
X005020Y011149D01*
X007083Y006399D02*
X007206Y006399D01*
X007268Y006338D01*
X007083Y006399D02*
X007021Y006338D01*
X007021Y006276D01*
X007268Y006029D01*
X007021Y006029D01*
X007389Y006029D02*
X007636Y006029D01*
X007513Y006029D02*
X007513Y006399D01*
X007636Y006276D01*
X007758Y006338D02*
X007819Y006399D01*
X007943Y006399D01*
X008005Y006338D01*
X008005Y006091D01*
X007943Y006029D01*
X007819Y006029D01*
X007758Y006091D01*
X017829Y011180D02*
X017890Y011118D01*
X018014Y011118D01*
X018075Y011180D01*
X018075Y011303D02*
X017952Y011365D01*
X017890Y011365D01*
X017829Y011303D01*
X017829Y011180D01*
X018075Y011303D02*
X018075Y011488D01*
X017829Y011488D01*
X018320Y011488D02*
X018444Y011365D01*
X018565Y011426D02*
X018627Y011488D01*
X018750Y011488D01*
X018812Y011426D01*
X018812Y011180D01*
X018750Y011118D01*
X018627Y011118D01*
X018565Y011180D01*
X018444Y011118D02*
X018197Y011118D01*
X018320Y011118D02*
X018320Y011488D01*
D27*
X008308Y010253D03*
X008308Y008263D03*
D28*
X008308Y008835D03*
D29*
X018263Y010508D03*
X018854Y010508D03*
D30*
X024843Y012508D03*
X025523Y012508D03*
D31*
X022154Y008678D02*
X022047Y008678D01*
X021941Y008571D01*
X021941Y008465D01*
X022101Y008306D01*
X021994Y008200D02*
X022313Y008518D01*
X022154Y008678D01*
X021994Y008412D02*
X021782Y008412D01*
D32*
X005182Y006156D03*
X005185Y005111D03*
M02*
