G75*
G70*
%OFA0B0*%
%FSLAX24Y24*%
%IPPOS*%
%LPD*%
%AMOC8*
5,1,8,0,0,1.08239X$1,22.5*
%
%ADD10C,0.0715*%
%ADD11C,0.0906*%
%ADD12C,0.0827*%
%ADD13C,0.0635*%
%ADD14OC8,0.0906*%
%ADD15C,0.3150*%
%ADD16C,0.0787*%
%ADD17C,0.1000*%
%ADD18OC8,0.1000*%
%ADD19C,0.0755*%
%ADD20C,0.0181*%
%ADD21C,0.0748*%
%ADD22R,0.0787X0.0787*%
%ADD23C,0.0709*%
%ADD24C,0.0118*%
%ADD25R,0.0787X0.0787*%
%ADD26OC8,0.0635*%
%ADD27C,0.0160*%
D10*
X001076Y010508D02*
X001791Y010508D01*
X001791Y011508D02*
X001076Y011508D01*
X003683Y013026D02*
X003683Y013741D01*
X004683Y013741D02*
X004683Y013026D01*
X005683Y013026D02*
X005683Y013741D01*
X006683Y013741D02*
X006683Y013026D01*
X007683Y013026D02*
X007683Y013741D01*
X008683Y013741D02*
X008683Y013026D01*
X009683Y013026D02*
X009683Y013741D01*
X010683Y013741D02*
X010683Y013026D01*
X011683Y013026D02*
X011683Y013741D01*
X012683Y013741D02*
X012683Y013026D01*
X013683Y013026D02*
X013683Y013741D01*
X014683Y013741D02*
X014683Y013026D01*
X015683Y013026D02*
X015683Y013741D01*
X016683Y013741D02*
X016683Y013026D01*
X017683Y013026D02*
X017683Y013741D01*
X018683Y013741D02*
X018683Y013026D01*
X032296Y012243D02*
X033011Y012243D01*
X034856Y012243D02*
X035571Y012243D01*
X037296Y012243D02*
X038011Y012243D01*
X039856Y012243D02*
X040571Y012243D01*
X040571Y014023D02*
X039856Y014023D01*
X038011Y014023D02*
X037296Y014023D01*
X035571Y014023D02*
X034856Y014023D01*
X033011Y014023D02*
X032296Y014023D01*
X032296Y010273D02*
X033011Y010273D01*
X034856Y010273D02*
X035571Y010273D01*
X037296Y010273D02*
X038011Y010273D01*
X039856Y010273D02*
X040571Y010273D01*
X040571Y008493D02*
X039856Y008493D01*
X038011Y008493D02*
X037296Y008493D01*
X035571Y008493D02*
X034856Y008493D01*
X033011Y008493D02*
X032296Y008493D01*
D11*
X033933Y008383D03*
X031183Y006508D03*
X027683Y009133D03*
X027660Y009668D03*
X027558Y010758D03*
X031183Y011508D03*
X033933Y012133D03*
X033933Y010383D03*
X038933Y010383D03*
X038933Y012133D03*
X038933Y014133D03*
X036433Y014633D03*
X033933Y014133D03*
X022933Y013258D03*
X020308Y013508D03*
X020933Y010758D03*
X021963Y009866D03*
X020308Y009133D03*
X014308Y007008D03*
X008683Y006293D03*
X012808Y004883D03*
X012183Y002633D03*
X008683Y000593D03*
X005808Y002133D03*
X009558Y009258D03*
X013558Y009258D03*
X001683Y009508D03*
X038933Y008383D03*
D12*
X029683Y005922D02*
X029683Y005095D01*
X028683Y005095D02*
X028683Y005922D01*
X027683Y005922D02*
X027683Y005095D01*
X027308Y004172D02*
X027308Y003345D01*
X028308Y003345D02*
X028308Y004172D01*
X029308Y004172D02*
X029308Y003345D01*
X016808Y006595D02*
X016808Y007422D01*
X015808Y007422D02*
X015808Y006595D01*
X014808Y006595D02*
X014808Y007422D01*
D13*
X019241Y007258D02*
X019876Y007258D01*
X019876Y008258D02*
X019241Y008258D01*
X019241Y009258D02*
X019876Y009258D01*
X019876Y010258D02*
X019241Y010258D01*
X019241Y011258D02*
X019876Y011258D01*
X019876Y006258D02*
X019241Y006258D01*
X035298Y011383D02*
X035933Y011383D01*
X036933Y011383D02*
X037568Y011383D01*
X002126Y008008D02*
X001491Y008008D01*
X001491Y007008D02*
X002126Y007008D01*
X002126Y006008D02*
X001491Y006008D01*
X001491Y005008D02*
X002126Y005008D01*
X002126Y004008D02*
X001491Y004008D01*
X001491Y003008D02*
X002126Y003008D01*
D14*
X013058Y001883D03*
X014308Y001883D03*
X016808Y002133D03*
X016808Y001133D03*
X014308Y000883D03*
X013058Y000883D03*
X020933Y002133D03*
X021933Y002133D03*
X024558Y001883D03*
X025433Y002633D03*
X027683Y001883D03*
X028933Y001883D03*
X028933Y000883D03*
X027683Y000883D03*
X024558Y000883D03*
X031308Y003133D03*
X031308Y004133D03*
X032433Y007258D03*
X033433Y007258D03*
X030058Y007633D03*
X029058Y007883D03*
X030058Y011633D03*
X029058Y011883D03*
X026683Y012508D03*
X023683Y012508D03*
X010558Y011883D03*
X006558Y011883D03*
X039433Y007258D03*
X040433Y007258D03*
D15*
X036433Y004133D03*
D16*
X032850Y004133D02*
X032854Y004309D01*
X032867Y004484D01*
X032889Y004659D01*
X032919Y004832D01*
X032957Y005004D01*
X033004Y005173D01*
X033059Y005340D01*
X033123Y005504D01*
X033194Y005665D01*
X033273Y005822D01*
X033360Y005975D01*
X033454Y006124D01*
X033555Y006267D01*
X033663Y006406D01*
X033778Y006539D01*
X033899Y006667D01*
X034027Y006788D01*
X034160Y006903D01*
X034299Y007011D01*
X034442Y007112D01*
X034591Y007206D01*
X034744Y007293D01*
X034901Y007372D01*
X035062Y007443D01*
X035226Y007507D01*
X035393Y007562D01*
X035562Y007609D01*
X035734Y007647D01*
X035907Y007677D01*
X036082Y007699D01*
X036257Y007712D01*
X036433Y007716D01*
X036609Y007712D01*
X036784Y007699D01*
X036959Y007677D01*
X037132Y007647D01*
X037304Y007609D01*
X037473Y007562D01*
X037640Y007507D01*
X037804Y007443D01*
X037965Y007372D01*
X038122Y007293D01*
X038275Y007206D01*
X038424Y007112D01*
X038567Y007011D01*
X038706Y006903D01*
X038839Y006788D01*
X038967Y006667D01*
X039088Y006539D01*
X039203Y006406D01*
X039311Y006267D01*
X039412Y006124D01*
X039506Y005975D01*
X039593Y005822D01*
X039672Y005665D01*
X039743Y005504D01*
X039807Y005340D01*
X039862Y005173D01*
X039909Y005004D01*
X039947Y004832D01*
X039977Y004659D01*
X039999Y004484D01*
X040012Y004309D01*
X040016Y004133D01*
X040012Y003957D01*
X039999Y003782D01*
X039977Y003607D01*
X039947Y003434D01*
X039909Y003262D01*
X039862Y003093D01*
X039807Y002926D01*
X039743Y002762D01*
X039672Y002601D01*
X039593Y002444D01*
X039506Y002291D01*
X039412Y002142D01*
X039311Y001999D01*
X039203Y001860D01*
X039088Y001727D01*
X038967Y001599D01*
X038839Y001478D01*
X038706Y001363D01*
X038567Y001255D01*
X038424Y001154D01*
X038275Y001060D01*
X038122Y000973D01*
X037965Y000894D01*
X037804Y000823D01*
X037640Y000759D01*
X037473Y000704D01*
X037304Y000657D01*
X037132Y000619D01*
X036959Y000589D01*
X036784Y000567D01*
X036609Y000554D01*
X036433Y000550D01*
X036257Y000554D01*
X036082Y000567D01*
X035907Y000589D01*
X035734Y000619D01*
X035562Y000657D01*
X035393Y000704D01*
X035226Y000759D01*
X035062Y000823D01*
X034901Y000894D01*
X034744Y000973D01*
X034591Y001060D01*
X034442Y001154D01*
X034299Y001255D01*
X034160Y001363D01*
X034027Y001478D01*
X033899Y001599D01*
X033778Y001727D01*
X033663Y001860D01*
X033555Y001999D01*
X033454Y002142D01*
X033360Y002291D01*
X033273Y002444D01*
X033194Y002601D01*
X033123Y002762D01*
X033059Y002926D01*
X033004Y003093D01*
X032957Y003262D01*
X032919Y003434D01*
X032889Y003607D01*
X032867Y003782D01*
X032854Y003957D01*
X032850Y004133D01*
D17*
X036433Y007883D03*
D18*
X024183Y006133D03*
X021183Y006133D03*
D19*
X014686Y008358D02*
X013931Y008358D01*
X013931Y009258D02*
X014686Y009258D01*
X014686Y010158D02*
X013931Y010158D01*
D20*
X016941Y010052D02*
X017032Y009961D01*
X016761Y009834D01*
X016480Y009937D01*
X016353Y010208D01*
X016456Y010489D01*
X016727Y010616D01*
X017008Y010513D01*
X017135Y010242D01*
X017032Y009961D01*
X016924Y010061D01*
X016754Y009981D01*
X016580Y010045D01*
X016500Y010215D01*
X016564Y010389D01*
X016734Y010469D01*
X016908Y010405D01*
X016988Y010235D01*
X016924Y010061D01*
X016815Y010160D01*
X016747Y010128D01*
X016679Y010154D01*
X016647Y010222D01*
X016673Y010290D01*
X016741Y010322D01*
X016809Y010296D01*
X016841Y010228D01*
X016815Y010160D01*
X018820Y009368D02*
X018911Y009277D01*
X018640Y009150D01*
X018359Y009253D01*
X018232Y009524D01*
X018335Y009805D01*
X018606Y009932D01*
X018887Y009829D01*
X019014Y009558D01*
X018911Y009277D01*
X018803Y009377D01*
X018633Y009297D01*
X018459Y009361D01*
X018379Y009531D01*
X018443Y009705D01*
X018613Y009785D01*
X018787Y009721D01*
X018867Y009551D01*
X018803Y009377D01*
X018694Y009476D01*
X018626Y009444D01*
X018558Y009470D01*
X018526Y009538D01*
X018552Y009606D01*
X018620Y009638D01*
X018688Y009612D01*
X018720Y009544D01*
X018694Y009476D01*
D21*
X006543Y009759D02*
X006543Y010507D01*
X004574Y010507D02*
X004574Y009759D01*
D22*
X003058Y011008D03*
X003058Y012008D03*
D23*
X003680Y013391D03*
X004680Y013391D03*
X005680Y013391D03*
X006680Y013391D03*
X007680Y013391D03*
X008680Y013391D03*
X009680Y013391D03*
X010680Y013391D03*
X011680Y013391D03*
X012680Y013391D03*
X013680Y013391D03*
X014680Y013391D03*
X015680Y013391D03*
X016680Y013391D03*
X017680Y013391D03*
X018680Y013391D03*
D24*
X030845Y013391D02*
X030847Y013418D01*
X030853Y013445D01*
X030862Y013471D01*
X030875Y013495D01*
X030891Y013518D01*
X030910Y013537D01*
X030932Y013554D01*
X030956Y013568D01*
X030981Y013578D01*
X031008Y013585D01*
X031035Y013588D01*
X031063Y013587D01*
X031090Y013582D01*
X031116Y013574D01*
X031140Y013562D01*
X031163Y013546D01*
X031184Y013528D01*
X031201Y013507D01*
X031216Y013483D01*
X031227Y013458D01*
X031235Y013432D01*
X031239Y013405D01*
X031239Y013377D01*
X031235Y013350D01*
X031227Y013324D01*
X031216Y013299D01*
X031201Y013275D01*
X031184Y013254D01*
X031163Y013236D01*
X031141Y013220D01*
X031116Y013208D01*
X031090Y013200D01*
X031063Y013195D01*
X031035Y013194D01*
X031008Y013197D01*
X030981Y013204D01*
X030956Y013214D01*
X030932Y013228D01*
X030910Y013245D01*
X030891Y013264D01*
X030875Y013287D01*
X030862Y013311D01*
X030853Y013337D01*
X030847Y013364D01*
X030845Y013391D01*
X001318Y013391D02*
X001320Y013418D01*
X001326Y013445D01*
X001335Y013471D01*
X001348Y013495D01*
X001364Y013518D01*
X001383Y013537D01*
X001405Y013554D01*
X001429Y013568D01*
X001454Y013578D01*
X001481Y013585D01*
X001508Y013588D01*
X001536Y013587D01*
X001563Y013582D01*
X001589Y013574D01*
X001613Y013562D01*
X001636Y013546D01*
X001657Y013528D01*
X001674Y013507D01*
X001689Y013483D01*
X001700Y013458D01*
X001708Y013432D01*
X001712Y013405D01*
X001712Y013377D01*
X001708Y013350D01*
X001700Y013324D01*
X001689Y013299D01*
X001674Y013275D01*
X001657Y013254D01*
X001636Y013236D01*
X001614Y013220D01*
X001589Y013208D01*
X001563Y013200D01*
X001536Y013195D01*
X001508Y013194D01*
X001481Y013197D01*
X001454Y013204D01*
X001429Y013214D01*
X001405Y013228D01*
X001383Y013245D01*
X001364Y013264D01*
X001348Y013287D01*
X001335Y013311D01*
X001326Y013337D01*
X001320Y013364D01*
X001318Y013391D01*
X001318Y001186D02*
X001320Y001213D01*
X001326Y001240D01*
X001335Y001266D01*
X001348Y001290D01*
X001364Y001313D01*
X001383Y001332D01*
X001405Y001349D01*
X001429Y001363D01*
X001454Y001373D01*
X001481Y001380D01*
X001508Y001383D01*
X001536Y001382D01*
X001563Y001377D01*
X001589Y001369D01*
X001613Y001357D01*
X001636Y001341D01*
X001657Y001323D01*
X001674Y001302D01*
X001689Y001278D01*
X001700Y001253D01*
X001708Y001227D01*
X001712Y001200D01*
X001712Y001172D01*
X001708Y001145D01*
X001700Y001119D01*
X001689Y001094D01*
X001674Y001070D01*
X001657Y001049D01*
X001636Y001031D01*
X001614Y001015D01*
X001589Y001003D01*
X001563Y000995D01*
X001536Y000990D01*
X001508Y000989D01*
X001481Y000992D01*
X001454Y000999D01*
X001429Y001009D01*
X001405Y001023D01*
X001383Y001040D01*
X001364Y001059D01*
X001348Y001082D01*
X001335Y001106D01*
X001326Y001132D01*
X001320Y001159D01*
X001318Y001186D01*
X030845Y001186D02*
X030847Y001213D01*
X030853Y001240D01*
X030862Y001266D01*
X030875Y001290D01*
X030891Y001313D01*
X030910Y001332D01*
X030932Y001349D01*
X030956Y001363D01*
X030981Y001373D01*
X031008Y001380D01*
X031035Y001383D01*
X031063Y001382D01*
X031090Y001377D01*
X031116Y001369D01*
X031140Y001357D01*
X031163Y001341D01*
X031184Y001323D01*
X031201Y001302D01*
X031216Y001278D01*
X031227Y001253D01*
X031235Y001227D01*
X031239Y001200D01*
X031239Y001172D01*
X031235Y001145D01*
X031227Y001119D01*
X031216Y001094D01*
X031201Y001070D01*
X031184Y001049D01*
X031163Y001031D01*
X031141Y001015D01*
X031116Y001003D01*
X031090Y000995D01*
X031063Y000990D01*
X031035Y000989D01*
X031008Y000992D01*
X030981Y000999D01*
X030956Y001009D01*
X030932Y001023D01*
X030910Y001040D01*
X030891Y001059D01*
X030875Y001082D01*
X030862Y001106D01*
X030853Y001132D01*
X030847Y001159D01*
X030845Y001186D01*
D25*
G36*
X017528Y008417D02*
X018265Y008148D01*
X017996Y007411D01*
X017259Y007680D01*
X017528Y008417D01*
G37*
G36*
X017870Y009356D02*
X018607Y009087D01*
X018338Y008350D01*
X017601Y008619D01*
X017870Y009356D01*
G37*
D26*
X013433Y007508D03*
X008433Y007508D03*
D27*
X001058Y000258D02*
X000558Y000258D01*
X000558Y000758D01*
X005808Y002133D02*
X009433Y005508D01*
X020308Y005508D01*
X021933Y012633D01*
X022933Y013258D01*
X020308Y013508D02*
X020558Y011383D01*
X020183Y010758D01*
X020558Y010133D01*
X020308Y009133D01*
X027683Y009133D01*
X027558Y010758D02*
X020933Y010758D01*
X013558Y009258D02*
X009558Y009258D01*
X006808Y007008D02*
X001683Y009508D01*
X006808Y007008D02*
X014308Y007008D01*
X012808Y004883D02*
X012183Y004383D01*
X012183Y002633D01*
X031183Y006508D02*
X031183Y011508D01*
X040308Y015258D02*
X040808Y015258D01*
X040808Y014758D01*
X040808Y000758D02*
X040808Y000258D01*
X040308Y000258D01*
X001058Y015258D02*
X000558Y015258D01*
X000558Y014758D01*
M02*
