G75*
G70*
%OFA0B0*%
%FSLAX24Y24*%
%IPPOS*%
%LPD*%
%AMOC8*
5,1,8,0,0,1.08239X$1,22.5*
%
%ADD10C,0.0000*%
D10*
X000180Y000253D02*
X040422Y000253D01*
X040422Y015253D01*
X000180Y015253D01*
X000180Y000253D01*
X009655Y009258D02*
X009657Y009308D01*
X009663Y009358D01*
X009673Y009408D01*
X009686Y009456D01*
X009703Y009504D01*
X009724Y009550D01*
X009748Y009594D01*
X009776Y009636D01*
X009807Y009676D01*
X009841Y009713D01*
X009878Y009748D01*
X009917Y009779D01*
X009958Y009808D01*
X010002Y009833D01*
X010048Y009855D01*
X010095Y009873D01*
X010143Y009887D01*
X010192Y009898D01*
X010242Y009905D01*
X010292Y009908D01*
X010343Y009907D01*
X010393Y009902D01*
X010443Y009893D01*
X010491Y009881D01*
X010539Y009864D01*
X010585Y009844D01*
X010630Y009821D01*
X010673Y009794D01*
X010713Y009764D01*
X010751Y009731D01*
X010786Y009695D01*
X010819Y009656D01*
X010848Y009615D01*
X010874Y009572D01*
X010897Y009527D01*
X010916Y009480D01*
X010931Y009432D01*
X010943Y009383D01*
X010951Y009333D01*
X010955Y009283D01*
X010955Y009233D01*
X010951Y009183D01*
X010943Y009133D01*
X010931Y009084D01*
X010916Y009036D01*
X010897Y008989D01*
X010874Y008944D01*
X010848Y008901D01*
X010819Y008860D01*
X010786Y008821D01*
X010751Y008785D01*
X010713Y008752D01*
X010673Y008722D01*
X010630Y008695D01*
X010585Y008672D01*
X010539Y008652D01*
X010491Y008635D01*
X010443Y008623D01*
X010393Y008614D01*
X010343Y008609D01*
X010292Y008608D01*
X010242Y008611D01*
X010192Y008618D01*
X010143Y008629D01*
X010095Y008643D01*
X010048Y008661D01*
X010002Y008683D01*
X009958Y008708D01*
X009917Y008737D01*
X009878Y008768D01*
X009841Y008803D01*
X009807Y008840D01*
X009776Y008880D01*
X009748Y008922D01*
X009724Y008966D01*
X009703Y009012D01*
X009686Y009060D01*
X009673Y009108D01*
X009663Y009158D01*
X009657Y009208D01*
X009655Y009258D01*
M02*
