G75*
G70*
%OFA0B0*%
%FSLAX24Y24*%
%IPPOS*%
%LPD*%
%AMOC8*
5,1,8,0,0,1.08239X$1,22.5*
%
%ADD10C,0.0060*%
%ADD11R,0.0200X0.0200*%
%ADD12C,0.0050*%
%ADD13C,0.0080*%
%ADD14C,0.0010*%
%ADD15R,0.0200X0.0100*%
%ADD16C,0.0240*%
%ADD17R,0.0340X0.0240*%
%ADD18R,0.0240X0.0340*%
%ADD19C,0.0020*%
%ADD20C,0.0100*%
%ADD21C,0.0040*%
%ADD22C,0.0200*%
%ADD23R,0.0150X0.0200*%
%ADD24C,0.0340*%
%ADD25R,0.0700X0.0500*%
%ADD26R,0.0850X0.0300*%
%ADD27R,0.0700X0.0300*%
%ADD28R,0.1000X0.0200*%
%ADD29C,0.0374*%
%ADD30R,0.0200X0.1000*%
%ADD31C,0.0000*%
D10*
X000930Y002508D02*
X000930Y003408D01*
X001030Y003508D01*
X000930Y003608D01*
X000930Y004408D01*
X001030Y004508D01*
X000930Y004608D01*
X000930Y005408D01*
X001030Y005508D01*
X000930Y005608D01*
X000930Y006408D01*
X001030Y006508D01*
X000930Y006608D01*
X000930Y007408D01*
X001030Y007508D01*
X000930Y007608D01*
X000930Y008508D01*
X001930Y008508D01*
X001930Y007608D01*
X001830Y007508D01*
X001930Y007408D01*
X001930Y006608D01*
X001830Y006508D01*
X001930Y006408D01*
X001930Y005608D01*
X001830Y005508D01*
X001930Y005408D01*
X001930Y004608D01*
X001830Y004508D01*
X001930Y004408D01*
X001930Y003608D01*
X001830Y003508D01*
X001930Y003408D01*
X001930Y002508D01*
X000930Y002508D01*
X001230Y002808D02*
X001630Y002808D01*
X001630Y002908D01*
X001730Y002908D01*
X001730Y003108D01*
X001630Y003108D01*
X001630Y003208D01*
X001230Y003208D01*
X001230Y003108D01*
X001130Y003108D01*
X001130Y002908D01*
X001230Y002908D01*
X001230Y002808D01*
X001230Y003808D02*
X001630Y003808D01*
X001630Y003908D01*
X001730Y003908D01*
X001730Y004108D01*
X001630Y004108D01*
X001630Y004208D01*
X001230Y004208D01*
X001230Y004108D01*
X001130Y004108D01*
X001130Y003908D01*
X001230Y003908D01*
X001230Y003808D01*
X001230Y004808D02*
X001630Y004808D01*
X001630Y004908D01*
X001730Y004908D01*
X001730Y005108D01*
X001630Y005108D01*
X001630Y005208D01*
X001230Y005208D01*
X001230Y005108D01*
X001130Y005108D01*
X001130Y004908D01*
X001230Y004908D01*
X001230Y004808D01*
X001230Y005808D02*
X001630Y005808D01*
X001630Y005908D01*
X001730Y005908D01*
X001730Y006108D01*
X001630Y006108D01*
X001630Y006208D01*
X001230Y006208D01*
X001230Y006108D01*
X001130Y006108D01*
X001130Y005908D01*
X001230Y005908D01*
X001230Y005808D01*
X001230Y006808D02*
X001630Y006808D01*
X001630Y006908D01*
X001730Y006908D01*
X001730Y007108D01*
X001630Y007108D01*
X001630Y007208D01*
X001230Y007208D01*
X001230Y007108D01*
X001130Y007108D01*
X001130Y006908D01*
X001230Y006908D01*
X001230Y006808D01*
X001230Y007808D02*
X001630Y007808D01*
X001630Y007908D01*
X001730Y007908D01*
X001730Y008108D01*
X001630Y008108D01*
X001630Y008208D01*
X001230Y008208D01*
X001230Y008108D01*
X001130Y008108D01*
X001130Y007908D01*
X001230Y007908D01*
X001230Y007808D01*
X001305Y010008D02*
X000805Y010008D01*
X000555Y010258D01*
X000555Y010758D01*
X000805Y011008D01*
X000555Y011258D01*
X000555Y011758D01*
X000805Y012008D01*
X001305Y012008D01*
X001555Y011758D01*
X001555Y011258D01*
X001305Y011008D01*
X001555Y010758D01*
X001555Y010258D01*
X001305Y010008D01*
X002180Y010708D02*
X002180Y010858D01*
X002030Y010858D01*
X002180Y010858D02*
X002180Y011008D01*
X002180Y010858D02*
X002330Y010858D01*
X002680Y010858D02*
X002680Y011208D01*
X002180Y011208D01*
X002180Y011408D01*
X003180Y011408D01*
X003180Y011208D01*
X002680Y011208D01*
X001580Y011508D02*
X001582Y011574D01*
X001588Y011639D01*
X001598Y011704D01*
X001611Y011769D01*
X001629Y011832D01*
X001650Y011895D01*
X001675Y011955D01*
X001704Y012015D01*
X001736Y012072D01*
X001771Y012128D01*
X001810Y012181D01*
X001852Y012232D01*
X001896Y012280D01*
X001944Y012325D01*
X001994Y012368D01*
X002047Y012407D01*
X002102Y012444D01*
X002159Y012477D01*
X002218Y012506D01*
X002278Y012532D01*
X002340Y012554D01*
X002403Y012573D01*
X002467Y012587D01*
X002532Y012598D01*
X002598Y012605D01*
X002664Y012608D01*
X002729Y012607D01*
X002795Y012602D01*
X002860Y012593D01*
X002925Y012580D01*
X002988Y012564D01*
X003051Y012544D01*
X003112Y012519D01*
X003172Y012492D01*
X003230Y012461D01*
X003286Y012426D01*
X003340Y012388D01*
X003391Y012347D01*
X003440Y012303D01*
X003486Y012256D01*
X003530Y012207D01*
X003570Y012155D01*
X003607Y012100D01*
X003641Y012044D01*
X003671Y011985D01*
X003698Y011925D01*
X003721Y011864D01*
X003740Y011801D01*
X003756Y011737D01*
X003768Y011672D01*
X003776Y011607D01*
X003780Y011541D01*
X003780Y011475D01*
X003776Y011409D01*
X003768Y011344D01*
X003756Y011279D01*
X003740Y011215D01*
X003721Y011152D01*
X003698Y011091D01*
X003671Y011031D01*
X003641Y010972D01*
X003607Y010916D01*
X003570Y010861D01*
X003530Y010809D01*
X003486Y010760D01*
X003440Y010713D01*
X003391Y010669D01*
X003340Y010628D01*
X003286Y010590D01*
X003230Y010555D01*
X003172Y010524D01*
X003112Y010497D01*
X003051Y010472D01*
X002988Y010452D01*
X002925Y010436D01*
X002860Y010423D01*
X002795Y010414D01*
X002729Y010409D01*
X002664Y010408D01*
X002598Y010411D01*
X002532Y010418D01*
X002467Y010429D01*
X002403Y010443D01*
X002340Y010462D01*
X002278Y010484D01*
X002218Y010510D01*
X002159Y010539D01*
X002102Y010572D01*
X002047Y010609D01*
X001994Y010648D01*
X001944Y010691D01*
X001896Y010736D01*
X001852Y010784D01*
X001810Y010835D01*
X001771Y010888D01*
X001736Y010944D01*
X001704Y011001D01*
X001675Y011061D01*
X001650Y011121D01*
X001629Y011184D01*
X001611Y011247D01*
X001598Y011312D01*
X001588Y011377D01*
X001582Y011442D01*
X001580Y011508D01*
X001305Y011008D02*
X000805Y011008D01*
X002680Y011758D02*
X002680Y012158D01*
X003055Y012883D02*
X003555Y012883D01*
X003805Y013133D01*
X004055Y012883D01*
X004555Y012883D01*
X004805Y013133D01*
X004805Y013633D01*
X004555Y013883D01*
X004055Y013883D01*
X003805Y013633D01*
X003805Y013133D01*
X003055Y012883D02*
X002805Y013133D01*
X002805Y013633D01*
X003055Y013883D01*
X003555Y013883D01*
X003805Y013633D01*
X004805Y013633D02*
X005055Y013883D01*
X005555Y013883D01*
X005805Y013633D01*
X006055Y013883D01*
X006555Y013883D01*
X006805Y013633D01*
X007055Y013883D01*
X007555Y013883D01*
X007805Y013633D01*
X007805Y013133D01*
X007555Y012883D01*
X007055Y012883D01*
X006805Y013133D01*
X006555Y012883D01*
X006055Y012883D01*
X005805Y013133D01*
X005555Y012883D01*
X005055Y012883D01*
X004805Y013133D01*
X005805Y013133D02*
X005805Y013633D01*
X006805Y013633D02*
X006805Y013133D01*
X007805Y013133D02*
X008055Y012883D01*
X008555Y012883D01*
X008805Y013133D01*
X009055Y012883D01*
X009555Y012883D01*
X009805Y013133D01*
X010055Y012883D01*
X010555Y012883D01*
X010805Y013133D01*
X010805Y013633D01*
X010555Y013883D01*
X010055Y013883D01*
X009805Y013633D01*
X009805Y013133D01*
X010805Y013133D02*
X011055Y012883D01*
X011555Y012883D01*
X011805Y013133D01*
X012055Y012883D01*
X012555Y012883D01*
X012805Y013133D01*
X013055Y012883D01*
X013555Y012883D01*
X013805Y013133D01*
X013805Y013633D01*
X013555Y013883D01*
X013055Y013883D01*
X012805Y013633D01*
X012805Y013133D01*
X013805Y013133D02*
X014055Y012883D01*
X014555Y012883D01*
X014805Y013133D01*
X015055Y012883D01*
X015555Y012883D01*
X015805Y013133D01*
X016055Y012883D01*
X016555Y012883D01*
X016805Y013133D01*
X016805Y013633D01*
X016555Y013883D01*
X016055Y013883D01*
X015805Y013633D01*
X015805Y013133D01*
X014805Y013133D02*
X014805Y013633D01*
X015055Y013883D01*
X015555Y013883D01*
X015805Y013633D01*
X014805Y013633D02*
X014555Y013883D01*
X014055Y013883D01*
X013805Y013633D01*
X012805Y013633D02*
X012555Y013883D01*
X012055Y013883D01*
X011805Y013633D01*
X011805Y013133D01*
X011805Y013633D02*
X011555Y013883D01*
X011055Y013883D01*
X010805Y013633D01*
X009805Y013633D02*
X009555Y013883D01*
X009055Y013883D01*
X008805Y013633D01*
X008805Y013133D01*
X008805Y013633D02*
X008555Y013883D01*
X008055Y013883D01*
X007805Y013633D01*
X007680Y012208D02*
X007530Y012208D01*
X007513Y012206D01*
X007496Y012202D01*
X007480Y012195D01*
X007466Y012185D01*
X007453Y012172D01*
X007443Y012158D01*
X007436Y012142D01*
X007432Y012125D01*
X007430Y012108D01*
X007430Y011408D01*
X007432Y011391D01*
X007436Y011374D01*
X007443Y011358D01*
X007453Y011344D01*
X007466Y011331D01*
X007480Y011321D01*
X007496Y011314D01*
X007513Y011310D01*
X007530Y011308D01*
X007680Y011308D01*
X007730Y011358D01*
X009630Y011358D01*
X009680Y011308D01*
X009830Y011308D01*
X009847Y011310D01*
X009864Y011314D01*
X009880Y011321D01*
X009894Y011331D01*
X009907Y011344D01*
X009917Y011358D01*
X009924Y011374D01*
X009928Y011391D01*
X009930Y011408D01*
X009930Y012108D01*
X009928Y012125D01*
X009924Y012142D01*
X009917Y012158D01*
X009907Y012172D01*
X009894Y012185D01*
X009880Y012195D01*
X009864Y012202D01*
X009847Y012206D01*
X009830Y012208D01*
X009680Y012208D01*
X009630Y012158D01*
X007730Y012158D01*
X007680Y012208D01*
X008705Y010808D02*
X012805Y010808D01*
X012805Y007708D01*
X008705Y007708D01*
X008705Y010808D01*
X010594Y009841D02*
X010775Y010026D01*
X011061Y009746D02*
X010880Y009561D01*
X009655Y009258D02*
X009657Y009308D01*
X009663Y009358D01*
X009673Y009408D01*
X009686Y009456D01*
X009703Y009504D01*
X009724Y009550D01*
X009748Y009594D01*
X009776Y009636D01*
X009807Y009676D01*
X009841Y009713D01*
X009878Y009748D01*
X009917Y009779D01*
X009958Y009808D01*
X010002Y009833D01*
X010048Y009855D01*
X010095Y009873D01*
X010143Y009887D01*
X010192Y009898D01*
X010242Y009905D01*
X010292Y009908D01*
X010343Y009907D01*
X010393Y009902D01*
X010443Y009893D01*
X010491Y009881D01*
X010539Y009864D01*
X010585Y009844D01*
X010630Y009821D01*
X010673Y009794D01*
X010713Y009764D01*
X010751Y009731D01*
X010786Y009695D01*
X010819Y009656D01*
X010848Y009615D01*
X010874Y009572D01*
X010897Y009527D01*
X010916Y009480D01*
X010931Y009432D01*
X010943Y009383D01*
X010951Y009333D01*
X010955Y009283D01*
X010955Y009233D01*
X010951Y009183D01*
X010943Y009133D01*
X010931Y009084D01*
X010916Y009036D01*
X010897Y008989D01*
X010874Y008944D01*
X010848Y008901D01*
X010819Y008860D01*
X010786Y008821D01*
X010751Y008785D01*
X010713Y008752D01*
X010673Y008722D01*
X010630Y008695D01*
X010585Y008672D01*
X010539Y008652D01*
X010491Y008635D01*
X010443Y008623D01*
X010393Y008614D01*
X010343Y008609D01*
X010292Y008608D01*
X010242Y008611D01*
X010192Y008618D01*
X010143Y008629D01*
X010095Y008643D01*
X010048Y008661D01*
X010002Y008683D01*
X009958Y008708D01*
X009917Y008737D01*
X009878Y008768D01*
X009841Y008803D01*
X009807Y008840D01*
X009776Y008880D01*
X009748Y008922D01*
X009724Y008966D01*
X009703Y009012D01*
X009686Y009060D01*
X009673Y009108D01*
X009663Y009158D01*
X009657Y009208D01*
X009655Y009258D01*
X009686Y009058D02*
X009427Y009058D01*
X010775Y008492D02*
X010823Y008523D01*
X010869Y008558D01*
X010913Y008595D01*
X010954Y008636D01*
X010993Y008679D01*
X011029Y008724D01*
X011061Y008771D01*
X010880Y008956D01*
X011061Y009746D02*
X011029Y009793D01*
X010993Y009838D01*
X010954Y009881D01*
X010913Y009922D01*
X010869Y009959D01*
X010823Y009994D01*
X010775Y010025D01*
X009686Y009458D02*
X009427Y009458D01*
X009428Y009458D02*
X009417Y009401D01*
X009409Y009344D01*
X009405Y009287D01*
X009405Y009229D01*
X009409Y009172D01*
X009417Y009115D01*
X009428Y009058D01*
X010594Y008676D02*
X010775Y008491D01*
X016722Y007870D02*
X016863Y007819D01*
X016914Y007960D01*
X016863Y007819D02*
X017004Y007767D01*
X016863Y007819D02*
X016812Y007678D01*
X017333Y007648D02*
X017452Y007976D01*
X016983Y008148D01*
X017051Y008335D01*
X017991Y007993D01*
X017922Y007805D01*
X017452Y007976D01*
X016455Y008258D02*
X016457Y008324D01*
X016463Y008389D01*
X016473Y008454D01*
X016486Y008519D01*
X016504Y008582D01*
X016525Y008645D01*
X016550Y008705D01*
X016579Y008765D01*
X016611Y008822D01*
X016646Y008878D01*
X016685Y008931D01*
X016727Y008982D01*
X016771Y009030D01*
X016819Y009075D01*
X016869Y009118D01*
X016922Y009157D01*
X016977Y009194D01*
X017034Y009227D01*
X017093Y009256D01*
X017153Y009282D01*
X017215Y009304D01*
X017278Y009323D01*
X017342Y009337D01*
X017407Y009348D01*
X017473Y009355D01*
X017539Y009358D01*
X017604Y009357D01*
X017670Y009352D01*
X017735Y009343D01*
X017800Y009330D01*
X017863Y009314D01*
X017926Y009294D01*
X017987Y009269D01*
X018047Y009242D01*
X018105Y009211D01*
X018161Y009176D01*
X018215Y009138D01*
X018266Y009097D01*
X018315Y009053D01*
X018361Y009006D01*
X018405Y008957D01*
X018445Y008905D01*
X018482Y008850D01*
X018516Y008794D01*
X018546Y008735D01*
X018573Y008675D01*
X018596Y008614D01*
X018615Y008551D01*
X018631Y008487D01*
X018643Y008422D01*
X018651Y008357D01*
X018655Y008291D01*
X018655Y008225D01*
X018651Y008159D01*
X018643Y008094D01*
X018631Y008029D01*
X018615Y007965D01*
X018596Y007902D01*
X018573Y007841D01*
X018546Y007781D01*
X018516Y007722D01*
X018482Y007666D01*
X018445Y007611D01*
X018405Y007559D01*
X018361Y007510D01*
X018315Y007463D01*
X018266Y007419D01*
X018215Y007378D01*
X018161Y007340D01*
X018105Y007305D01*
X018047Y007274D01*
X017987Y007247D01*
X017926Y007222D01*
X017863Y007202D01*
X017800Y007186D01*
X017735Y007173D01*
X017670Y007164D01*
X017604Y007159D01*
X017539Y007158D01*
X017473Y007161D01*
X017407Y007168D01*
X017342Y007179D01*
X017278Y007193D01*
X017215Y007212D01*
X017153Y007234D01*
X017093Y007260D01*
X017034Y007289D01*
X016977Y007322D01*
X016922Y007359D01*
X016869Y007398D01*
X016819Y007441D01*
X016771Y007486D01*
X016727Y007534D01*
X016685Y007585D01*
X016646Y007638D01*
X016611Y007694D01*
X016579Y007751D01*
X016550Y007811D01*
X016525Y007871D01*
X016504Y007934D01*
X016486Y007997D01*
X016473Y008062D01*
X016463Y008127D01*
X016457Y008192D01*
X016455Y008258D01*
X017641Y008493D02*
X017777Y008869D01*
X018680Y008858D02*
X018780Y008758D01*
X018680Y008658D01*
X018680Y007858D01*
X018780Y007758D01*
X018680Y007658D01*
X018680Y006858D01*
X018780Y006758D01*
X018680Y006658D01*
X018680Y005758D01*
X019680Y005758D01*
X019680Y006658D01*
X019580Y006758D01*
X019680Y006858D01*
X019680Y007658D01*
X019580Y007758D01*
X019680Y007858D01*
X019680Y008658D01*
X019580Y008758D01*
X019680Y008858D01*
X019680Y009658D01*
X019580Y009758D01*
X019680Y009858D01*
X019680Y010658D01*
X019580Y010758D01*
X019680Y010858D01*
X019680Y011758D01*
X018680Y011758D01*
X018680Y010858D01*
X018780Y010758D01*
X018680Y010658D01*
X018680Y009858D01*
X018780Y009758D01*
X018680Y009658D01*
X018680Y008858D01*
X018980Y009058D02*
X019380Y009058D01*
X019380Y009158D01*
X019480Y009158D01*
X019480Y009358D01*
X019380Y009358D01*
X019380Y009458D01*
X018980Y009458D01*
X018980Y009358D01*
X018880Y009358D01*
X018880Y009158D01*
X018980Y009158D01*
X018980Y009058D01*
X018980Y008458D02*
X018980Y008358D01*
X018880Y008358D01*
X018880Y008158D01*
X018980Y008158D01*
X018980Y008058D01*
X019380Y008058D01*
X019380Y008158D01*
X019480Y008158D01*
X019480Y008358D01*
X019380Y008358D01*
X019380Y008458D01*
X018980Y008458D01*
X018980Y007458D02*
X018980Y007358D01*
X018880Y007358D01*
X018880Y007158D01*
X018980Y007158D01*
X018980Y007058D01*
X019380Y007058D01*
X019380Y007158D01*
X019480Y007158D01*
X019480Y007358D01*
X019380Y007358D01*
X019380Y007458D01*
X018980Y007458D01*
X018980Y006458D02*
X018980Y006358D01*
X018880Y006358D01*
X018880Y006158D01*
X018980Y006158D01*
X018980Y006058D01*
X019380Y006058D01*
X019380Y006158D01*
X019480Y006158D01*
X019480Y006358D01*
X019380Y006358D01*
X019380Y006458D01*
X018980Y006458D01*
X021805Y006133D02*
X021807Y006177D01*
X021813Y006221D01*
X021823Y006264D01*
X021836Y006306D01*
X021853Y006347D01*
X021874Y006386D01*
X021898Y006423D01*
X021925Y006458D01*
X021955Y006490D01*
X021988Y006520D01*
X022024Y006546D01*
X022061Y006570D01*
X022101Y006589D01*
X022142Y006606D01*
X022185Y006618D01*
X022228Y006627D01*
X022272Y006632D01*
X022316Y006633D01*
X022360Y006630D01*
X022404Y006623D01*
X022447Y006612D01*
X022489Y006598D01*
X022529Y006580D01*
X022568Y006558D01*
X022604Y006534D01*
X022638Y006506D01*
X022670Y006475D01*
X022699Y006441D01*
X022725Y006405D01*
X022747Y006367D01*
X022766Y006327D01*
X022781Y006285D01*
X022793Y006243D01*
X022801Y006199D01*
X022805Y006155D01*
X022805Y006111D01*
X022801Y006067D01*
X022793Y006023D01*
X022781Y005981D01*
X022766Y005939D01*
X022747Y005899D01*
X022725Y005861D01*
X022699Y005825D01*
X022670Y005791D01*
X022638Y005760D01*
X022604Y005732D01*
X022568Y005708D01*
X022529Y005686D01*
X022489Y005668D01*
X022447Y005654D01*
X022404Y005643D01*
X022360Y005636D01*
X022316Y005633D01*
X022272Y005634D01*
X022228Y005639D01*
X022185Y005648D01*
X022142Y005660D01*
X022101Y005677D01*
X022061Y005696D01*
X022024Y005720D01*
X021988Y005746D01*
X021955Y005776D01*
X021925Y005808D01*
X021898Y005843D01*
X021874Y005880D01*
X021853Y005919D01*
X021836Y005960D01*
X021823Y006002D01*
X021813Y006045D01*
X021807Y006089D01*
X021805Y006133D01*
X019555Y006133D02*
X019558Y006268D01*
X019568Y006403D01*
X019585Y006537D01*
X019608Y006669D01*
X019637Y006801D01*
X019673Y006931D01*
X019716Y007059D01*
X019764Y007185D01*
X019819Y007309D01*
X019880Y007429D01*
X019946Y007547D01*
X020018Y007661D01*
X020096Y007771D01*
X020179Y007878D01*
X020267Y007980D01*
X020360Y008078D01*
X020458Y008171D01*
X020560Y008259D01*
X020667Y008342D01*
X020777Y008420D01*
X020891Y008492D01*
X021009Y008558D01*
X021129Y008619D01*
X021253Y008674D01*
X021379Y008722D01*
X021507Y008765D01*
X021637Y008801D01*
X021769Y008830D01*
X021901Y008853D01*
X022035Y008870D01*
X022170Y008880D01*
X022305Y008883D01*
X022440Y008880D01*
X022575Y008870D01*
X022709Y008853D01*
X022841Y008830D01*
X022973Y008801D01*
X023103Y008765D01*
X023231Y008722D01*
X023357Y008674D01*
X023481Y008619D01*
X023601Y008558D01*
X023719Y008492D01*
X023833Y008420D01*
X023943Y008342D01*
X024050Y008259D01*
X024152Y008171D01*
X024250Y008078D01*
X024343Y007980D01*
X024431Y007878D01*
X024514Y007771D01*
X024592Y007661D01*
X024664Y007547D01*
X024730Y007429D01*
X024791Y007309D01*
X024846Y007185D01*
X024894Y007059D01*
X024937Y006931D01*
X024973Y006801D01*
X025002Y006669D01*
X025025Y006537D01*
X025042Y006403D01*
X025052Y006268D01*
X025055Y006133D01*
X025052Y005998D01*
X025042Y005863D01*
X025025Y005729D01*
X025002Y005597D01*
X024973Y005465D01*
X024937Y005335D01*
X024894Y005207D01*
X024846Y005081D01*
X024791Y004957D01*
X024730Y004837D01*
X024664Y004719D01*
X024592Y004605D01*
X024514Y004495D01*
X024431Y004388D01*
X024343Y004286D01*
X024250Y004188D01*
X024152Y004095D01*
X024050Y004007D01*
X023943Y003924D01*
X023833Y003846D01*
X023719Y003774D01*
X023601Y003708D01*
X023481Y003647D01*
X023357Y003592D01*
X023231Y003544D01*
X023103Y003501D01*
X022973Y003465D01*
X022841Y003436D01*
X022709Y003413D01*
X022575Y003396D01*
X022440Y003386D01*
X022305Y003383D01*
X022170Y003386D01*
X022035Y003396D01*
X021901Y003413D01*
X021769Y003436D01*
X021637Y003465D01*
X021507Y003501D01*
X021379Y003544D01*
X021253Y003592D01*
X021129Y003647D01*
X021009Y003708D01*
X020891Y003774D01*
X020777Y003846D01*
X020667Y003924D01*
X020560Y004007D01*
X020458Y004095D01*
X020360Y004188D01*
X020267Y004286D01*
X020179Y004388D01*
X020096Y004495D01*
X020018Y004605D01*
X019946Y004719D01*
X019880Y004837D01*
X019819Y004957D01*
X019764Y005081D01*
X019716Y005207D01*
X019673Y005335D01*
X019637Y005465D01*
X019608Y005597D01*
X019585Y005729D01*
X019568Y005863D01*
X019558Y005998D01*
X019555Y006133D01*
X020305Y004933D02*
X020307Y004977D01*
X020313Y005021D01*
X020323Y005064D01*
X020336Y005106D01*
X020353Y005147D01*
X020374Y005186D01*
X020398Y005223D01*
X020425Y005258D01*
X020455Y005290D01*
X020488Y005320D01*
X020524Y005346D01*
X020561Y005370D01*
X020601Y005389D01*
X020642Y005406D01*
X020685Y005418D01*
X020728Y005427D01*
X020772Y005432D01*
X020816Y005433D01*
X020860Y005430D01*
X020904Y005423D01*
X020947Y005412D01*
X020989Y005398D01*
X021029Y005380D01*
X021068Y005358D01*
X021104Y005334D01*
X021138Y005306D01*
X021170Y005275D01*
X021199Y005241D01*
X021225Y005205D01*
X021247Y005167D01*
X021266Y005127D01*
X021281Y005085D01*
X021293Y005043D01*
X021301Y004999D01*
X021305Y004955D01*
X021305Y004911D01*
X021301Y004867D01*
X021293Y004823D01*
X021281Y004781D01*
X021266Y004739D01*
X021247Y004699D01*
X021225Y004661D01*
X021199Y004625D01*
X021170Y004591D01*
X021138Y004560D01*
X021104Y004532D01*
X021068Y004508D01*
X021029Y004486D01*
X020989Y004468D01*
X020947Y004454D01*
X020904Y004443D01*
X020860Y004436D01*
X020816Y004433D01*
X020772Y004434D01*
X020728Y004439D01*
X020685Y004448D01*
X020642Y004460D01*
X020601Y004477D01*
X020561Y004496D01*
X020524Y004520D01*
X020488Y004546D01*
X020455Y004576D01*
X020425Y004608D01*
X020398Y004643D01*
X020374Y004680D01*
X020353Y004719D01*
X020336Y004760D01*
X020323Y004802D01*
X020313Y004845D01*
X020307Y004889D01*
X020305Y004933D01*
X024555Y002883D02*
X024805Y003133D01*
X025305Y003133D01*
X025555Y002883D01*
X025555Y002383D01*
X025305Y002133D01*
X024805Y002133D01*
X024555Y002383D01*
X024555Y002883D01*
X024680Y002333D02*
X023680Y002333D01*
X023663Y002331D01*
X023646Y002327D01*
X023630Y002320D01*
X023616Y002310D01*
X023603Y002297D01*
X023593Y002283D01*
X023586Y002267D01*
X023582Y002250D01*
X023580Y002233D01*
X023580Y000533D01*
X023582Y000516D01*
X023586Y000499D01*
X023593Y000483D01*
X023603Y000469D01*
X023616Y000456D01*
X023630Y000446D01*
X023646Y000439D01*
X023663Y000435D01*
X023680Y000433D01*
X024680Y000433D01*
X024697Y000435D01*
X024714Y000439D01*
X024730Y000446D01*
X024744Y000456D01*
X024757Y000469D01*
X024767Y000483D01*
X024774Y000499D01*
X024778Y000516D01*
X024780Y000533D01*
X024780Y002233D01*
X024778Y002250D01*
X024774Y002267D01*
X024767Y002283D01*
X024757Y002297D01*
X024744Y002310D01*
X024730Y002320D01*
X024714Y002327D01*
X024697Y002331D01*
X024680Y002333D01*
X024180Y001683D02*
X024180Y001533D01*
X024180Y001483D01*
X024180Y001283D02*
X024180Y001233D01*
X024180Y001083D01*
X022005Y001633D02*
X022005Y002633D01*
X022003Y002650D01*
X021999Y002667D01*
X021992Y002683D01*
X021982Y002697D01*
X021969Y002710D01*
X021955Y002720D01*
X021939Y002727D01*
X021922Y002731D01*
X021905Y002733D01*
X020205Y002733D01*
X020188Y002731D01*
X020171Y002727D01*
X020155Y002720D01*
X020141Y002710D01*
X020128Y002697D01*
X020118Y002683D01*
X020111Y002667D01*
X020107Y002650D01*
X020105Y002633D01*
X020105Y001633D01*
X020107Y001616D01*
X020111Y001599D01*
X020118Y001583D01*
X020128Y001569D01*
X020141Y001556D01*
X020155Y001546D01*
X020171Y001539D01*
X020188Y001535D01*
X020205Y001533D01*
X021905Y001533D01*
X021922Y001535D01*
X021939Y001539D01*
X021955Y001546D01*
X021969Y001556D01*
X021982Y001569D01*
X021992Y001583D01*
X021999Y001599D01*
X022003Y001616D01*
X022005Y001633D01*
X021355Y002133D02*
X021205Y002133D01*
X021155Y002133D01*
X020955Y002133D02*
X020905Y002133D01*
X020755Y002133D01*
X017030Y002483D02*
X017030Y000783D01*
X017028Y000766D01*
X017024Y000749D01*
X017017Y000733D01*
X017007Y000719D01*
X016994Y000706D01*
X016980Y000696D01*
X016964Y000689D01*
X016947Y000685D01*
X016930Y000683D01*
X015930Y000683D01*
X015913Y000685D01*
X015896Y000689D01*
X015880Y000696D01*
X015866Y000706D01*
X015853Y000719D01*
X015843Y000733D01*
X015836Y000749D01*
X015832Y000766D01*
X015830Y000783D01*
X015830Y002483D01*
X015832Y002500D01*
X015836Y002517D01*
X015843Y002533D01*
X015853Y002547D01*
X015866Y002560D01*
X015880Y002570D01*
X015896Y002577D01*
X015913Y002581D01*
X015930Y002583D01*
X016930Y002583D01*
X016947Y002581D01*
X016964Y002577D01*
X016980Y002570D01*
X016994Y002560D01*
X017007Y002547D01*
X017017Y002533D01*
X017024Y002517D01*
X017028Y002500D01*
X017030Y002483D01*
X016430Y001933D02*
X016430Y001783D01*
X016430Y001733D01*
X016430Y001533D02*
X016430Y001483D01*
X016430Y001333D01*
X014530Y000533D02*
X014530Y002233D01*
X014528Y002250D01*
X014524Y002267D01*
X014517Y002283D01*
X014507Y002297D01*
X014494Y002310D01*
X014480Y002320D01*
X014464Y002327D01*
X014447Y002331D01*
X014430Y002333D01*
X013430Y002333D01*
X013413Y002331D01*
X013396Y002327D01*
X013380Y002320D01*
X013366Y002310D01*
X013353Y002297D01*
X013343Y002283D01*
X013336Y002267D01*
X013332Y002250D01*
X013330Y002233D01*
X013330Y000533D01*
X013280Y000533D02*
X013280Y002233D01*
X013278Y002250D01*
X013274Y002267D01*
X013267Y002283D01*
X013257Y002297D01*
X013244Y002310D01*
X013230Y002320D01*
X013214Y002327D01*
X013197Y002331D01*
X013180Y002333D01*
X012180Y002333D01*
X012163Y002331D01*
X012146Y002327D01*
X012130Y002320D01*
X012116Y002310D01*
X012103Y002297D01*
X012093Y002283D01*
X012086Y002267D01*
X012082Y002250D01*
X012080Y002233D01*
X012080Y000533D01*
X012082Y000516D01*
X012086Y000499D01*
X012093Y000483D01*
X012103Y000469D01*
X012116Y000456D01*
X012130Y000446D01*
X012146Y000439D01*
X012163Y000435D01*
X012180Y000433D01*
X013180Y000433D01*
X013197Y000435D01*
X013214Y000439D01*
X013230Y000446D01*
X013244Y000456D01*
X013257Y000469D01*
X013267Y000483D01*
X013274Y000499D01*
X013278Y000516D01*
X013280Y000533D01*
X013330Y000533D02*
X013332Y000516D01*
X013336Y000499D01*
X013343Y000483D01*
X013353Y000469D01*
X013366Y000456D01*
X013380Y000446D01*
X013396Y000439D01*
X013413Y000435D01*
X013430Y000433D01*
X014430Y000433D01*
X014447Y000435D01*
X014464Y000439D01*
X014480Y000446D01*
X014494Y000456D01*
X014507Y000469D01*
X014517Y000483D01*
X014524Y000499D01*
X014528Y000516D01*
X014530Y000533D01*
X013930Y001083D02*
X013930Y001233D01*
X013930Y001283D01*
X013930Y001483D02*
X013930Y001533D01*
X013930Y001683D01*
X012680Y001683D02*
X012680Y001533D01*
X012680Y001483D01*
X012680Y001283D02*
X012680Y001233D01*
X012680Y001083D01*
X026705Y000533D02*
X026705Y002233D01*
X026707Y002250D01*
X026711Y002267D01*
X026718Y002283D01*
X026728Y002297D01*
X026741Y002310D01*
X026755Y002320D01*
X026771Y002327D01*
X026788Y002331D01*
X026805Y002333D01*
X027805Y002333D01*
X027822Y002331D01*
X027839Y002327D01*
X027855Y002320D01*
X027869Y002310D01*
X027882Y002297D01*
X027892Y002283D01*
X027899Y002267D01*
X027903Y002250D01*
X027905Y002233D01*
X027905Y000533D01*
X027955Y000533D02*
X027955Y002233D01*
X027957Y002250D01*
X027961Y002267D01*
X027968Y002283D01*
X027978Y002297D01*
X027991Y002310D01*
X028005Y002320D01*
X028021Y002327D01*
X028038Y002331D01*
X028055Y002333D01*
X029055Y002333D01*
X029072Y002331D01*
X029089Y002327D01*
X029105Y002320D01*
X029119Y002310D01*
X029132Y002297D01*
X029142Y002283D01*
X029149Y002267D01*
X029153Y002250D01*
X029155Y002233D01*
X029155Y000533D01*
X029153Y000516D01*
X029149Y000499D01*
X029142Y000483D01*
X029132Y000469D01*
X029119Y000456D01*
X029105Y000446D01*
X029089Y000439D01*
X029072Y000435D01*
X029055Y000433D01*
X028055Y000433D01*
X028038Y000435D01*
X028021Y000439D01*
X028005Y000446D01*
X027991Y000456D01*
X027978Y000469D01*
X027968Y000483D01*
X027961Y000499D01*
X027957Y000516D01*
X027955Y000533D01*
X027905Y000533D02*
X027903Y000516D01*
X027899Y000499D01*
X027892Y000483D01*
X027882Y000469D01*
X027869Y000456D01*
X027855Y000446D01*
X027839Y000439D01*
X027822Y000435D01*
X027805Y000433D01*
X026805Y000433D01*
X026788Y000435D01*
X026771Y000439D01*
X026755Y000446D01*
X026741Y000456D01*
X026728Y000469D01*
X026718Y000483D01*
X026711Y000499D01*
X026707Y000516D01*
X026705Y000533D01*
X027305Y001083D02*
X027305Y001233D01*
X027305Y001283D01*
X027305Y001483D02*
X027305Y001533D01*
X027305Y001683D01*
X028555Y001683D02*
X028555Y001533D01*
X028555Y001483D01*
X028555Y001283D02*
X028555Y001233D01*
X028555Y001083D01*
X030530Y004133D02*
X030532Y004173D01*
X030538Y004212D01*
X030548Y004251D01*
X030561Y004288D01*
X030579Y004324D01*
X030600Y004358D01*
X030624Y004390D01*
X030651Y004419D01*
X030681Y004446D01*
X030713Y004469D01*
X030748Y004489D01*
X030784Y004505D01*
X030822Y004518D01*
X030861Y004527D01*
X030900Y004532D01*
X030940Y004533D01*
X030980Y004530D01*
X031019Y004523D01*
X031057Y004512D01*
X031095Y004498D01*
X031130Y004479D01*
X031163Y004458D01*
X031195Y004433D01*
X031223Y004405D01*
X031249Y004375D01*
X031271Y004342D01*
X031290Y004307D01*
X031306Y004270D01*
X031318Y004232D01*
X031326Y004193D01*
X031330Y004153D01*
X031330Y004113D01*
X031326Y004073D01*
X031318Y004034D01*
X031306Y003996D01*
X031290Y003959D01*
X031271Y003924D01*
X031249Y003891D01*
X031223Y003861D01*
X031195Y003833D01*
X031163Y003808D01*
X031130Y003787D01*
X031095Y003768D01*
X031057Y003754D01*
X031019Y003743D01*
X030980Y003736D01*
X030940Y003733D01*
X030900Y003734D01*
X030861Y003739D01*
X030822Y003748D01*
X030784Y003761D01*
X030748Y003777D01*
X030713Y003797D01*
X030681Y003820D01*
X030651Y003847D01*
X030624Y003876D01*
X030600Y003908D01*
X030579Y003942D01*
X030561Y003978D01*
X030548Y004015D01*
X030538Y004054D01*
X030532Y004093D01*
X030530Y004133D01*
X030430Y004133D02*
X030432Y004177D01*
X030438Y004221D01*
X030448Y004264D01*
X030461Y004306D01*
X030478Y004347D01*
X030499Y004386D01*
X030523Y004423D01*
X030550Y004458D01*
X030580Y004490D01*
X030613Y004520D01*
X030649Y004546D01*
X030686Y004570D01*
X030726Y004589D01*
X030767Y004606D01*
X030810Y004618D01*
X030853Y004627D01*
X030897Y004632D01*
X030941Y004633D01*
X030985Y004630D01*
X031029Y004623D01*
X031072Y004612D01*
X031114Y004598D01*
X031154Y004580D01*
X031193Y004558D01*
X031229Y004534D01*
X031263Y004506D01*
X031295Y004475D01*
X031324Y004441D01*
X031350Y004405D01*
X031372Y004367D01*
X031391Y004327D01*
X031406Y004285D01*
X031418Y004243D01*
X031426Y004199D01*
X031430Y004155D01*
X031430Y004111D01*
X031426Y004067D01*
X031418Y004023D01*
X031406Y003981D01*
X031391Y003939D01*
X031372Y003899D01*
X031350Y003861D01*
X031324Y003825D01*
X031295Y003791D01*
X031263Y003760D01*
X031229Y003732D01*
X031193Y003708D01*
X031154Y003686D01*
X031114Y003668D01*
X031072Y003654D01*
X031029Y003643D01*
X030985Y003636D01*
X030941Y003633D01*
X030897Y003634D01*
X030853Y003639D01*
X030810Y003648D01*
X030767Y003660D01*
X030726Y003677D01*
X030686Y003696D01*
X030649Y003720D01*
X030613Y003746D01*
X030580Y003776D01*
X030550Y003808D01*
X030523Y003843D01*
X030499Y003880D01*
X030478Y003919D01*
X030461Y003960D01*
X030448Y004002D01*
X030438Y004045D01*
X030432Y004089D01*
X030430Y004133D01*
X032107Y006859D02*
X032076Y006897D01*
X032048Y006937D01*
X032024Y006979D01*
X032003Y007022D01*
X031986Y007068D01*
X031973Y007114D01*
X031963Y007162D01*
X031957Y007210D01*
X031955Y007258D01*
X032555Y007858D02*
X032602Y007856D01*
X032650Y007850D01*
X032696Y007841D01*
X032742Y007828D01*
X032786Y007812D01*
X032830Y007791D01*
X032871Y007768D01*
X032910Y007742D01*
X032947Y007712D01*
X032982Y007679D01*
X033014Y007644D01*
X033043Y007607D01*
X032555Y006658D02*
X032510Y006660D01*
X032464Y006665D01*
X032420Y006673D01*
X032376Y006685D01*
X032333Y006701D01*
X032291Y006719D01*
X032251Y006741D01*
X032213Y006765D01*
X032177Y006792D01*
X032142Y006822D01*
X032111Y006855D01*
X032081Y006890D01*
X033155Y007258D02*
X033153Y007305D01*
X033148Y007352D01*
X033138Y007398D01*
X033125Y007444D01*
X033109Y007488D01*
X033089Y007531D01*
X033066Y007572D01*
X033040Y007611D01*
X033011Y007648D01*
X033155Y007258D02*
X033153Y007212D01*
X033148Y007166D01*
X033139Y007120D01*
X033127Y007076D01*
X033111Y007032D01*
X033092Y006990D01*
X033070Y006949D01*
X033044Y006911D01*
X033016Y006874D01*
X032955Y007258D02*
X032953Y007219D01*
X032947Y007180D01*
X032938Y007142D01*
X032925Y007105D01*
X032908Y007069D01*
X032888Y007036D01*
X032864Y007004D01*
X032838Y006975D01*
X032809Y006949D01*
X032777Y006925D01*
X032744Y006905D01*
X032708Y006888D01*
X032671Y006875D01*
X032633Y006866D01*
X032594Y006860D01*
X032555Y006858D01*
X031955Y007258D02*
X031957Y007304D01*
X031962Y007350D01*
X031971Y007396D01*
X031983Y007440D01*
X031999Y007484D01*
X032018Y007526D01*
X032040Y007567D01*
X032066Y007605D01*
X032094Y007642D01*
X032555Y006658D02*
X032600Y006660D01*
X032646Y006665D01*
X032690Y006673D01*
X032734Y006685D01*
X032777Y006701D01*
X032819Y006719D01*
X032859Y006741D01*
X032897Y006765D01*
X032933Y006792D01*
X032968Y006822D01*
X032999Y006855D01*
X033029Y006890D01*
X032805Y007258D02*
X032803Y007228D01*
X032798Y007198D01*
X032789Y007169D01*
X032776Y007142D01*
X032761Y007116D01*
X032742Y007092D01*
X032721Y007071D01*
X032697Y007052D01*
X032671Y007037D01*
X032644Y007024D01*
X032615Y007015D01*
X032585Y007010D01*
X032555Y007008D01*
X032075Y007618D02*
X032104Y007654D01*
X032136Y007688D01*
X032171Y007719D01*
X032207Y007747D01*
X032246Y007772D01*
X032287Y007795D01*
X032329Y007814D01*
X032372Y007830D01*
X032417Y007842D01*
X032463Y007851D01*
X032509Y007856D01*
X032555Y007858D01*
X032555Y008183D02*
X032705Y008183D01*
X033055Y008183D01*
X034005Y008183D01*
X034405Y008183D01*
X034555Y008183D01*
X034755Y008383D01*
X034755Y008983D01*
X034755Y009083D01*
X034855Y009083D01*
X034855Y009683D01*
X034755Y009683D01*
X034755Y009783D01*
X034755Y010383D01*
X034555Y010583D01*
X034405Y010583D01*
X034055Y010583D01*
X033055Y010583D01*
X032705Y010583D01*
X032555Y010583D01*
X032355Y010383D01*
X032355Y009783D01*
X032355Y009683D01*
X032255Y009683D01*
X032255Y009083D01*
X032355Y009083D01*
X032355Y008983D01*
X032355Y008383D01*
X032555Y008183D01*
X032505Y008533D02*
X032507Y008561D01*
X032513Y008588D01*
X032522Y008614D01*
X032535Y008639D01*
X032552Y008662D01*
X032571Y008682D01*
X032593Y008699D01*
X032617Y008713D01*
X032643Y008723D01*
X032670Y008730D01*
X032698Y008733D01*
X032726Y008732D01*
X032753Y008727D01*
X032780Y008718D01*
X032805Y008706D01*
X032828Y008691D01*
X032849Y008672D01*
X032867Y008651D01*
X032882Y008627D01*
X032893Y008601D01*
X032901Y008575D01*
X032905Y008547D01*
X032905Y008519D01*
X032901Y008491D01*
X032893Y008465D01*
X032882Y008439D01*
X032867Y008415D01*
X032849Y008394D01*
X032828Y008375D01*
X032805Y008360D01*
X032780Y008348D01*
X032753Y008339D01*
X032726Y008334D01*
X032698Y008333D01*
X032670Y008336D01*
X032643Y008343D01*
X032617Y008353D01*
X032593Y008367D01*
X032571Y008384D01*
X032552Y008404D01*
X032535Y008427D01*
X032522Y008452D01*
X032513Y008478D01*
X032507Y008505D01*
X032505Y008533D01*
X032605Y008883D02*
X032605Y009183D01*
X032705Y009233D02*
X032605Y009583D01*
X032605Y009883D01*
X032505Y010233D02*
X032507Y010261D01*
X032513Y010288D01*
X032522Y010314D01*
X032535Y010339D01*
X032552Y010362D01*
X032571Y010382D01*
X032593Y010399D01*
X032617Y010413D01*
X032643Y010423D01*
X032670Y010430D01*
X032698Y010433D01*
X032726Y010432D01*
X032753Y010427D01*
X032780Y010418D01*
X032805Y010406D01*
X032828Y010391D01*
X032849Y010372D01*
X032867Y010351D01*
X032882Y010327D01*
X032893Y010301D01*
X032901Y010275D01*
X032905Y010247D01*
X032905Y010219D01*
X032901Y010191D01*
X032893Y010165D01*
X032882Y010139D01*
X032867Y010115D01*
X032849Y010094D01*
X032828Y010075D01*
X032805Y010060D01*
X032780Y010048D01*
X032753Y010039D01*
X032726Y010034D01*
X032698Y010033D01*
X032670Y010036D01*
X032643Y010043D01*
X032617Y010053D01*
X032593Y010067D01*
X032571Y010084D01*
X032552Y010104D01*
X032535Y010127D01*
X032522Y010152D01*
X032513Y010178D01*
X032507Y010205D01*
X032505Y010233D01*
X033055Y010283D02*
X034055Y010283D01*
X034205Y010233D02*
X034207Y010261D01*
X034213Y010288D01*
X034222Y010314D01*
X034235Y010339D01*
X034252Y010362D01*
X034271Y010382D01*
X034293Y010399D01*
X034317Y010413D01*
X034343Y010423D01*
X034370Y010430D01*
X034398Y010433D01*
X034426Y010432D01*
X034453Y010427D01*
X034480Y010418D01*
X034505Y010406D01*
X034528Y010391D01*
X034549Y010372D01*
X034567Y010351D01*
X034582Y010327D01*
X034593Y010301D01*
X034601Y010275D01*
X034605Y010247D01*
X034605Y010219D01*
X034601Y010191D01*
X034593Y010165D01*
X034582Y010139D01*
X034567Y010115D01*
X034549Y010094D01*
X034528Y010075D01*
X034505Y010060D01*
X034480Y010048D01*
X034453Y010039D01*
X034426Y010034D01*
X034398Y010033D01*
X034370Y010036D01*
X034343Y010043D01*
X034317Y010053D01*
X034293Y010067D01*
X034271Y010084D01*
X034252Y010104D01*
X034235Y010127D01*
X034222Y010152D01*
X034213Y010178D01*
X034207Y010205D01*
X034205Y010233D01*
X033455Y009383D02*
X033457Y009403D01*
X033463Y009421D01*
X033472Y009439D01*
X033484Y009454D01*
X033499Y009466D01*
X033517Y009475D01*
X033535Y009481D01*
X033555Y009483D01*
X033575Y009481D01*
X033593Y009475D01*
X033611Y009466D01*
X033626Y009454D01*
X033638Y009439D01*
X033647Y009421D01*
X033653Y009403D01*
X033655Y009383D01*
X033653Y009363D01*
X033647Y009345D01*
X033638Y009327D01*
X033626Y009312D01*
X033611Y009300D01*
X033593Y009291D01*
X033575Y009285D01*
X033555Y009283D01*
X033535Y009285D01*
X033517Y009291D01*
X033499Y009300D01*
X033484Y009312D01*
X033472Y009327D01*
X033463Y009345D01*
X033457Y009363D01*
X033455Y009383D01*
X032855Y009383D02*
X032857Y009435D01*
X032863Y009487D01*
X032873Y009539D01*
X032886Y009589D01*
X032903Y009639D01*
X032924Y009687D01*
X032949Y009733D01*
X032977Y009777D01*
X033008Y009819D01*
X033042Y009859D01*
X033079Y009896D01*
X033119Y009930D01*
X033161Y009961D01*
X033205Y009989D01*
X033251Y010014D01*
X033299Y010035D01*
X033349Y010052D01*
X033399Y010065D01*
X033451Y010075D01*
X033503Y010081D01*
X033555Y010083D01*
X033607Y010081D01*
X033659Y010075D01*
X033711Y010065D01*
X033761Y010052D01*
X033811Y010035D01*
X033859Y010014D01*
X033905Y009989D01*
X033949Y009961D01*
X033991Y009930D01*
X034031Y009896D01*
X034068Y009859D01*
X034102Y009819D01*
X034133Y009777D01*
X034161Y009733D01*
X034186Y009687D01*
X034207Y009639D01*
X034224Y009589D01*
X034237Y009539D01*
X034247Y009487D01*
X034253Y009435D01*
X034255Y009383D01*
X034253Y009331D01*
X034247Y009279D01*
X034237Y009227D01*
X034224Y009177D01*
X034207Y009127D01*
X034186Y009079D01*
X034161Y009033D01*
X034133Y008989D01*
X034102Y008947D01*
X034068Y008907D01*
X034031Y008870D01*
X033991Y008836D01*
X033949Y008805D01*
X033905Y008777D01*
X033859Y008752D01*
X033811Y008731D01*
X033761Y008714D01*
X033711Y008701D01*
X033659Y008691D01*
X033607Y008685D01*
X033555Y008683D01*
X033503Y008685D01*
X033451Y008691D01*
X033399Y008701D01*
X033349Y008714D01*
X033299Y008731D01*
X033251Y008752D01*
X033205Y008777D01*
X033161Y008805D01*
X033119Y008836D01*
X033079Y008870D01*
X033042Y008907D01*
X033008Y008947D01*
X032977Y008989D01*
X032949Y009033D01*
X032924Y009079D01*
X032903Y009127D01*
X032886Y009177D01*
X032873Y009227D01*
X032863Y009279D01*
X032857Y009331D01*
X032855Y009383D01*
X033055Y008533D02*
X034055Y008533D01*
X034205Y008583D02*
X034207Y008611D01*
X034213Y008638D01*
X034222Y008664D01*
X034235Y008689D01*
X034252Y008712D01*
X034271Y008732D01*
X034293Y008749D01*
X034317Y008763D01*
X034343Y008773D01*
X034370Y008780D01*
X034398Y008783D01*
X034426Y008782D01*
X034453Y008777D01*
X034480Y008768D01*
X034505Y008756D01*
X034528Y008741D01*
X034549Y008722D01*
X034567Y008701D01*
X034582Y008677D01*
X034593Y008651D01*
X034601Y008625D01*
X034605Y008597D01*
X034605Y008569D01*
X034601Y008541D01*
X034593Y008515D01*
X034582Y008489D01*
X034567Y008465D01*
X034549Y008444D01*
X034528Y008425D01*
X034505Y008410D01*
X034480Y008398D01*
X034453Y008389D01*
X034426Y008384D01*
X034398Y008383D01*
X034370Y008386D01*
X034343Y008393D01*
X034317Y008403D01*
X034293Y008417D01*
X034271Y008434D01*
X034252Y008454D01*
X034235Y008477D01*
X034222Y008502D01*
X034213Y008528D01*
X034207Y008555D01*
X034205Y008583D01*
X032555Y007658D02*
X032516Y007656D01*
X032477Y007650D01*
X032439Y007641D01*
X032402Y007628D01*
X032366Y007611D01*
X032333Y007591D01*
X032301Y007567D01*
X032272Y007541D01*
X032246Y007512D01*
X032222Y007480D01*
X032202Y007447D01*
X032185Y007411D01*
X032172Y007374D01*
X032163Y007336D01*
X032157Y007297D01*
X032155Y007258D01*
X032305Y007258D02*
X032307Y007288D01*
X032312Y007318D01*
X032321Y007347D01*
X032334Y007374D01*
X032349Y007400D01*
X032368Y007424D01*
X032389Y007445D01*
X032413Y007464D01*
X032439Y007479D01*
X032466Y007492D01*
X032495Y007501D01*
X032525Y007506D01*
X032555Y007508D01*
X030130Y008483D02*
X030130Y008633D01*
X030080Y008683D01*
X030080Y010583D01*
X030130Y010633D01*
X030130Y010783D01*
X030128Y010800D01*
X030124Y010817D01*
X030117Y010833D01*
X030107Y010847D01*
X030094Y010860D01*
X030080Y010870D01*
X030064Y010877D01*
X030047Y010881D01*
X030030Y010883D01*
X029330Y010883D01*
X029313Y010881D01*
X029296Y010877D01*
X029280Y010870D01*
X029266Y010860D01*
X029253Y010847D01*
X029243Y010833D01*
X029236Y010817D01*
X029232Y010800D01*
X029230Y010783D01*
X029230Y010633D01*
X029280Y010583D01*
X029280Y008683D01*
X029230Y008633D01*
X029230Y008483D01*
X029232Y008466D01*
X029236Y008449D01*
X029243Y008433D01*
X029253Y008419D01*
X029266Y008406D01*
X029280Y008396D01*
X029296Y008389D01*
X029313Y008385D01*
X029330Y008383D01*
X030030Y008383D01*
X030047Y008385D01*
X030064Y008389D01*
X030080Y008396D01*
X030094Y008406D01*
X030107Y008419D01*
X030117Y008433D01*
X030124Y008449D01*
X030128Y008466D01*
X030130Y008483D01*
X029130Y008733D02*
X029130Y008883D01*
X029080Y008933D01*
X029080Y010833D01*
X029130Y010883D01*
X029130Y011033D01*
X029128Y011050D01*
X029124Y011067D01*
X029117Y011083D01*
X029107Y011097D01*
X029094Y011110D01*
X029080Y011120D01*
X029064Y011127D01*
X029047Y011131D01*
X029030Y011133D01*
X028330Y011133D01*
X028313Y011131D01*
X028296Y011127D01*
X028280Y011120D01*
X028266Y011110D01*
X028253Y011097D01*
X028243Y011083D01*
X028236Y011067D01*
X028232Y011050D01*
X028230Y011033D01*
X028230Y010883D01*
X028280Y010833D01*
X028280Y008933D01*
X028230Y008883D01*
X028230Y008733D01*
X028232Y008716D01*
X028236Y008699D01*
X028243Y008683D01*
X028253Y008669D01*
X028266Y008656D01*
X028280Y008646D01*
X028296Y008639D01*
X028313Y008635D01*
X028330Y008633D01*
X029030Y008633D01*
X029047Y008635D01*
X029064Y008639D01*
X029080Y008646D01*
X029094Y008656D01*
X029107Y008669D01*
X029117Y008683D01*
X029124Y008699D01*
X029128Y008716D01*
X029130Y008733D01*
X036055Y011983D02*
X036102Y011981D01*
X036150Y011975D01*
X036196Y011966D01*
X036242Y011953D01*
X036286Y011937D01*
X036330Y011916D01*
X036371Y011893D01*
X036410Y011867D01*
X036447Y011837D01*
X036482Y011804D01*
X036514Y011769D01*
X036543Y011732D01*
X036055Y010783D02*
X036010Y010785D01*
X035964Y010790D01*
X035920Y010798D01*
X035876Y010810D01*
X035833Y010826D01*
X035791Y010844D01*
X035751Y010866D01*
X035713Y010890D01*
X035677Y010917D01*
X035642Y010947D01*
X035611Y010980D01*
X035581Y011015D01*
X035607Y010984D02*
X035576Y011022D01*
X035548Y011062D01*
X035524Y011104D01*
X035503Y011147D01*
X035486Y011193D01*
X035473Y011239D01*
X035463Y011287D01*
X035457Y011335D01*
X035455Y011383D01*
X036055Y010783D02*
X036100Y010785D01*
X036146Y010790D01*
X036190Y010798D01*
X036234Y010810D01*
X036277Y010826D01*
X036319Y010844D01*
X036359Y010866D01*
X036397Y010890D01*
X036433Y010917D01*
X036468Y010947D01*
X036499Y010980D01*
X036529Y011015D01*
X036655Y011383D02*
X036653Y011430D01*
X036648Y011477D01*
X036638Y011523D01*
X036625Y011569D01*
X036609Y011613D01*
X036589Y011656D01*
X036566Y011697D01*
X036540Y011736D01*
X036511Y011773D01*
X037355Y012133D02*
X037555Y011933D01*
X037705Y011933D01*
X038055Y011933D01*
X039055Y011933D01*
X039405Y011933D01*
X039555Y011933D01*
X039755Y012133D01*
X039755Y012733D01*
X039755Y012833D01*
X039855Y012833D01*
X039855Y013433D01*
X039755Y013433D01*
X039755Y013533D01*
X039755Y014133D01*
X039555Y014333D01*
X039405Y014333D01*
X039055Y014333D01*
X038105Y014333D01*
X037705Y014333D01*
X037555Y014333D01*
X037355Y014133D01*
X037355Y013533D01*
X037355Y013433D01*
X037255Y013433D01*
X037255Y012833D01*
X037355Y012833D01*
X037355Y012733D01*
X037355Y012133D01*
X037505Y012283D02*
X037507Y012311D01*
X037513Y012338D01*
X037522Y012364D01*
X037535Y012389D01*
X037552Y012412D01*
X037571Y012432D01*
X037593Y012449D01*
X037617Y012463D01*
X037643Y012473D01*
X037670Y012480D01*
X037698Y012483D01*
X037726Y012482D01*
X037753Y012477D01*
X037780Y012468D01*
X037805Y012456D01*
X037828Y012441D01*
X037849Y012422D01*
X037867Y012401D01*
X037882Y012377D01*
X037893Y012351D01*
X037901Y012325D01*
X037905Y012297D01*
X037905Y012269D01*
X037901Y012241D01*
X037893Y012215D01*
X037882Y012189D01*
X037867Y012165D01*
X037849Y012144D01*
X037828Y012125D01*
X037805Y012110D01*
X037780Y012098D01*
X037753Y012089D01*
X037726Y012084D01*
X037698Y012083D01*
X037670Y012086D01*
X037643Y012093D01*
X037617Y012103D01*
X037593Y012117D01*
X037571Y012134D01*
X037552Y012154D01*
X037535Y012177D01*
X037522Y012202D01*
X037513Y012228D01*
X037507Y012255D01*
X037505Y012283D01*
X038055Y012233D02*
X039055Y012233D01*
X039205Y012283D02*
X039207Y012311D01*
X039213Y012338D01*
X039222Y012364D01*
X039235Y012389D01*
X039252Y012412D01*
X039271Y012432D01*
X039293Y012449D01*
X039317Y012463D01*
X039343Y012473D01*
X039370Y012480D01*
X039398Y012483D01*
X039426Y012482D01*
X039453Y012477D01*
X039480Y012468D01*
X039505Y012456D01*
X039528Y012441D01*
X039549Y012422D01*
X039567Y012401D01*
X039582Y012377D01*
X039593Y012351D01*
X039601Y012325D01*
X039605Y012297D01*
X039605Y012269D01*
X039601Y012241D01*
X039593Y012215D01*
X039582Y012189D01*
X039567Y012165D01*
X039549Y012144D01*
X039528Y012125D01*
X039505Y012110D01*
X039480Y012098D01*
X039453Y012089D01*
X039426Y012084D01*
X039398Y012083D01*
X039370Y012086D01*
X039343Y012093D01*
X039317Y012103D01*
X039293Y012117D01*
X039271Y012134D01*
X039252Y012154D01*
X039235Y012177D01*
X039222Y012202D01*
X039213Y012228D01*
X039207Y012255D01*
X039205Y012283D01*
X039505Y012633D02*
X039505Y012933D01*
X039405Y013283D01*
X039505Y013333D02*
X039505Y013633D01*
X039205Y013983D02*
X039207Y014011D01*
X039213Y014038D01*
X039222Y014064D01*
X039235Y014089D01*
X039252Y014112D01*
X039271Y014132D01*
X039293Y014149D01*
X039317Y014163D01*
X039343Y014173D01*
X039370Y014180D01*
X039398Y014183D01*
X039426Y014182D01*
X039453Y014177D01*
X039480Y014168D01*
X039505Y014156D01*
X039528Y014141D01*
X039549Y014122D01*
X039567Y014101D01*
X039582Y014077D01*
X039593Y014051D01*
X039601Y014025D01*
X039605Y013997D01*
X039605Y013969D01*
X039601Y013941D01*
X039593Y013915D01*
X039582Y013889D01*
X039567Y013865D01*
X039549Y013844D01*
X039528Y013825D01*
X039505Y013810D01*
X039480Y013798D01*
X039453Y013789D01*
X039426Y013784D01*
X039398Y013783D01*
X039370Y013786D01*
X039343Y013793D01*
X039317Y013803D01*
X039293Y013817D01*
X039271Y013834D01*
X039252Y013854D01*
X039235Y013877D01*
X039222Y013902D01*
X039213Y013928D01*
X039207Y013955D01*
X039205Y013983D01*
X039055Y013983D02*
X038055Y013983D01*
X037505Y013933D02*
X037507Y013961D01*
X037513Y013988D01*
X037522Y014014D01*
X037535Y014039D01*
X037552Y014062D01*
X037571Y014082D01*
X037593Y014099D01*
X037617Y014113D01*
X037643Y014123D01*
X037670Y014130D01*
X037698Y014133D01*
X037726Y014132D01*
X037753Y014127D01*
X037780Y014118D01*
X037805Y014106D01*
X037828Y014091D01*
X037849Y014072D01*
X037867Y014051D01*
X037882Y014027D01*
X037893Y014001D01*
X037901Y013975D01*
X037905Y013947D01*
X037905Y013919D01*
X037901Y013891D01*
X037893Y013865D01*
X037882Y013839D01*
X037867Y013815D01*
X037849Y013794D01*
X037828Y013775D01*
X037805Y013760D01*
X037780Y013748D01*
X037753Y013739D01*
X037726Y013734D01*
X037698Y013733D01*
X037670Y013736D01*
X037643Y013743D01*
X037617Y013753D01*
X037593Y013767D01*
X037571Y013784D01*
X037552Y013804D01*
X037535Y013827D01*
X037522Y013852D01*
X037513Y013878D01*
X037507Y013905D01*
X037505Y013933D01*
X038455Y013133D02*
X038457Y013153D01*
X038463Y013171D01*
X038472Y013189D01*
X038484Y013204D01*
X038499Y013216D01*
X038517Y013225D01*
X038535Y013231D01*
X038555Y013233D01*
X038575Y013231D01*
X038593Y013225D01*
X038611Y013216D01*
X038626Y013204D01*
X038638Y013189D01*
X038647Y013171D01*
X038653Y013153D01*
X038655Y013133D01*
X038653Y013113D01*
X038647Y013095D01*
X038638Y013077D01*
X038626Y013062D01*
X038611Y013050D01*
X038593Y013041D01*
X038575Y013035D01*
X038555Y013033D01*
X038535Y013035D01*
X038517Y013041D01*
X038499Y013050D01*
X038484Y013062D01*
X038472Y013077D01*
X038463Y013095D01*
X038457Y013113D01*
X038455Y013133D01*
X037855Y013133D02*
X037857Y013185D01*
X037863Y013237D01*
X037873Y013289D01*
X037886Y013339D01*
X037903Y013389D01*
X037924Y013437D01*
X037949Y013483D01*
X037977Y013527D01*
X038008Y013569D01*
X038042Y013609D01*
X038079Y013646D01*
X038119Y013680D01*
X038161Y013711D01*
X038205Y013739D01*
X038251Y013764D01*
X038299Y013785D01*
X038349Y013802D01*
X038399Y013815D01*
X038451Y013825D01*
X038503Y013831D01*
X038555Y013833D01*
X038607Y013831D01*
X038659Y013825D01*
X038711Y013815D01*
X038761Y013802D01*
X038811Y013785D01*
X038859Y013764D01*
X038905Y013739D01*
X038949Y013711D01*
X038991Y013680D01*
X039031Y013646D01*
X039068Y013609D01*
X039102Y013569D01*
X039133Y013527D01*
X039161Y013483D01*
X039186Y013437D01*
X039207Y013389D01*
X039224Y013339D01*
X039237Y013289D01*
X039247Y013237D01*
X039253Y013185D01*
X039255Y013133D01*
X039253Y013081D01*
X039247Y013029D01*
X039237Y012977D01*
X039224Y012927D01*
X039207Y012877D01*
X039186Y012829D01*
X039161Y012783D01*
X039133Y012739D01*
X039102Y012697D01*
X039068Y012657D01*
X039031Y012620D01*
X038991Y012586D01*
X038949Y012555D01*
X038905Y012527D01*
X038859Y012502D01*
X038811Y012481D01*
X038761Y012464D01*
X038711Y012451D01*
X038659Y012441D01*
X038607Y012435D01*
X038555Y012433D01*
X038503Y012435D01*
X038451Y012441D01*
X038399Y012451D01*
X038349Y012464D01*
X038299Y012481D01*
X038251Y012502D01*
X038205Y012527D01*
X038161Y012555D01*
X038119Y012586D01*
X038079Y012620D01*
X038042Y012657D01*
X038008Y012697D01*
X037977Y012739D01*
X037949Y012783D01*
X037924Y012829D01*
X037903Y012877D01*
X037886Y012927D01*
X037873Y012977D01*
X037863Y013029D01*
X037857Y013081D01*
X037855Y013133D01*
X034855Y012833D02*
X034855Y013433D01*
X034755Y013433D01*
X034755Y013533D01*
X034755Y014133D01*
X034555Y014333D01*
X034405Y014333D01*
X034055Y014333D01*
X033055Y014333D01*
X032705Y014333D01*
X032555Y014333D01*
X032355Y014133D01*
X032355Y013533D01*
X032355Y013433D01*
X032255Y013433D01*
X032255Y012833D01*
X032355Y012833D01*
X032355Y012733D01*
X032355Y012133D01*
X032555Y011933D01*
X032705Y011933D01*
X033055Y011933D01*
X034005Y011933D01*
X034405Y011933D01*
X034555Y011933D01*
X034755Y012133D01*
X034755Y012733D01*
X034755Y012833D01*
X034855Y012833D01*
X033455Y013133D02*
X033457Y013153D01*
X033463Y013171D01*
X033472Y013189D01*
X033484Y013204D01*
X033499Y013216D01*
X033517Y013225D01*
X033535Y013231D01*
X033555Y013233D01*
X033575Y013231D01*
X033593Y013225D01*
X033611Y013216D01*
X033626Y013204D01*
X033638Y013189D01*
X033647Y013171D01*
X033653Y013153D01*
X033655Y013133D01*
X033653Y013113D01*
X033647Y013095D01*
X033638Y013077D01*
X033626Y013062D01*
X033611Y013050D01*
X033593Y013041D01*
X033575Y013035D01*
X033555Y013033D01*
X033535Y013035D01*
X033517Y013041D01*
X033499Y013050D01*
X033484Y013062D01*
X033472Y013077D01*
X033463Y013095D01*
X033457Y013113D01*
X033455Y013133D01*
X032855Y013133D02*
X032857Y013185D01*
X032863Y013237D01*
X032873Y013289D01*
X032886Y013339D01*
X032903Y013389D01*
X032924Y013437D01*
X032949Y013483D01*
X032977Y013527D01*
X033008Y013569D01*
X033042Y013609D01*
X033079Y013646D01*
X033119Y013680D01*
X033161Y013711D01*
X033205Y013739D01*
X033251Y013764D01*
X033299Y013785D01*
X033349Y013802D01*
X033399Y013815D01*
X033451Y013825D01*
X033503Y013831D01*
X033555Y013833D01*
X033607Y013831D01*
X033659Y013825D01*
X033711Y013815D01*
X033761Y013802D01*
X033811Y013785D01*
X033859Y013764D01*
X033905Y013739D01*
X033949Y013711D01*
X033991Y013680D01*
X034031Y013646D01*
X034068Y013609D01*
X034102Y013569D01*
X034133Y013527D01*
X034161Y013483D01*
X034186Y013437D01*
X034207Y013389D01*
X034224Y013339D01*
X034237Y013289D01*
X034247Y013237D01*
X034253Y013185D01*
X034255Y013133D01*
X034253Y013081D01*
X034247Y013029D01*
X034237Y012977D01*
X034224Y012927D01*
X034207Y012877D01*
X034186Y012829D01*
X034161Y012783D01*
X034133Y012739D01*
X034102Y012697D01*
X034068Y012657D01*
X034031Y012620D01*
X033991Y012586D01*
X033949Y012555D01*
X033905Y012527D01*
X033859Y012502D01*
X033811Y012481D01*
X033761Y012464D01*
X033711Y012451D01*
X033659Y012441D01*
X033607Y012435D01*
X033555Y012433D01*
X033503Y012435D01*
X033451Y012441D01*
X033399Y012451D01*
X033349Y012464D01*
X033299Y012481D01*
X033251Y012502D01*
X033205Y012527D01*
X033161Y012555D01*
X033119Y012586D01*
X033079Y012620D01*
X033042Y012657D01*
X033008Y012697D01*
X032977Y012739D01*
X032949Y012783D01*
X032924Y012829D01*
X032903Y012877D01*
X032886Y012927D01*
X032873Y012977D01*
X032863Y013029D01*
X032857Y013081D01*
X032855Y013133D01*
X032705Y012983D02*
X032605Y013333D01*
X032605Y013633D01*
X032505Y013983D02*
X032507Y014011D01*
X032513Y014038D01*
X032522Y014064D01*
X032535Y014089D01*
X032552Y014112D01*
X032571Y014132D01*
X032593Y014149D01*
X032617Y014163D01*
X032643Y014173D01*
X032670Y014180D01*
X032698Y014183D01*
X032726Y014182D01*
X032753Y014177D01*
X032780Y014168D01*
X032805Y014156D01*
X032828Y014141D01*
X032849Y014122D01*
X032867Y014101D01*
X032882Y014077D01*
X032893Y014051D01*
X032901Y014025D01*
X032905Y013997D01*
X032905Y013969D01*
X032901Y013941D01*
X032893Y013915D01*
X032882Y013889D01*
X032867Y013865D01*
X032849Y013844D01*
X032828Y013825D01*
X032805Y013810D01*
X032780Y013798D01*
X032753Y013789D01*
X032726Y013784D01*
X032698Y013783D01*
X032670Y013786D01*
X032643Y013793D01*
X032617Y013803D01*
X032593Y013817D01*
X032571Y013834D01*
X032552Y013854D01*
X032535Y013877D01*
X032522Y013902D01*
X032513Y013928D01*
X032507Y013955D01*
X032505Y013983D01*
X033055Y014033D02*
X034055Y014033D01*
X034205Y013983D02*
X034207Y014011D01*
X034213Y014038D01*
X034222Y014064D01*
X034235Y014089D01*
X034252Y014112D01*
X034271Y014132D01*
X034293Y014149D01*
X034317Y014163D01*
X034343Y014173D01*
X034370Y014180D01*
X034398Y014183D01*
X034426Y014182D01*
X034453Y014177D01*
X034480Y014168D01*
X034505Y014156D01*
X034528Y014141D01*
X034549Y014122D01*
X034567Y014101D01*
X034582Y014077D01*
X034593Y014051D01*
X034601Y014025D01*
X034605Y013997D01*
X034605Y013969D01*
X034601Y013941D01*
X034593Y013915D01*
X034582Y013889D01*
X034567Y013865D01*
X034549Y013844D01*
X034528Y013825D01*
X034505Y013810D01*
X034480Y013798D01*
X034453Y013789D01*
X034426Y013784D01*
X034398Y013783D01*
X034370Y013786D01*
X034343Y013793D01*
X034317Y013803D01*
X034293Y013817D01*
X034271Y013834D01*
X034252Y013854D01*
X034235Y013877D01*
X034222Y013902D01*
X034213Y013928D01*
X034207Y013955D01*
X034205Y013983D01*
X032605Y012933D02*
X032605Y012633D01*
X032505Y012283D02*
X032507Y012311D01*
X032513Y012338D01*
X032522Y012364D01*
X032535Y012389D01*
X032552Y012412D01*
X032571Y012432D01*
X032593Y012449D01*
X032617Y012463D01*
X032643Y012473D01*
X032670Y012480D01*
X032698Y012483D01*
X032726Y012482D01*
X032753Y012477D01*
X032780Y012468D01*
X032805Y012456D01*
X032828Y012441D01*
X032849Y012422D01*
X032867Y012401D01*
X032882Y012377D01*
X032893Y012351D01*
X032901Y012325D01*
X032905Y012297D01*
X032905Y012269D01*
X032901Y012241D01*
X032893Y012215D01*
X032882Y012189D01*
X032867Y012165D01*
X032849Y012144D01*
X032828Y012125D01*
X032805Y012110D01*
X032780Y012098D01*
X032753Y012089D01*
X032726Y012084D01*
X032698Y012083D01*
X032670Y012086D01*
X032643Y012093D01*
X032617Y012103D01*
X032593Y012117D01*
X032571Y012134D01*
X032552Y012154D01*
X032535Y012177D01*
X032522Y012202D01*
X032513Y012228D01*
X032507Y012255D01*
X032505Y012283D01*
X033055Y012283D02*
X034055Y012283D01*
X034205Y012333D02*
X034207Y012361D01*
X034213Y012388D01*
X034222Y012414D01*
X034235Y012439D01*
X034252Y012462D01*
X034271Y012482D01*
X034293Y012499D01*
X034317Y012513D01*
X034343Y012523D01*
X034370Y012530D01*
X034398Y012533D01*
X034426Y012532D01*
X034453Y012527D01*
X034480Y012518D01*
X034505Y012506D01*
X034528Y012491D01*
X034549Y012472D01*
X034567Y012451D01*
X034582Y012427D01*
X034593Y012401D01*
X034601Y012375D01*
X034605Y012347D01*
X034605Y012319D01*
X034601Y012291D01*
X034593Y012265D01*
X034582Y012239D01*
X034567Y012215D01*
X034549Y012194D01*
X034528Y012175D01*
X034505Y012160D01*
X034480Y012148D01*
X034453Y012139D01*
X034426Y012134D01*
X034398Y012133D01*
X034370Y012136D01*
X034343Y012143D01*
X034317Y012153D01*
X034293Y012167D01*
X034271Y012184D01*
X034252Y012204D01*
X034235Y012227D01*
X034222Y012252D01*
X034213Y012278D01*
X034207Y012305D01*
X034205Y012333D01*
X036055Y010983D02*
X036094Y010985D01*
X036133Y010991D01*
X036171Y011000D01*
X036208Y011013D01*
X036244Y011030D01*
X036277Y011050D01*
X036309Y011074D01*
X036338Y011100D01*
X036364Y011129D01*
X036388Y011161D01*
X036408Y011194D01*
X036425Y011230D01*
X036438Y011267D01*
X036447Y011305D01*
X036453Y011344D01*
X036455Y011383D01*
X036305Y011383D02*
X036303Y011353D01*
X036298Y011323D01*
X036289Y011294D01*
X036276Y011267D01*
X036261Y011241D01*
X036242Y011217D01*
X036221Y011196D01*
X036197Y011177D01*
X036171Y011162D01*
X036144Y011149D01*
X036115Y011140D01*
X036085Y011135D01*
X036055Y011133D01*
X035455Y011383D02*
X035457Y011429D01*
X035462Y011475D01*
X035471Y011521D01*
X035483Y011565D01*
X035499Y011609D01*
X035518Y011651D01*
X035540Y011692D01*
X035566Y011730D01*
X035594Y011767D01*
X035655Y011383D02*
X035657Y011422D01*
X035663Y011461D01*
X035672Y011499D01*
X035685Y011536D01*
X035702Y011572D01*
X035722Y011605D01*
X035746Y011637D01*
X035772Y011666D01*
X035801Y011692D01*
X035833Y011716D01*
X035866Y011736D01*
X035902Y011753D01*
X035939Y011766D01*
X035977Y011775D01*
X036016Y011781D01*
X036055Y011783D01*
X036655Y011383D02*
X036653Y011337D01*
X036648Y011291D01*
X036639Y011245D01*
X036627Y011201D01*
X036611Y011157D01*
X036592Y011115D01*
X036570Y011074D01*
X036544Y011036D01*
X036516Y010999D01*
X036055Y011633D02*
X036025Y011631D01*
X035995Y011626D01*
X035966Y011617D01*
X035939Y011604D01*
X035913Y011589D01*
X035889Y011570D01*
X035868Y011549D01*
X035849Y011525D01*
X035834Y011499D01*
X035821Y011472D01*
X035812Y011443D01*
X035807Y011413D01*
X035805Y011383D01*
X035575Y011743D02*
X035604Y011779D01*
X035636Y011813D01*
X035671Y011844D01*
X035707Y011872D01*
X035746Y011897D01*
X035787Y011920D01*
X035829Y011939D01*
X035872Y011955D01*
X035917Y011967D01*
X035963Y011976D01*
X036009Y011981D01*
X036055Y011983D01*
X037555Y010583D02*
X037705Y010583D01*
X038055Y010583D01*
X039055Y010583D01*
X039405Y010583D01*
X039555Y010583D01*
X039755Y010383D01*
X039755Y009783D01*
X039755Y009683D01*
X039855Y009683D01*
X039855Y009083D01*
X039755Y009083D01*
X039755Y008983D01*
X039755Y008383D01*
X039555Y008183D01*
X039405Y008183D01*
X039005Y008183D01*
X038055Y008183D01*
X037705Y008183D01*
X037555Y008183D01*
X037355Y008383D01*
X037355Y008983D01*
X037355Y009083D01*
X037255Y009083D01*
X037255Y009683D01*
X037355Y009683D01*
X037355Y009783D01*
X037355Y010383D01*
X037555Y010583D01*
X037505Y010233D02*
X037507Y010261D01*
X037513Y010288D01*
X037522Y010314D01*
X037535Y010339D01*
X037552Y010362D01*
X037571Y010382D01*
X037593Y010399D01*
X037617Y010413D01*
X037643Y010423D01*
X037670Y010430D01*
X037698Y010433D01*
X037726Y010432D01*
X037753Y010427D01*
X037780Y010418D01*
X037805Y010406D01*
X037828Y010391D01*
X037849Y010372D01*
X037867Y010351D01*
X037882Y010327D01*
X037893Y010301D01*
X037901Y010275D01*
X037905Y010247D01*
X037905Y010219D01*
X037901Y010191D01*
X037893Y010165D01*
X037882Y010139D01*
X037867Y010115D01*
X037849Y010094D01*
X037828Y010075D01*
X037805Y010060D01*
X037780Y010048D01*
X037753Y010039D01*
X037726Y010034D01*
X037698Y010033D01*
X037670Y010036D01*
X037643Y010043D01*
X037617Y010053D01*
X037593Y010067D01*
X037571Y010084D01*
X037552Y010104D01*
X037535Y010127D01*
X037522Y010152D01*
X037513Y010178D01*
X037507Y010205D01*
X037505Y010233D01*
X038055Y010283D02*
X039055Y010283D01*
X039205Y010233D02*
X039207Y010261D01*
X039213Y010288D01*
X039222Y010314D01*
X039235Y010339D01*
X039252Y010362D01*
X039271Y010382D01*
X039293Y010399D01*
X039317Y010413D01*
X039343Y010423D01*
X039370Y010430D01*
X039398Y010433D01*
X039426Y010432D01*
X039453Y010427D01*
X039480Y010418D01*
X039505Y010406D01*
X039528Y010391D01*
X039549Y010372D01*
X039567Y010351D01*
X039582Y010327D01*
X039593Y010301D01*
X039601Y010275D01*
X039605Y010247D01*
X039605Y010219D01*
X039601Y010191D01*
X039593Y010165D01*
X039582Y010139D01*
X039567Y010115D01*
X039549Y010094D01*
X039528Y010075D01*
X039505Y010060D01*
X039480Y010048D01*
X039453Y010039D01*
X039426Y010034D01*
X039398Y010033D01*
X039370Y010036D01*
X039343Y010043D01*
X039317Y010053D01*
X039293Y010067D01*
X039271Y010084D01*
X039252Y010104D01*
X039235Y010127D01*
X039222Y010152D01*
X039213Y010178D01*
X039207Y010205D01*
X039205Y010233D01*
X037605Y009883D02*
X037605Y009583D01*
X037705Y009233D01*
X037605Y009183D02*
X037605Y008883D01*
X037505Y008533D02*
X037507Y008561D01*
X037513Y008588D01*
X037522Y008614D01*
X037535Y008639D01*
X037552Y008662D01*
X037571Y008682D01*
X037593Y008699D01*
X037617Y008713D01*
X037643Y008723D01*
X037670Y008730D01*
X037698Y008733D01*
X037726Y008732D01*
X037753Y008727D01*
X037780Y008718D01*
X037805Y008706D01*
X037828Y008691D01*
X037849Y008672D01*
X037867Y008651D01*
X037882Y008627D01*
X037893Y008601D01*
X037901Y008575D01*
X037905Y008547D01*
X037905Y008519D01*
X037901Y008491D01*
X037893Y008465D01*
X037882Y008439D01*
X037867Y008415D01*
X037849Y008394D01*
X037828Y008375D01*
X037805Y008360D01*
X037780Y008348D01*
X037753Y008339D01*
X037726Y008334D01*
X037698Y008333D01*
X037670Y008336D01*
X037643Y008343D01*
X037617Y008353D01*
X037593Y008367D01*
X037571Y008384D01*
X037552Y008404D01*
X037535Y008427D01*
X037522Y008452D01*
X037513Y008478D01*
X037507Y008505D01*
X037505Y008533D01*
X038055Y008533D02*
X039055Y008533D01*
X039205Y008583D02*
X039207Y008611D01*
X039213Y008638D01*
X039222Y008664D01*
X039235Y008689D01*
X039252Y008712D01*
X039271Y008732D01*
X039293Y008749D01*
X039317Y008763D01*
X039343Y008773D01*
X039370Y008780D01*
X039398Y008783D01*
X039426Y008782D01*
X039453Y008777D01*
X039480Y008768D01*
X039505Y008756D01*
X039528Y008741D01*
X039549Y008722D01*
X039567Y008701D01*
X039582Y008677D01*
X039593Y008651D01*
X039601Y008625D01*
X039605Y008597D01*
X039605Y008569D01*
X039601Y008541D01*
X039593Y008515D01*
X039582Y008489D01*
X039567Y008465D01*
X039549Y008444D01*
X039528Y008425D01*
X039505Y008410D01*
X039480Y008398D01*
X039453Y008389D01*
X039426Y008384D01*
X039398Y008383D01*
X039370Y008386D01*
X039343Y008393D01*
X039317Y008403D01*
X039293Y008417D01*
X039271Y008434D01*
X039252Y008454D01*
X039235Y008477D01*
X039222Y008502D01*
X039213Y008528D01*
X039207Y008555D01*
X039205Y008583D01*
X038455Y009383D02*
X038457Y009403D01*
X038463Y009421D01*
X038472Y009439D01*
X038484Y009454D01*
X038499Y009466D01*
X038517Y009475D01*
X038535Y009481D01*
X038555Y009483D01*
X038575Y009481D01*
X038593Y009475D01*
X038611Y009466D01*
X038626Y009454D01*
X038638Y009439D01*
X038647Y009421D01*
X038653Y009403D01*
X038655Y009383D01*
X038653Y009363D01*
X038647Y009345D01*
X038638Y009327D01*
X038626Y009312D01*
X038611Y009300D01*
X038593Y009291D01*
X038575Y009285D01*
X038555Y009283D01*
X038535Y009285D01*
X038517Y009291D01*
X038499Y009300D01*
X038484Y009312D01*
X038472Y009327D01*
X038463Y009345D01*
X038457Y009363D01*
X038455Y009383D01*
X037855Y009383D02*
X037857Y009435D01*
X037863Y009487D01*
X037873Y009539D01*
X037886Y009589D01*
X037903Y009639D01*
X037924Y009687D01*
X037949Y009733D01*
X037977Y009777D01*
X038008Y009819D01*
X038042Y009859D01*
X038079Y009896D01*
X038119Y009930D01*
X038161Y009961D01*
X038205Y009989D01*
X038251Y010014D01*
X038299Y010035D01*
X038349Y010052D01*
X038399Y010065D01*
X038451Y010075D01*
X038503Y010081D01*
X038555Y010083D01*
X038607Y010081D01*
X038659Y010075D01*
X038711Y010065D01*
X038761Y010052D01*
X038811Y010035D01*
X038859Y010014D01*
X038905Y009989D01*
X038949Y009961D01*
X038991Y009930D01*
X039031Y009896D01*
X039068Y009859D01*
X039102Y009819D01*
X039133Y009777D01*
X039161Y009733D01*
X039186Y009687D01*
X039207Y009639D01*
X039224Y009589D01*
X039237Y009539D01*
X039247Y009487D01*
X039253Y009435D01*
X039255Y009383D01*
X039253Y009331D01*
X039247Y009279D01*
X039237Y009227D01*
X039224Y009177D01*
X039207Y009127D01*
X039186Y009079D01*
X039161Y009033D01*
X039133Y008989D01*
X039102Y008947D01*
X039068Y008907D01*
X039031Y008870D01*
X038991Y008836D01*
X038949Y008805D01*
X038905Y008777D01*
X038859Y008752D01*
X038811Y008731D01*
X038761Y008714D01*
X038711Y008701D01*
X038659Y008691D01*
X038607Y008685D01*
X038555Y008683D01*
X038503Y008685D01*
X038451Y008691D01*
X038399Y008701D01*
X038349Y008714D01*
X038299Y008731D01*
X038251Y008752D01*
X038205Y008777D01*
X038161Y008805D01*
X038119Y008836D01*
X038079Y008870D01*
X038042Y008907D01*
X038008Y008947D01*
X037977Y008989D01*
X037949Y009033D01*
X037924Y009079D01*
X037903Y009127D01*
X037886Y009177D01*
X037873Y009227D01*
X037863Y009279D01*
X037857Y009331D01*
X037855Y009383D01*
X040003Y007657D02*
X040034Y007619D01*
X040062Y007579D01*
X040086Y007537D01*
X040107Y007494D01*
X040124Y007448D01*
X040137Y007402D01*
X040147Y007354D01*
X040153Y007306D01*
X040155Y007258D01*
X039555Y006658D02*
X039508Y006660D01*
X039460Y006666D01*
X039414Y006675D01*
X039368Y006688D01*
X039324Y006704D01*
X039280Y006725D01*
X039239Y006748D01*
X039200Y006774D01*
X039163Y006804D01*
X039128Y006837D01*
X039096Y006872D01*
X039067Y006909D01*
X039555Y007858D02*
X039600Y007856D01*
X039646Y007851D01*
X039690Y007843D01*
X039734Y007831D01*
X039777Y007815D01*
X039819Y007797D01*
X039859Y007775D01*
X039897Y007751D01*
X039933Y007724D01*
X039968Y007694D01*
X039999Y007661D01*
X040029Y007626D01*
X038955Y007258D02*
X038957Y007211D01*
X038962Y007164D01*
X038972Y007118D01*
X038985Y007072D01*
X039001Y007028D01*
X039021Y006985D01*
X039044Y006944D01*
X039070Y006905D01*
X039099Y006868D01*
X038955Y007258D02*
X038957Y007304D01*
X038962Y007350D01*
X038971Y007396D01*
X038983Y007440D01*
X038999Y007484D01*
X039018Y007526D01*
X039040Y007567D01*
X039066Y007605D01*
X039094Y007642D01*
X039155Y007258D02*
X039157Y007297D01*
X039163Y007336D01*
X039172Y007374D01*
X039185Y007411D01*
X039202Y007447D01*
X039222Y007480D01*
X039246Y007512D01*
X039272Y007541D01*
X039301Y007567D01*
X039333Y007591D01*
X039366Y007611D01*
X039402Y007628D01*
X039439Y007641D01*
X039477Y007650D01*
X039516Y007656D01*
X039555Y007658D01*
X040155Y007258D02*
X040153Y007212D01*
X040148Y007166D01*
X040139Y007120D01*
X040127Y007076D01*
X040111Y007032D01*
X040092Y006990D01*
X040070Y006949D01*
X040044Y006911D01*
X040016Y006874D01*
X039555Y007858D02*
X039510Y007856D01*
X039464Y007851D01*
X039420Y007843D01*
X039376Y007831D01*
X039333Y007815D01*
X039291Y007797D01*
X039251Y007775D01*
X039213Y007751D01*
X039177Y007724D01*
X039142Y007694D01*
X039111Y007661D01*
X039081Y007626D01*
X039555Y006658D02*
X039601Y006660D01*
X039647Y006665D01*
X039693Y006674D01*
X039738Y006686D01*
X039781Y006702D01*
X039823Y006721D01*
X039864Y006744D01*
X039903Y006769D01*
X039939Y006797D01*
X039974Y006828D01*
X040006Y006862D01*
X040035Y006898D01*
X039555Y007508D02*
X039525Y007506D01*
X039495Y007501D01*
X039466Y007492D01*
X039439Y007479D01*
X039413Y007464D01*
X039389Y007445D01*
X039368Y007424D01*
X039349Y007400D01*
X039334Y007374D01*
X039321Y007347D01*
X039312Y007318D01*
X039307Y007288D01*
X039305Y007258D01*
X039555Y006858D02*
X039594Y006860D01*
X039633Y006866D01*
X039671Y006875D01*
X039708Y006888D01*
X039744Y006905D01*
X039777Y006925D01*
X039809Y006949D01*
X039838Y006975D01*
X039864Y007004D01*
X039888Y007036D01*
X039908Y007069D01*
X039925Y007105D01*
X039938Y007142D01*
X039947Y007180D01*
X039953Y007219D01*
X039955Y007258D01*
X039805Y007258D02*
X039803Y007228D01*
X039798Y007198D01*
X039789Y007169D01*
X039776Y007142D01*
X039761Y007116D01*
X039742Y007092D01*
X039721Y007071D01*
X039697Y007052D01*
X039671Y007037D01*
X039644Y007024D01*
X039615Y007015D01*
X039585Y007010D01*
X039555Y007008D01*
X025805Y012208D02*
X025805Y012808D01*
X025803Y012825D01*
X025799Y012842D01*
X025792Y012858D01*
X025782Y012872D01*
X025769Y012885D01*
X025755Y012895D01*
X025739Y012902D01*
X025722Y012906D01*
X025705Y012908D01*
X025555Y012908D01*
X025505Y012858D01*
X024105Y012858D01*
X024055Y012908D01*
X023905Y012908D01*
X023888Y012906D01*
X023871Y012902D01*
X023855Y012895D01*
X023841Y012885D01*
X023828Y012872D01*
X023818Y012858D01*
X023811Y012842D01*
X023807Y012825D01*
X023805Y012808D01*
X023805Y012208D01*
X023807Y012191D01*
X023811Y012174D01*
X023818Y012158D01*
X023828Y012144D01*
X023841Y012131D01*
X023855Y012121D01*
X023871Y012114D01*
X023888Y012110D01*
X023905Y012108D01*
X024055Y012108D01*
X024105Y012158D01*
X025505Y012158D01*
X025555Y012108D01*
X025705Y012108D01*
X025722Y012110D01*
X025739Y012114D01*
X025755Y012121D01*
X025769Y012131D01*
X025782Y012144D01*
X025792Y012158D01*
X025799Y012174D01*
X025803Y012191D01*
X025805Y012208D01*
X019480Y011358D02*
X019480Y011158D01*
X019380Y011158D01*
X019380Y011058D01*
X018980Y011058D01*
X018980Y011158D01*
X018880Y011158D01*
X018880Y011358D01*
X018980Y011358D01*
X018980Y011458D01*
X019380Y011458D01*
X019380Y011358D01*
X019480Y011358D01*
X019380Y010458D02*
X018980Y010458D01*
X018980Y010358D01*
X018880Y010358D01*
X018880Y010158D01*
X018980Y010158D01*
X018980Y010058D01*
X019380Y010058D01*
X019380Y010158D01*
X019480Y010158D01*
X019480Y010358D01*
X019380Y010358D01*
X019380Y010458D01*
X018555Y012883D02*
X018055Y012883D01*
X017805Y013133D01*
X017555Y012883D01*
X017055Y012883D01*
X016805Y013133D01*
X017805Y013133D02*
X017805Y013633D01*
X018055Y013883D01*
X018555Y013883D01*
X018805Y013633D01*
X018805Y013133D01*
X018555Y012883D01*
X017805Y013633D02*
X017555Y013883D01*
X017055Y013883D01*
X016805Y013633D01*
D11*
X016305Y013383D03*
X017305Y013383D03*
X018305Y013383D03*
X015305Y013383D03*
X014305Y013383D03*
X013305Y013383D03*
X012305Y013383D03*
X011305Y013383D03*
X010305Y013383D03*
X009305Y013383D03*
X008305Y013383D03*
X007305Y013383D03*
X006305Y013383D03*
X005305Y013383D03*
X004305Y013383D03*
X003305Y013383D03*
X001055Y011508D03*
X001055Y010508D03*
X025055Y002633D03*
D12*
X024195Y002633D02*
X024120Y002558D01*
X023970Y002558D01*
X023895Y002633D01*
X023895Y002784D02*
X024045Y002859D01*
X024120Y002859D01*
X024195Y002784D01*
X024195Y002633D01*
X023895Y002784D02*
X023895Y003009D01*
X024195Y003009D01*
X023734Y002934D02*
X023659Y003009D01*
X023509Y003009D01*
X023434Y002934D01*
X023434Y002633D01*
X023509Y002558D01*
X023659Y002558D01*
X023734Y002633D01*
X024485Y003378D02*
X024485Y003679D01*
X024485Y003529D02*
X024935Y003529D01*
X025074Y003609D02*
X025224Y003458D01*
X025374Y003609D01*
X025374Y003909D01*
X025534Y003909D02*
X025834Y003909D01*
X025684Y003909D02*
X025684Y003458D01*
X025995Y003684D02*
X026295Y003684D01*
X026220Y003909D02*
X026220Y003458D01*
X025995Y003684D02*
X026220Y003909D01*
X026881Y003708D02*
X027377Y003708D01*
X027483Y003708D01*
X028377Y003708D01*
X028483Y003708D01*
X028979Y003708D01*
X028884Y003320D02*
X028857Y003264D01*
X028826Y003210D01*
X028792Y003158D01*
X028755Y003108D01*
X027105Y003108D01*
X027070Y003156D01*
X027037Y003206D01*
X027007Y003257D01*
X026980Y003311D01*
X026881Y003708D02*
X026880Y003772D01*
X026883Y003836D01*
X026890Y003900D01*
X026900Y003963D01*
X026915Y004025D01*
X026933Y004086D01*
X026955Y004147D01*
X026980Y004205D01*
X026881Y003708D02*
X026886Y003649D01*
X026893Y003591D01*
X026904Y003533D01*
X026919Y003476D01*
X026936Y003420D01*
X026956Y003365D01*
X026980Y003311D01*
X028979Y003708D02*
X028980Y003772D01*
X028977Y003836D01*
X028970Y003900D01*
X028960Y003963D01*
X028945Y004025D01*
X028927Y004086D01*
X028905Y004147D01*
X028880Y004205D01*
X028979Y003708D02*
X028974Y003649D01*
X028967Y003591D01*
X028956Y003533D01*
X028941Y003476D01*
X028924Y003420D01*
X028904Y003365D01*
X028880Y003311D01*
X029305Y003009D02*
X029305Y002708D01*
X029380Y002633D01*
X029530Y002633D01*
X029605Y002708D01*
X029765Y002633D02*
X030066Y002633D01*
X029916Y002633D02*
X029916Y003084D01*
X029765Y002934D01*
X029605Y003009D02*
X029530Y003084D01*
X029380Y003084D01*
X029305Y003009D01*
X029255Y002484D02*
X029180Y002409D01*
X029180Y002108D01*
X029255Y002033D01*
X029405Y002033D01*
X029480Y002108D01*
X029640Y002033D02*
X029941Y002033D01*
X029791Y002033D02*
X029791Y002484D01*
X029640Y002334D01*
X029480Y002409D02*
X029405Y002484D01*
X029255Y002484D01*
X030101Y002484D02*
X030326Y002484D01*
X030401Y002409D01*
X030401Y002334D01*
X030326Y002259D01*
X030101Y002259D01*
X030101Y002484D02*
X030101Y002033D01*
X030326Y002033D01*
X030401Y002108D01*
X030401Y002184D01*
X030326Y002259D01*
X030561Y002259D02*
X030861Y002259D01*
X030861Y002409D02*
X030561Y002108D01*
X030711Y002108D02*
X030711Y002409D01*
X030561Y002409D02*
X030861Y002108D01*
X030526Y002708D02*
X030226Y003009D01*
X030376Y003009D02*
X030376Y002708D01*
X030226Y002708D02*
X030526Y003009D01*
X030526Y002859D02*
X030226Y002859D01*
X028880Y004205D02*
X028851Y004262D01*
X028818Y004318D01*
X028783Y004371D01*
X028743Y004422D01*
X028701Y004470D01*
X028656Y004516D01*
X028609Y004559D01*
X028559Y004599D01*
X028506Y004636D01*
X028451Y004669D01*
X028395Y004700D01*
X028336Y004726D01*
X028276Y004749D01*
X028215Y004769D01*
X028153Y004784D01*
X028090Y004796D01*
X028026Y004804D01*
X027962Y004808D01*
X027898Y004808D01*
X027834Y004804D01*
X027770Y004796D01*
X027707Y004784D01*
X027645Y004769D01*
X027584Y004749D01*
X027524Y004726D01*
X027465Y004700D01*
X027409Y004669D01*
X027354Y004636D01*
X027301Y004599D01*
X027251Y004559D01*
X027204Y004516D01*
X027159Y004470D01*
X027117Y004422D01*
X027077Y004371D01*
X027042Y004318D01*
X027009Y004262D01*
X026980Y004205D01*
X025074Y003909D02*
X025074Y003609D01*
X024935Y003839D02*
X024485Y003839D01*
X024485Y004139D01*
X024560Y004299D02*
X024635Y004299D01*
X024710Y004374D01*
X024710Y004524D01*
X024785Y004599D01*
X024860Y004599D01*
X024935Y004524D01*
X024935Y004374D01*
X024860Y004299D01*
X024935Y004139D02*
X024935Y003839D01*
X024710Y003839D02*
X024710Y003989D01*
X024560Y004299D02*
X024485Y004374D01*
X024485Y004524D01*
X024560Y004599D01*
X024485Y004760D02*
X024485Y005060D01*
X024485Y004910D02*
X024935Y004910D01*
X025010Y005220D02*
X025010Y005520D01*
X024935Y005680D02*
X024485Y005680D01*
X024485Y005906D01*
X024560Y005981D01*
X024710Y005981D01*
X024785Y005906D01*
X024785Y005680D01*
X024935Y006141D02*
X024935Y006291D01*
X024935Y006216D02*
X024485Y006216D01*
X024485Y006141D02*
X024485Y006291D01*
X024485Y006448D02*
X024935Y006748D01*
X024485Y006748D01*
X024485Y006448D02*
X024935Y006448D01*
X025705Y005559D02*
X025705Y005259D01*
X025855Y005108D01*
X026005Y005259D01*
X026005Y005559D01*
X026165Y005559D02*
X026466Y005559D01*
X026316Y005559D02*
X026316Y005108D01*
X026626Y005183D02*
X026701Y005108D01*
X026851Y005108D01*
X026926Y005183D01*
X026926Y005259D01*
X026851Y005334D01*
X026776Y005334D01*
X026851Y005334D02*
X026926Y005409D01*
X026926Y005484D01*
X026851Y005559D01*
X026701Y005559D01*
X026626Y005484D01*
X027256Y005558D02*
X027752Y005558D01*
X027858Y005558D01*
X028752Y005558D01*
X028858Y005558D01*
X029354Y005558D01*
X029130Y006158D02*
X027480Y006158D01*
X027443Y006108D01*
X027409Y006056D01*
X027378Y006002D01*
X027351Y005946D01*
X027355Y005061D02*
X027384Y005004D01*
X027417Y004948D01*
X027452Y004895D01*
X027492Y004844D01*
X027534Y004796D01*
X027579Y004750D01*
X027626Y004707D01*
X027676Y004667D01*
X027729Y004630D01*
X027784Y004597D01*
X027840Y004566D01*
X027899Y004540D01*
X027959Y004517D01*
X028020Y004497D01*
X028082Y004482D01*
X028145Y004470D01*
X028209Y004462D01*
X028273Y004458D01*
X028337Y004458D01*
X028401Y004462D01*
X028465Y004470D01*
X028528Y004482D01*
X028590Y004497D01*
X028651Y004517D01*
X028711Y004540D01*
X028770Y004566D01*
X028826Y004597D01*
X028881Y004630D01*
X028934Y004667D01*
X028984Y004707D01*
X029031Y004750D01*
X029076Y004796D01*
X029118Y004844D01*
X029158Y004895D01*
X029193Y004948D01*
X029226Y005004D01*
X029255Y005061D01*
X029255Y005955D02*
X029228Y006009D01*
X029198Y006060D01*
X029165Y006110D01*
X029130Y006158D01*
X027256Y005558D02*
X027255Y005494D01*
X027258Y005430D01*
X027265Y005366D01*
X027275Y005303D01*
X027290Y005241D01*
X027308Y005180D01*
X027330Y005119D01*
X027355Y005061D01*
X027256Y005558D02*
X027261Y005617D01*
X027268Y005675D01*
X027279Y005733D01*
X027294Y005790D01*
X027311Y005846D01*
X027331Y005901D01*
X027355Y005955D01*
X029255Y005955D02*
X029279Y005901D01*
X029299Y005846D01*
X029316Y005790D01*
X029331Y005733D01*
X029342Y005675D01*
X029349Y005617D01*
X029354Y005558D01*
X029355Y005494D01*
X029352Y005430D01*
X029345Y005366D01*
X029335Y005303D01*
X029320Y005241D01*
X029302Y005180D01*
X029280Y005119D01*
X029255Y005061D01*
X030810Y005259D02*
X030810Y004808D01*
X031110Y004808D01*
X031270Y004808D02*
X031571Y004808D01*
X031421Y004808D02*
X031421Y005259D01*
X031270Y005109D01*
X032640Y004133D02*
X032644Y004301D01*
X032656Y004468D01*
X032677Y004634D01*
X032706Y004799D01*
X032742Y004963D01*
X032787Y005124D01*
X032840Y005283D01*
X032900Y005440D01*
X032968Y005593D01*
X033043Y005743D01*
X033126Y005889D01*
X033216Y006030D01*
X033312Y006167D01*
X033415Y006299D01*
X033525Y006426D01*
X033640Y006548D01*
X033762Y006663D01*
X033889Y006773D01*
X034021Y006876D01*
X034158Y006972D01*
X034299Y007062D01*
X034445Y007145D01*
X034595Y007220D01*
X034748Y007288D01*
X034905Y007348D01*
X035064Y007401D01*
X035225Y007446D01*
X035389Y007482D01*
X035554Y007511D01*
X035720Y007532D01*
X035887Y007544D01*
X036055Y007548D01*
X036223Y007544D01*
X036390Y007532D01*
X036556Y007511D01*
X036721Y007482D01*
X036885Y007446D01*
X037046Y007401D01*
X037205Y007348D01*
X037362Y007288D01*
X037515Y007220D01*
X037665Y007145D01*
X037811Y007062D01*
X037952Y006972D01*
X038089Y006876D01*
X038221Y006773D01*
X038348Y006663D01*
X038470Y006548D01*
X038585Y006426D01*
X038695Y006299D01*
X038798Y006167D01*
X038894Y006030D01*
X038984Y005889D01*
X039067Y005743D01*
X039142Y005593D01*
X039210Y005440D01*
X039270Y005283D01*
X039323Y005124D01*
X039368Y004963D01*
X039404Y004799D01*
X039433Y004634D01*
X039454Y004468D01*
X039466Y004301D01*
X039470Y004133D01*
X039466Y003965D01*
X039454Y003798D01*
X039433Y003632D01*
X039404Y003467D01*
X039368Y003303D01*
X039323Y003142D01*
X039270Y002983D01*
X039210Y002826D01*
X039142Y002673D01*
X039067Y002523D01*
X038984Y002377D01*
X038894Y002236D01*
X038798Y002099D01*
X038695Y001967D01*
X038585Y001840D01*
X038470Y001718D01*
X038348Y001603D01*
X038221Y001493D01*
X038089Y001390D01*
X037952Y001294D01*
X037811Y001204D01*
X037665Y001121D01*
X037515Y001046D01*
X037362Y000978D01*
X037205Y000918D01*
X037046Y000865D01*
X036885Y000820D01*
X036721Y000784D01*
X036556Y000755D01*
X036390Y000734D01*
X036223Y000722D01*
X036055Y000718D01*
X035887Y000722D01*
X035720Y000734D01*
X035554Y000755D01*
X035389Y000784D01*
X035225Y000820D01*
X035064Y000865D01*
X034905Y000918D01*
X034748Y000978D01*
X034595Y001046D01*
X034445Y001121D01*
X034299Y001204D01*
X034158Y001294D01*
X034021Y001390D01*
X033889Y001493D01*
X033762Y001603D01*
X033640Y001718D01*
X033525Y001840D01*
X033415Y001967D01*
X033312Y002099D01*
X033216Y002236D01*
X033126Y002377D01*
X033043Y002523D01*
X032968Y002673D01*
X032900Y002826D01*
X032840Y002983D01*
X032787Y003142D01*
X032742Y003303D01*
X032706Y003467D01*
X032677Y003632D01*
X032656Y003798D01*
X032644Y003965D01*
X032640Y004133D01*
X032856Y004133D02*
X032860Y004290D01*
X032871Y004447D01*
X032891Y004602D01*
X032917Y004757D01*
X032952Y004910D01*
X032994Y005062D01*
X033043Y005211D01*
X033100Y005357D01*
X033163Y005501D01*
X033234Y005641D01*
X033311Y005778D01*
X033395Y005910D01*
X033486Y006039D01*
X033582Y006162D01*
X033685Y006281D01*
X033793Y006395D01*
X033907Y006503D01*
X034026Y006606D01*
X034149Y006702D01*
X034278Y006793D01*
X034410Y006877D01*
X034547Y006954D01*
X034687Y007025D01*
X034831Y007088D01*
X034977Y007145D01*
X035126Y007194D01*
X035278Y007236D01*
X035431Y007271D01*
X035586Y007297D01*
X035741Y007317D01*
X035898Y007328D01*
X036055Y007332D01*
X036212Y007328D01*
X036369Y007317D01*
X036524Y007297D01*
X036679Y007271D01*
X036832Y007236D01*
X036984Y007194D01*
X037133Y007145D01*
X037279Y007088D01*
X037423Y007025D01*
X037563Y006954D01*
X037700Y006877D01*
X037832Y006793D01*
X037961Y006702D01*
X038084Y006606D01*
X038203Y006503D01*
X038317Y006395D01*
X038425Y006281D01*
X038528Y006162D01*
X038624Y006039D01*
X038715Y005910D01*
X038799Y005778D01*
X038876Y005641D01*
X038947Y005501D01*
X039010Y005357D01*
X039067Y005211D01*
X039116Y005062D01*
X039158Y004910D01*
X039193Y004757D01*
X039219Y004602D01*
X039239Y004447D01*
X039250Y004290D01*
X039254Y004133D01*
X039250Y003976D01*
X039239Y003819D01*
X039219Y003664D01*
X039193Y003509D01*
X039158Y003356D01*
X039116Y003204D01*
X039067Y003055D01*
X039010Y002909D01*
X038947Y002765D01*
X038876Y002625D01*
X038799Y002488D01*
X038715Y002356D01*
X038624Y002227D01*
X038528Y002104D01*
X038425Y001985D01*
X038317Y001871D01*
X038203Y001763D01*
X038084Y001660D01*
X037961Y001564D01*
X037832Y001473D01*
X037700Y001389D01*
X037563Y001312D01*
X037423Y001241D01*
X037279Y001178D01*
X037133Y001121D01*
X036984Y001072D01*
X036832Y001030D01*
X036679Y000995D01*
X036524Y000969D01*
X036369Y000949D01*
X036212Y000938D01*
X036055Y000934D01*
X035898Y000938D01*
X035741Y000949D01*
X035586Y000969D01*
X035431Y000995D01*
X035278Y001030D01*
X035126Y001072D01*
X034977Y001121D01*
X034831Y001178D01*
X034687Y001241D01*
X034547Y001312D01*
X034410Y001389D01*
X034278Y001473D01*
X034149Y001564D01*
X034026Y001660D01*
X033907Y001763D01*
X033793Y001871D01*
X033685Y001985D01*
X033582Y002104D01*
X033486Y002227D01*
X033395Y002356D01*
X033311Y002488D01*
X033234Y002625D01*
X033163Y002765D01*
X033100Y002909D01*
X033043Y003055D01*
X032994Y003204D01*
X032952Y003356D01*
X032917Y003509D01*
X032891Y003664D01*
X032871Y003819D01*
X032860Y003976D01*
X032856Y004133D01*
X038105Y004117D02*
X038105Y003817D01*
X038555Y003817D01*
X038555Y004117D01*
X038555Y004277D02*
X038105Y004277D01*
X038105Y004502D01*
X038180Y004577D01*
X038480Y004577D01*
X038555Y004502D01*
X038555Y004277D01*
X038330Y003967D02*
X038330Y003817D01*
X038555Y003657D02*
X038555Y003356D01*
X038105Y003356D01*
X038630Y004738D02*
X038630Y005038D01*
X038330Y005348D02*
X038180Y005198D01*
X038105Y005198D01*
X038330Y005348D02*
X038555Y005348D01*
X038330Y005348D02*
X038180Y005498D01*
X038105Y005498D01*
X031380Y007283D02*
X031380Y007584D01*
X031380Y007744D02*
X031380Y008044D01*
X031380Y008204D02*
X031380Y008429D01*
X031305Y008504D01*
X031005Y008504D01*
X030930Y008429D01*
X030930Y008204D01*
X031380Y008204D01*
X031780Y008383D02*
X031855Y008308D01*
X032005Y008308D01*
X032080Y008383D01*
X032080Y008459D01*
X032005Y008534D01*
X031930Y008534D01*
X032005Y008534D02*
X032080Y008609D01*
X032080Y008684D01*
X032005Y008759D01*
X031855Y008759D01*
X031780Y008684D01*
X031455Y008665D02*
X031455Y008965D01*
X031305Y009125D02*
X031380Y009200D01*
X031380Y009350D01*
X031305Y009425D01*
X031155Y009425D01*
X031155Y009275D01*
X031005Y009125D02*
X031305Y009125D01*
X031005Y009125D02*
X030930Y009200D01*
X030930Y009350D01*
X031005Y009425D01*
X029930Y009344D02*
X029930Y009044D01*
X029930Y009194D02*
X029480Y009194D01*
X029630Y009044D01*
X029705Y008884D02*
X029780Y008809D01*
X029780Y008583D01*
X029930Y008583D02*
X029480Y008583D01*
X029480Y008809D01*
X029555Y008884D01*
X029705Y008884D01*
X029780Y008734D02*
X029930Y008884D01*
X028805Y008958D02*
X028355Y008958D01*
X028355Y009184D01*
X028430Y009259D01*
X028580Y009259D01*
X028655Y009184D01*
X028655Y008958D01*
X028655Y009109D02*
X028805Y009259D01*
X028805Y009419D02*
X028805Y009719D01*
X028805Y009569D02*
X028355Y009569D01*
X028505Y009419D01*
X028580Y009879D02*
X028580Y010179D01*
X028805Y010104D02*
X028355Y010104D01*
X028580Y009879D01*
X029480Y009729D02*
X029480Y009579D01*
X029555Y009504D01*
X029705Y009654D02*
X029705Y009729D01*
X029780Y009804D01*
X029855Y009804D01*
X029930Y009729D01*
X029930Y009579D01*
X029855Y009504D01*
X029705Y009729D02*
X029630Y009804D01*
X029555Y009804D01*
X029480Y009729D01*
X031880Y010058D02*
X032180Y010058D01*
X032030Y010058D02*
X032030Y010509D01*
X031880Y010359D01*
X032455Y010858D02*
X032380Y010933D01*
X032455Y010858D02*
X032605Y010858D01*
X032680Y010933D01*
X032680Y011009D01*
X032605Y011084D01*
X032455Y011084D01*
X032380Y011159D01*
X032380Y011234D01*
X032455Y011309D01*
X032605Y011309D01*
X032680Y011234D01*
X032840Y011234D02*
X032915Y011309D01*
X033066Y011309D01*
X033141Y011234D01*
X033141Y011159D01*
X032840Y010858D01*
X033141Y010858D01*
X034980Y010384D02*
X035055Y010459D01*
X035205Y010459D01*
X035280Y010384D01*
X035280Y010309D01*
X034980Y010008D01*
X035280Y010008D01*
X036880Y010058D02*
X037180Y010058D01*
X037030Y010058D02*
X037030Y010509D01*
X036880Y010359D01*
X037455Y010858D02*
X037380Y010933D01*
X037455Y010858D02*
X037605Y010858D01*
X037680Y010933D01*
X037680Y011009D01*
X037605Y011084D01*
X037455Y011084D01*
X037380Y011159D01*
X037380Y011234D01*
X037455Y011309D01*
X037605Y011309D01*
X037680Y011234D01*
X037840Y011234D02*
X037915Y011309D01*
X038066Y011309D01*
X038141Y011234D01*
X038141Y011159D01*
X038066Y011084D01*
X038141Y011009D01*
X038141Y010933D01*
X038066Y010858D01*
X037915Y010858D01*
X037840Y010933D01*
X037991Y011084D02*
X038066Y011084D01*
X038859Y011283D02*
X038934Y011208D01*
X039084Y011208D01*
X039159Y011283D01*
X039159Y011359D01*
X039084Y011434D01*
X038934Y011434D01*
X038859Y011509D01*
X038859Y011584D01*
X038934Y011659D01*
X039084Y011659D01*
X039159Y011584D01*
X039320Y011434D02*
X039620Y011434D01*
X039545Y011659D02*
X039320Y011434D01*
X039545Y011208D02*
X039545Y011659D01*
X039820Y012008D02*
X040120Y012008D01*
X039970Y012008D02*
X039970Y012459D01*
X039820Y012309D01*
X037020Y012359D02*
X036720Y012058D01*
X037020Y012058D01*
X037020Y012359D02*
X037020Y012434D01*
X036945Y012509D01*
X036795Y012509D01*
X036720Y012434D01*
X036255Y012408D02*
X036255Y012709D01*
X036255Y012869D02*
X035805Y012869D01*
X035805Y013169D01*
X035805Y013329D02*
X035805Y013554D01*
X035880Y013629D01*
X036180Y013629D01*
X036255Y013554D01*
X036255Y013329D01*
X035805Y013329D01*
X036255Y013169D02*
X036255Y012869D01*
X036030Y012869D02*
X036030Y013019D01*
X035205Y012509D02*
X034980Y012284D01*
X035280Y012284D01*
X035205Y012509D02*
X035205Y012058D01*
X035805Y012408D02*
X036255Y012408D01*
X036330Y013790D02*
X036330Y014090D01*
X036255Y014250D02*
X035805Y014250D01*
X035805Y014475D01*
X035880Y014550D01*
X036030Y014550D01*
X036105Y014475D01*
X036105Y014250D01*
X036105Y014400D02*
X036255Y014550D01*
X036720Y013984D02*
X036945Y014209D01*
X036945Y013758D01*
X037020Y013984D02*
X036720Y013984D01*
X035280Y014059D02*
X035280Y014134D01*
X035205Y014209D01*
X035055Y014209D01*
X034980Y014134D01*
X035280Y014059D02*
X034980Y013758D01*
X035280Y013758D01*
X033141Y014608D02*
X032840Y014608D01*
X032991Y014608D02*
X032991Y015059D01*
X032840Y014909D01*
X032680Y014984D02*
X032605Y015059D01*
X032455Y015059D01*
X032380Y014984D01*
X032380Y014909D01*
X032455Y014834D01*
X032605Y014834D01*
X032680Y014759D01*
X032680Y014683D01*
X032605Y014608D01*
X032455Y014608D01*
X032380Y014683D01*
X032030Y014259D02*
X032030Y013808D01*
X031880Y013808D02*
X032180Y013808D01*
X031880Y014109D02*
X032030Y014259D01*
X032005Y012509D02*
X032080Y012434D01*
X032080Y012359D01*
X032005Y012284D01*
X032080Y012209D01*
X032080Y012133D01*
X032005Y012058D01*
X031855Y012058D01*
X031780Y012133D01*
X031930Y012284D02*
X032005Y012284D01*
X031780Y012434D02*
X031855Y012509D01*
X032005Y012509D01*
X039920Y013833D02*
X039995Y013758D01*
X040145Y013758D01*
X040220Y013833D01*
X040220Y013909D01*
X040145Y013984D01*
X040070Y013984D01*
X040145Y013984D02*
X040220Y014059D01*
X040220Y014134D01*
X040145Y014209D01*
X039995Y014209D01*
X039920Y014134D01*
X040055Y010459D02*
X039980Y010384D01*
X040055Y010459D02*
X040205Y010459D01*
X040280Y010384D01*
X040280Y010309D01*
X039980Y010008D01*
X040280Y010008D01*
X040205Y008759D02*
X039980Y008534D01*
X040280Y008534D01*
X040205Y008759D02*
X040205Y008308D01*
X037080Y008383D02*
X037005Y008308D01*
X036855Y008308D01*
X036780Y008383D01*
X036930Y008534D02*
X037005Y008534D01*
X037080Y008459D01*
X037080Y008383D01*
X037005Y008534D02*
X037080Y008609D01*
X037080Y008684D01*
X037005Y008759D01*
X036855Y008759D01*
X036780Y008684D01*
X035280Y008534D02*
X034980Y008534D01*
X035205Y008759D01*
X035205Y008308D01*
X031380Y007744D02*
X030930Y007744D01*
X030930Y008044D01*
X031155Y007894D02*
X031155Y007744D01*
X030930Y007283D02*
X031380Y007283D01*
X022645Y004359D02*
X022645Y003908D01*
X022495Y003908D02*
X022795Y003908D01*
X022334Y003983D02*
X022334Y004134D01*
X022184Y004134D01*
X022034Y004284D02*
X022034Y003983D01*
X022109Y003908D01*
X022259Y003908D01*
X022334Y003983D01*
X021874Y003983D02*
X021874Y004059D01*
X021799Y004134D01*
X021649Y004134D01*
X021574Y004209D01*
X021574Y004284D01*
X021649Y004359D01*
X021799Y004359D01*
X021874Y004284D01*
X022034Y004284D02*
X022109Y004359D01*
X022259Y004359D01*
X022334Y004284D01*
X022495Y004209D02*
X022645Y004359D01*
X021874Y003983D02*
X021799Y003908D01*
X021649Y003908D01*
X021574Y003983D01*
X021445Y003384D02*
X021295Y003309D01*
X021145Y003159D01*
X021370Y003159D01*
X021445Y003084D01*
X021445Y003008D01*
X021370Y002933D01*
X021220Y002933D01*
X021145Y003008D01*
X021145Y003159D01*
X020984Y003309D02*
X020909Y003384D01*
X020759Y003384D01*
X020684Y003309D01*
X020684Y003008D01*
X020759Y002933D01*
X020909Y002933D01*
X020984Y003008D01*
X016695Y003059D02*
X016395Y002758D01*
X016395Y002683D01*
X016234Y002758D02*
X016159Y002683D01*
X016009Y002683D01*
X015934Y002758D01*
X015934Y003059D01*
X016009Y003134D01*
X016159Y003134D01*
X016234Y003059D01*
X016395Y003134D02*
X016695Y003134D01*
X016695Y003059D01*
X014441Y002884D02*
X014441Y002809D01*
X014366Y002734D01*
X014215Y002734D01*
X014140Y002809D01*
X014140Y002884D01*
X014215Y002959D01*
X014366Y002959D01*
X014441Y002884D01*
X014366Y002734D02*
X014441Y002659D01*
X014441Y002583D01*
X014366Y002508D01*
X014215Y002508D01*
X014140Y002583D01*
X014140Y002659D01*
X014215Y002734D01*
X013980Y002884D02*
X013905Y002959D01*
X013755Y002959D01*
X013680Y002884D01*
X013680Y002583D01*
X013755Y002508D01*
X013905Y002508D01*
X013980Y002583D01*
X013401Y002608D02*
X013326Y002533D01*
X013101Y002533D01*
X013101Y002984D01*
X013326Y002984D01*
X013401Y002909D01*
X013401Y002834D01*
X013326Y002759D01*
X013101Y002759D01*
X012941Y002834D02*
X012866Y002759D01*
X012715Y002759D01*
X012640Y002834D01*
X012640Y002909D01*
X012715Y002984D01*
X012866Y002984D01*
X012941Y002909D01*
X012941Y002834D01*
X012866Y002759D02*
X012941Y002684D01*
X012941Y002608D01*
X012866Y002533D01*
X012715Y002533D01*
X012640Y002608D01*
X012640Y002684D01*
X012715Y002759D01*
X012480Y002909D02*
X012405Y002984D01*
X012255Y002984D01*
X012180Y002909D01*
X012180Y002608D01*
X012255Y002533D01*
X012405Y002533D01*
X012480Y002608D01*
X013326Y002759D02*
X013401Y002684D01*
X013401Y002608D01*
X017980Y005010D02*
X017980Y005160D01*
X017980Y005085D02*
X018430Y005085D01*
X018430Y005010D02*
X018430Y005160D01*
X018355Y005317D02*
X018055Y005317D01*
X017980Y005392D01*
X017980Y005542D01*
X018055Y005617D01*
X018055Y005777D02*
X018130Y005777D01*
X018205Y005852D01*
X018205Y006002D01*
X018280Y006077D01*
X018355Y006077D01*
X018430Y006002D01*
X018430Y005852D01*
X018355Y005777D01*
X018355Y005617D02*
X018430Y005542D01*
X018430Y005392D01*
X018355Y005317D01*
X018055Y005777D02*
X017980Y005852D01*
X017980Y006002D01*
X018055Y006077D01*
X017980Y006238D02*
X017980Y006463D01*
X018055Y006538D01*
X018205Y006538D01*
X018280Y006463D01*
X018280Y006238D01*
X018430Y006238D02*
X017980Y006238D01*
X017596Y006447D02*
X017493Y006165D01*
X017313Y006550D01*
X017243Y006575D01*
X017147Y006531D01*
X017095Y006390D01*
X017140Y006293D01*
X017085Y006143D02*
X016989Y006098D01*
X016938Y005957D01*
X016983Y005861D01*
X017265Y005758D01*
X017361Y005803D01*
X017412Y005944D01*
X017368Y006040D01*
X017580Y006623D02*
X017676Y006668D01*
X017727Y006809D01*
X017682Y006905D01*
X017612Y006931D01*
X017516Y006886D01*
X017490Y006816D01*
X017516Y006886D02*
X017471Y006982D01*
X017400Y007008D01*
X017304Y006963D01*
X017253Y006822D01*
X017298Y006726D01*
X017980Y006848D02*
X018130Y006698D01*
X017980Y006848D02*
X018430Y006848D01*
X018430Y006698D02*
X018430Y006998D01*
X019805Y006323D02*
X019880Y006173D01*
X020030Y006023D01*
X020030Y006248D01*
X020105Y006323D01*
X020180Y006323D01*
X020255Y006248D01*
X020255Y006098D01*
X020180Y006023D01*
X020030Y006023D01*
X016479Y007058D02*
X015983Y007058D01*
X015877Y007058D01*
X014983Y007058D01*
X014877Y007058D01*
X014381Y007058D01*
X014476Y007446D02*
X014503Y007502D01*
X014534Y007556D01*
X014568Y007608D01*
X014605Y007658D01*
X016255Y007658D01*
X016290Y007610D01*
X016323Y007560D01*
X016353Y007509D01*
X016380Y007455D01*
X016479Y007058D02*
X016480Y006994D01*
X016477Y006930D01*
X016470Y006866D01*
X016460Y006803D01*
X016445Y006741D01*
X016427Y006680D01*
X016405Y006619D01*
X016380Y006561D01*
X016479Y007058D02*
X016474Y007117D01*
X016467Y007175D01*
X016456Y007233D01*
X016441Y007290D01*
X016424Y007346D01*
X016404Y007401D01*
X016380Y007455D01*
X014381Y007058D02*
X014380Y006994D01*
X014383Y006930D01*
X014390Y006866D01*
X014400Y006803D01*
X014415Y006741D01*
X014433Y006680D01*
X014455Y006619D01*
X014480Y006561D01*
X014381Y007058D02*
X014386Y007117D01*
X014393Y007175D01*
X014404Y007233D01*
X014419Y007290D01*
X014436Y007346D01*
X014456Y007401D01*
X014480Y007455D01*
X014480Y006561D02*
X014509Y006504D01*
X014542Y006448D01*
X014577Y006395D01*
X014617Y006344D01*
X014659Y006296D01*
X014704Y006250D01*
X014751Y006207D01*
X014801Y006167D01*
X014854Y006130D01*
X014909Y006097D01*
X014965Y006066D01*
X015024Y006040D01*
X015084Y006017D01*
X015145Y005997D01*
X015207Y005982D01*
X015270Y005970D01*
X015334Y005962D01*
X015398Y005958D01*
X015462Y005958D01*
X015526Y005962D01*
X015590Y005970D01*
X015653Y005982D01*
X015715Y005997D01*
X015776Y006017D01*
X015836Y006040D01*
X015895Y006066D01*
X015951Y006097D01*
X016006Y006130D01*
X016059Y006167D01*
X016109Y006207D01*
X016156Y006250D01*
X016201Y006296D01*
X016243Y006344D01*
X016283Y006395D01*
X016318Y006448D01*
X016351Y006504D01*
X016380Y006561D01*
X015970Y005784D02*
X015820Y005784D01*
X015745Y005709D01*
X015584Y005784D02*
X015284Y005784D01*
X015434Y005784D02*
X015434Y005333D01*
X015745Y005333D02*
X016045Y005634D01*
X016045Y005709D01*
X015970Y005784D01*
X015124Y005784D02*
X015124Y005484D01*
X014974Y005333D01*
X014824Y005484D01*
X014824Y005784D01*
X015745Y005333D02*
X016045Y005333D01*
X012630Y008283D02*
X012630Y008584D01*
X012630Y008434D02*
X012180Y008434D01*
X012330Y008283D01*
X011780Y008809D02*
X011630Y008658D01*
X011330Y008658D01*
X011630Y008959D02*
X011780Y008809D01*
X011630Y008959D02*
X011330Y008959D01*
X011330Y009119D02*
X011330Y009419D01*
X011330Y009269D02*
X011780Y009269D01*
X012180Y009309D02*
X012180Y009158D01*
X012255Y009083D01*
X012330Y009384D02*
X012630Y009083D01*
X012630Y009384D01*
X012330Y009384D02*
X012255Y009384D01*
X012180Y009309D01*
X011780Y009579D02*
X011780Y009879D01*
X011780Y009729D02*
X011330Y009729D01*
X011480Y009579D01*
X012180Y010058D02*
X012255Y009983D01*
X012180Y010058D02*
X012180Y010209D01*
X012255Y010284D01*
X012330Y010284D01*
X012405Y010209D01*
X012480Y010284D01*
X012555Y010284D01*
X012630Y010209D01*
X012630Y010058D01*
X012555Y009983D01*
X012405Y010134D02*
X012405Y010209D01*
X009245Y011633D02*
X008945Y011934D01*
X009095Y011934D02*
X009095Y011633D01*
X008945Y011633D02*
X009245Y011934D01*
X009245Y011784D02*
X008945Y011784D01*
X008634Y012009D02*
X008634Y011558D01*
X008484Y011558D02*
X008784Y011558D01*
X008324Y011558D02*
X008024Y011558D01*
X008174Y011558D02*
X008174Y012009D01*
X008024Y011859D01*
X007864Y011934D02*
X007864Y011784D01*
X007789Y011709D01*
X007563Y011709D01*
X007714Y011709D02*
X007864Y011558D01*
X007563Y011558D02*
X007563Y012009D01*
X007789Y012009D01*
X007864Y011934D01*
X008484Y011859D02*
X008634Y012009D01*
X004245Y012258D02*
X004170Y012183D01*
X004020Y012183D01*
X003945Y012258D01*
X004245Y012559D01*
X004245Y012258D01*
X003945Y012258D02*
X003945Y012559D01*
X004020Y012634D01*
X004170Y012634D01*
X004245Y012559D01*
X003784Y012559D02*
X003784Y012484D01*
X003484Y012183D01*
X003784Y012183D01*
X003324Y012258D02*
X003249Y012183D01*
X003099Y012183D01*
X003024Y012258D01*
X003024Y012559D01*
X003099Y012634D01*
X003249Y012634D01*
X003324Y012559D01*
X003484Y012559D02*
X003559Y012634D01*
X003709Y012634D01*
X003784Y012559D01*
X003721Y014128D02*
X003946Y014128D01*
X004021Y014203D01*
X004021Y014504D01*
X003946Y014579D01*
X003721Y014579D01*
X003721Y014128D01*
X003561Y014203D02*
X003486Y014128D01*
X003335Y014128D01*
X003260Y014203D01*
X003260Y014504D01*
X003335Y014579D01*
X003486Y014579D01*
X003561Y014504D01*
X003100Y014128D02*
X002800Y014128D01*
X002800Y014579D01*
X001450Y009764D02*
X001450Y009464D01*
X001300Y009313D01*
X001150Y009464D01*
X001150Y009764D01*
X000989Y009689D02*
X000914Y009764D01*
X000764Y009764D01*
X000689Y009689D01*
X000839Y009539D02*
X000914Y009539D01*
X000989Y009464D01*
X000989Y009388D01*
X000914Y009313D01*
X000764Y009313D01*
X000689Y009388D01*
X000529Y009539D02*
X000229Y009539D01*
X000379Y009689D02*
X000379Y009388D01*
X000914Y009539D02*
X000989Y009614D01*
X000989Y009689D01*
X000730Y008134D02*
X000655Y008134D01*
X000580Y008059D01*
X000580Y007833D01*
X000730Y007833D01*
X000805Y007908D01*
X000805Y008059D01*
X000730Y008134D01*
X000430Y007984D02*
X000580Y007833D01*
X000430Y007984D02*
X000355Y008134D01*
X002430Y006072D02*
X002505Y006147D01*
X002805Y005847D01*
X002880Y005922D01*
X002880Y006072D01*
X002805Y006147D01*
X002505Y006147D01*
X002430Y006072D02*
X002430Y005922D01*
X002505Y005847D01*
X002805Y005847D01*
X002655Y005686D02*
X002730Y005611D01*
X002730Y005386D01*
X002880Y005386D02*
X002430Y005386D01*
X002430Y005611D01*
X002505Y005686D01*
X002655Y005686D01*
X002730Y005226D02*
X002805Y005226D01*
X002880Y005151D01*
X002880Y005001D01*
X002805Y004926D01*
X002805Y004766D02*
X002880Y004691D01*
X002880Y004540D01*
X002805Y004465D01*
X002505Y004465D01*
X002430Y004540D01*
X002430Y004691D01*
X002505Y004766D01*
X002505Y004926D02*
X002580Y004926D01*
X002655Y005001D01*
X002655Y005151D01*
X002730Y005226D01*
X002505Y005226D02*
X002430Y005151D01*
X002430Y005001D01*
X002505Y004926D01*
X002430Y004309D02*
X002430Y004158D01*
X002430Y004233D02*
X002880Y004233D01*
X002880Y004158D02*
X002880Y004309D01*
X000805Y003134D02*
X000805Y002833D01*
X000805Y002984D02*
X000355Y002984D01*
X000505Y002833D01*
X017481Y010737D02*
X017763Y010635D01*
X017481Y010737D02*
X017866Y010917D01*
X017891Y010987D01*
X017846Y011083D01*
X017705Y011135D01*
X017609Y011090D01*
X017459Y011145D02*
X017356Y010863D01*
X017260Y010818D01*
X017048Y010895D01*
X017202Y011318D01*
X017414Y011241D01*
X017459Y011145D01*
X017052Y011373D02*
X016949Y011091D01*
X016756Y011001D01*
X016667Y011193D01*
X016769Y011475D01*
X019805Y011173D02*
X019955Y011023D01*
X019805Y011173D02*
X020255Y011173D01*
X020255Y011023D02*
X020255Y011323D01*
D13*
X000191Y014336D02*
X000191Y000241D01*
X031609Y000241D01*
X031609Y014336D01*
X000191Y014336D01*
X003027Y010133D02*
X003029Y010233D01*
X003037Y010332D01*
X003049Y010431D01*
X003066Y010529D01*
X003088Y010626D01*
X003114Y010722D01*
X003146Y010816D01*
X003181Y010909D01*
X003222Y011000D01*
X003266Y011089D01*
X003316Y011176D01*
X003369Y011260D01*
X003426Y011341D01*
X003487Y011420D01*
X003552Y011495D01*
X003621Y011567D01*
X003693Y011636D01*
X003768Y011701D01*
X003847Y011762D01*
X003928Y011819D01*
X004012Y011872D01*
X004099Y011922D01*
X004188Y011966D01*
X004279Y012007D01*
X004372Y012042D01*
X004466Y012074D01*
X004562Y012100D01*
X004659Y012122D01*
X004757Y012139D01*
X004856Y012151D01*
X004955Y012159D01*
X005055Y012161D01*
X005155Y012159D01*
X005254Y012151D01*
X005353Y012139D01*
X005451Y012122D01*
X005548Y012100D01*
X005644Y012074D01*
X005738Y012042D01*
X005831Y012007D01*
X005922Y011966D01*
X006011Y011922D01*
X006098Y011872D01*
X006182Y011819D01*
X006263Y011762D01*
X006342Y011701D01*
X006417Y011636D01*
X006489Y011567D01*
X006558Y011495D01*
X006623Y011420D01*
X006684Y011341D01*
X006741Y011260D01*
X006794Y011176D01*
X006844Y011089D01*
X006888Y011000D01*
X006929Y010909D01*
X006964Y010816D01*
X006996Y010722D01*
X007022Y010626D01*
X007044Y010529D01*
X007061Y010431D01*
X007073Y010332D01*
X007081Y010233D01*
X007083Y010133D01*
X007081Y010033D01*
X007073Y009934D01*
X007061Y009835D01*
X007044Y009737D01*
X007022Y009640D01*
X006996Y009544D01*
X006964Y009450D01*
X006929Y009357D01*
X006888Y009266D01*
X006844Y009177D01*
X006794Y009090D01*
X006741Y009006D01*
X006684Y008925D01*
X006623Y008846D01*
X006558Y008771D01*
X006489Y008699D01*
X006417Y008630D01*
X006342Y008565D01*
X006263Y008504D01*
X006182Y008447D01*
X006098Y008394D01*
X006011Y008344D01*
X005922Y008300D01*
X005831Y008259D01*
X005738Y008224D01*
X005644Y008192D01*
X005548Y008166D01*
X005451Y008144D01*
X005353Y008127D01*
X005254Y008115D01*
X005155Y008107D01*
X005055Y008105D01*
X004955Y008107D01*
X004856Y008115D01*
X004757Y008127D01*
X004659Y008144D01*
X004562Y008166D01*
X004466Y008192D01*
X004372Y008224D01*
X004279Y008259D01*
X004188Y008300D01*
X004099Y008344D01*
X004012Y008394D01*
X003928Y008447D01*
X003847Y008504D01*
X003768Y008565D01*
X003693Y008630D01*
X003621Y008699D01*
X003552Y008771D01*
X003487Y008846D01*
X003426Y008925D01*
X003369Y009006D01*
X003316Y009090D01*
X003266Y009177D01*
X003222Y009266D01*
X003181Y009357D01*
X003146Y009450D01*
X003114Y009544D01*
X003088Y009640D01*
X003066Y009737D01*
X003049Y009835D01*
X003037Y009934D01*
X003029Y010033D01*
X003027Y010133D01*
X007930Y004196D02*
X007930Y003196D01*
X007930Y002196D01*
X007930Y003196D02*
X007680Y003196D01*
X007930Y003196D02*
X008180Y003196D01*
X024671Y009509D02*
X024680Y009758D01*
X025679Y009724D01*
X024680Y009758D02*
X023681Y009793D01*
X024680Y009758D02*
X024689Y010008D01*
D14*
X024625Y010266D02*
X024630Y010416D01*
X024553Y010343D01*
X024653Y010340D01*
X024507Y010395D02*
X024483Y010421D01*
X024433Y010423D01*
X024407Y010398D01*
X024404Y010298D01*
X024428Y010273D01*
X024478Y010271D01*
X024504Y010295D01*
X008585Y003429D02*
X008585Y003379D01*
X008560Y003354D01*
X008560Y003306D02*
X008585Y003281D01*
X008585Y003231D01*
X008560Y003206D01*
X008460Y003206D01*
X008435Y003231D01*
X008435Y003281D01*
X008460Y003306D01*
X008460Y003354D02*
X008435Y003379D01*
X008435Y003429D01*
X008460Y003454D01*
X008485Y003454D01*
X008510Y003429D01*
X008535Y003454D01*
X008560Y003454D01*
X008585Y003429D01*
X008510Y003429D02*
X008510Y003404D01*
D15*
X001630Y003008D03*
X001230Y003008D03*
X001230Y004008D03*
X001630Y004008D03*
X001630Y005008D03*
X001230Y005008D03*
X001230Y006008D03*
X001630Y006008D03*
X001630Y007008D03*
X001230Y007008D03*
X001230Y008008D03*
X001630Y008008D03*
X018980Y008258D03*
X019380Y008258D03*
X019380Y007258D03*
X018980Y007258D03*
X018980Y006258D03*
X019380Y006258D03*
X019380Y009258D03*
X018980Y009258D03*
X018980Y010258D03*
X019380Y010258D03*
X019380Y011258D03*
X018980Y011258D03*
D16*
X010680Y011758D02*
X010280Y011758D01*
X007080Y011758D02*
X006680Y011758D01*
X028680Y011883D02*
X028680Y011483D01*
X029680Y011633D02*
X029680Y011233D01*
X028680Y008283D02*
X028680Y007883D01*
X029680Y008033D02*
X029680Y007633D01*
X030930Y004133D02*
X030930Y003783D01*
X030930Y003733D02*
X030930Y003533D01*
X030930Y003483D02*
X030930Y003133D01*
D17*
X010100Y011758D03*
X007260Y011758D03*
D18*
X028680Y011303D03*
X029680Y011053D03*
X028680Y008463D03*
X029680Y008213D03*
D19*
X033055Y008283D02*
X033055Y008183D01*
X033055Y008283D02*
X034005Y008283D01*
X034005Y008183D01*
X034055Y008883D02*
X033055Y008883D01*
X033055Y009883D01*
X034055Y009883D01*
X034055Y008883D01*
X033305Y009383D02*
X033307Y009414D01*
X033313Y009445D01*
X033323Y009475D01*
X033336Y009503D01*
X033353Y009530D01*
X033373Y009554D01*
X033396Y009576D01*
X033421Y009594D01*
X033449Y009609D01*
X033478Y009621D01*
X033508Y009629D01*
X033539Y009633D01*
X033571Y009633D01*
X033602Y009629D01*
X033632Y009621D01*
X033661Y009609D01*
X033689Y009594D01*
X033714Y009576D01*
X033737Y009554D01*
X033757Y009530D01*
X033774Y009503D01*
X033787Y009475D01*
X033797Y009445D01*
X033803Y009414D01*
X033805Y009383D01*
X033803Y009352D01*
X033797Y009321D01*
X033787Y009291D01*
X033774Y009263D01*
X033757Y009236D01*
X033737Y009212D01*
X033714Y009190D01*
X033689Y009172D01*
X033661Y009157D01*
X033632Y009145D01*
X033602Y009137D01*
X033571Y009133D01*
X033539Y009133D01*
X033508Y009137D01*
X033478Y009145D01*
X033449Y009157D01*
X033421Y009172D01*
X033396Y009190D01*
X033373Y009212D01*
X033353Y009236D01*
X033336Y009263D01*
X033323Y009291D01*
X033313Y009321D01*
X033307Y009352D01*
X033305Y009383D01*
X033055Y010483D02*
X034055Y010483D01*
X034055Y010583D01*
X033055Y010583D02*
X033055Y010483D01*
X033055Y011933D02*
X033055Y012033D01*
X034005Y012033D01*
X034005Y011933D01*
X034055Y012633D02*
X033055Y012633D01*
X033055Y013633D01*
X034055Y013633D01*
X034055Y012633D01*
X033305Y013133D02*
X033307Y013164D01*
X033313Y013195D01*
X033323Y013225D01*
X033336Y013253D01*
X033353Y013280D01*
X033373Y013304D01*
X033396Y013326D01*
X033421Y013344D01*
X033449Y013359D01*
X033478Y013371D01*
X033508Y013379D01*
X033539Y013383D01*
X033571Y013383D01*
X033602Y013379D01*
X033632Y013371D01*
X033661Y013359D01*
X033689Y013344D01*
X033714Y013326D01*
X033737Y013304D01*
X033757Y013280D01*
X033774Y013253D01*
X033787Y013225D01*
X033797Y013195D01*
X033803Y013164D01*
X033805Y013133D01*
X033803Y013102D01*
X033797Y013071D01*
X033787Y013041D01*
X033774Y013013D01*
X033757Y012986D01*
X033737Y012962D01*
X033714Y012940D01*
X033689Y012922D01*
X033661Y012907D01*
X033632Y012895D01*
X033602Y012887D01*
X033571Y012883D01*
X033539Y012883D01*
X033508Y012887D01*
X033478Y012895D01*
X033449Y012907D01*
X033421Y012922D01*
X033396Y012940D01*
X033373Y012962D01*
X033353Y012986D01*
X033336Y013013D01*
X033323Y013041D01*
X033313Y013071D01*
X033307Y013102D01*
X033305Y013133D01*
X033055Y014233D02*
X034055Y014233D01*
X034055Y014333D01*
X033055Y014333D02*
X033055Y014233D01*
X038055Y013633D02*
X038055Y012633D01*
X039055Y012633D01*
X039055Y013633D01*
X038055Y013633D01*
X038305Y013133D02*
X038307Y013164D01*
X038313Y013195D01*
X038323Y013225D01*
X038336Y013253D01*
X038353Y013280D01*
X038373Y013304D01*
X038396Y013326D01*
X038421Y013344D01*
X038449Y013359D01*
X038478Y013371D01*
X038508Y013379D01*
X038539Y013383D01*
X038571Y013383D01*
X038602Y013379D01*
X038632Y013371D01*
X038661Y013359D01*
X038689Y013344D01*
X038714Y013326D01*
X038737Y013304D01*
X038757Y013280D01*
X038774Y013253D01*
X038787Y013225D01*
X038797Y013195D01*
X038803Y013164D01*
X038805Y013133D01*
X038803Y013102D01*
X038797Y013071D01*
X038787Y013041D01*
X038774Y013013D01*
X038757Y012986D01*
X038737Y012962D01*
X038714Y012940D01*
X038689Y012922D01*
X038661Y012907D01*
X038632Y012895D01*
X038602Y012887D01*
X038571Y012883D01*
X038539Y012883D01*
X038508Y012887D01*
X038478Y012895D01*
X038449Y012907D01*
X038421Y012922D01*
X038396Y012940D01*
X038373Y012962D01*
X038353Y012986D01*
X038336Y013013D01*
X038323Y013041D01*
X038313Y013071D01*
X038307Y013102D01*
X038305Y013133D01*
X038105Y014233D02*
X038105Y014333D01*
X038105Y014233D02*
X039055Y014233D01*
X039055Y014333D01*
X039055Y012033D02*
X038055Y012033D01*
X038055Y011933D01*
X039055Y011933D02*
X039055Y012033D01*
X039055Y010583D02*
X039055Y010483D01*
X038055Y010483D01*
X038055Y010583D01*
X038055Y009883D02*
X039055Y009883D01*
X039055Y008883D01*
X038055Y008883D01*
X038055Y009883D01*
X038305Y009383D02*
X038307Y009414D01*
X038313Y009445D01*
X038323Y009475D01*
X038336Y009503D01*
X038353Y009530D01*
X038373Y009554D01*
X038396Y009576D01*
X038421Y009594D01*
X038449Y009609D01*
X038478Y009621D01*
X038508Y009629D01*
X038539Y009633D01*
X038571Y009633D01*
X038602Y009629D01*
X038632Y009621D01*
X038661Y009609D01*
X038689Y009594D01*
X038714Y009576D01*
X038737Y009554D01*
X038757Y009530D01*
X038774Y009503D01*
X038787Y009475D01*
X038797Y009445D01*
X038803Y009414D01*
X038805Y009383D01*
X038803Y009352D01*
X038797Y009321D01*
X038787Y009291D01*
X038774Y009263D01*
X038757Y009236D01*
X038737Y009212D01*
X038714Y009190D01*
X038689Y009172D01*
X038661Y009157D01*
X038632Y009145D01*
X038602Y009137D01*
X038571Y009133D01*
X038539Y009133D01*
X038508Y009137D01*
X038478Y009145D01*
X038449Y009157D01*
X038421Y009172D01*
X038396Y009190D01*
X038373Y009212D01*
X038353Y009236D01*
X038336Y009263D01*
X038323Y009291D01*
X038313Y009321D01*
X038307Y009352D01*
X038305Y009383D01*
X038055Y008283D02*
X038055Y008183D01*
X038055Y008283D02*
X039005Y008283D01*
X039005Y008183D01*
D20*
X038935Y007758D02*
X038935Y006758D01*
X039555Y006458D02*
X039609Y006460D01*
X039663Y006465D01*
X039716Y006474D01*
X039769Y006487D01*
X039820Y006503D01*
X039870Y006523D01*
X039919Y006546D01*
X039967Y006572D01*
X040012Y006601D01*
X040055Y006634D01*
X040096Y006669D01*
X040135Y006707D01*
X040171Y006747D01*
X040204Y006790D01*
X040234Y006835D01*
X040261Y006882D01*
X040250Y007655D02*
X040220Y007703D01*
X040187Y007748D01*
X040151Y007791D01*
X040113Y007832D01*
X040071Y007869D01*
X040027Y007904D01*
X039981Y007935D01*
X039932Y007964D01*
X039882Y007988D01*
X039830Y008009D01*
X039776Y008027D01*
X039722Y008040D01*
X039667Y008050D01*
X039611Y008056D01*
X039555Y008058D01*
X040236Y007677D02*
X040264Y007629D01*
X040288Y007580D01*
X040308Y007528D01*
X040325Y007476D01*
X040338Y007422D01*
X040347Y007368D01*
X040353Y007313D01*
X040355Y007258D01*
X040353Y007202D01*
X040347Y007145D01*
X040337Y007090D01*
X040323Y007035D01*
X040306Y006982D01*
X040284Y006929D01*
X040259Y006879D01*
X039555Y006458D02*
X039501Y006460D01*
X039448Y006465D01*
X039394Y006474D01*
X039342Y006487D01*
X039291Y006503D01*
X039240Y006523D01*
X039191Y006545D01*
X039144Y006571D01*
X039099Y006601D01*
X039056Y006633D01*
X039015Y006668D01*
X038976Y006706D01*
X038940Y006746D01*
X038944Y007775D02*
X038980Y007814D01*
X039019Y007852D01*
X039059Y007886D01*
X039102Y007918D01*
X039147Y007946D01*
X039194Y007972D01*
X039243Y007995D01*
X039293Y008014D01*
X039344Y008030D01*
X039396Y008042D01*
X039448Y008051D01*
X039502Y008056D01*
X039555Y008058D01*
X033175Y007758D02*
X033175Y006758D01*
X031874Y006839D02*
X031846Y006887D01*
X031822Y006936D01*
X031802Y006988D01*
X031785Y007040D01*
X031772Y007094D01*
X031763Y007148D01*
X031757Y007203D01*
X031755Y007258D01*
X031860Y006861D02*
X031890Y006813D01*
X031923Y006768D01*
X031959Y006725D01*
X031997Y006684D01*
X032039Y006647D01*
X032083Y006612D01*
X032129Y006581D01*
X032178Y006552D01*
X032228Y006528D01*
X032280Y006507D01*
X032334Y006489D01*
X032388Y006476D01*
X032443Y006466D01*
X032499Y006460D01*
X032555Y006458D01*
X031755Y007258D02*
X031757Y007314D01*
X031763Y007371D01*
X031773Y007426D01*
X031787Y007481D01*
X031804Y007534D01*
X031826Y007587D01*
X031851Y007637D01*
X032555Y008058D02*
X032609Y008056D01*
X032662Y008051D01*
X032716Y008042D01*
X032768Y008029D01*
X032819Y008013D01*
X032870Y007993D01*
X032919Y007971D01*
X032966Y007945D01*
X033011Y007915D01*
X033054Y007883D01*
X033095Y007848D01*
X033134Y007810D01*
X033170Y007770D01*
X032555Y008058D02*
X032501Y008056D01*
X032447Y008051D01*
X032394Y008042D01*
X032341Y008029D01*
X032290Y008013D01*
X032240Y007993D01*
X032191Y007970D01*
X032143Y007944D01*
X032098Y007915D01*
X032055Y007882D01*
X032014Y007847D01*
X031975Y007809D01*
X031939Y007769D01*
X031906Y007726D01*
X031876Y007681D01*
X031849Y007634D01*
X032555Y006458D02*
X032608Y006460D01*
X032662Y006465D01*
X032714Y006474D01*
X032766Y006486D01*
X032817Y006502D01*
X032867Y006521D01*
X032916Y006544D01*
X032963Y006570D01*
X033008Y006598D01*
X033051Y006630D01*
X033091Y006664D01*
X033130Y006702D01*
X033166Y006741D01*
X036675Y010883D02*
X036675Y011883D01*
X036055Y012183D02*
X036001Y012181D01*
X035947Y012176D01*
X035894Y012167D01*
X035841Y012154D01*
X035790Y012138D01*
X035740Y012118D01*
X035691Y012095D01*
X035643Y012069D01*
X035598Y012040D01*
X035555Y012007D01*
X035514Y011972D01*
X035475Y011934D01*
X035439Y011894D01*
X035406Y011851D01*
X035376Y011806D01*
X035349Y011759D01*
X035360Y010986D02*
X035390Y010938D01*
X035423Y010893D01*
X035459Y010850D01*
X035497Y010809D01*
X035539Y010772D01*
X035583Y010737D01*
X035629Y010706D01*
X035678Y010677D01*
X035728Y010653D01*
X035780Y010632D01*
X035834Y010614D01*
X035888Y010601D01*
X035943Y010591D01*
X035999Y010585D01*
X036055Y010583D01*
X035374Y010964D02*
X035346Y011012D01*
X035322Y011061D01*
X035302Y011113D01*
X035285Y011165D01*
X035272Y011219D01*
X035263Y011273D01*
X035257Y011328D01*
X035255Y011383D01*
X035257Y011439D01*
X035263Y011496D01*
X035273Y011551D01*
X035287Y011606D01*
X035304Y011659D01*
X035326Y011712D01*
X035351Y011762D01*
X036055Y012183D02*
X036109Y012181D01*
X036162Y012176D01*
X036216Y012167D01*
X036268Y012154D01*
X036319Y012138D01*
X036370Y012118D01*
X036419Y012096D01*
X036466Y012070D01*
X036511Y012040D01*
X036554Y012008D01*
X036595Y011973D01*
X036634Y011935D01*
X036670Y011895D01*
X036666Y010866D02*
X036630Y010827D01*
X036591Y010789D01*
X036551Y010755D01*
X036508Y010723D01*
X036463Y010695D01*
X036416Y010669D01*
X036367Y010646D01*
X036317Y010627D01*
X036266Y010611D01*
X036214Y010599D01*
X036162Y010590D01*
X036108Y010585D01*
X036055Y010583D01*
X021055Y004933D02*
X020555Y004933D01*
X020805Y004683D02*
X020805Y005183D01*
X020955Y002433D02*
X020955Y002133D01*
X020955Y001833D01*
X021155Y001833D02*
X021155Y002133D01*
X021155Y002433D01*
X023880Y001483D02*
X024180Y001483D01*
X024480Y001483D01*
X024480Y001283D02*
X024180Y001283D01*
X023880Y001283D01*
X027005Y001283D02*
X027305Y001283D01*
X027605Y001283D01*
X027605Y001483D02*
X027305Y001483D01*
X027005Y001483D01*
X028255Y001483D02*
X028555Y001483D01*
X028855Y001483D01*
X028855Y001283D02*
X028555Y001283D01*
X028255Y001283D01*
X016730Y001533D02*
X016430Y001533D01*
X016130Y001533D01*
X016130Y001733D02*
X016430Y001733D01*
X016730Y001733D01*
X014230Y001483D02*
X013930Y001483D01*
X013630Y001483D01*
X013630Y001283D02*
X013930Y001283D01*
X014230Y001283D01*
X012980Y001283D02*
X012680Y001283D01*
X012380Y001283D01*
X012380Y001483D02*
X012680Y001483D01*
X012980Y001483D01*
X017604Y009243D02*
X017775Y009712D01*
X017916Y009661D01*
X017775Y009712D02*
X017946Y010182D01*
X016835Y010054D01*
X016664Y009585D01*
X016194Y009756D01*
X016694Y010106D02*
X016835Y010054D01*
X017006Y010524D01*
X017476Y010353D01*
X016835Y010054D02*
X017604Y009243D01*
D21*
X024279Y012278D02*
X024279Y012739D01*
X024509Y012739D01*
X024586Y012662D01*
X024586Y012509D01*
X024509Y012432D01*
X024279Y012432D01*
X024433Y012432D02*
X024586Y012278D01*
X024740Y012355D02*
X024816Y012278D01*
X024970Y012278D01*
X025047Y012355D01*
X025047Y012432D01*
X024970Y012509D01*
X024893Y012509D01*
X024970Y012509D02*
X025047Y012585D01*
X025047Y012662D01*
X024970Y012739D01*
X024816Y012739D01*
X024740Y012662D01*
X035200Y006489D02*
X035200Y006028D01*
X035200Y006182D02*
X035507Y006489D01*
X035660Y006489D02*
X035660Y006028D01*
X035967Y006028D01*
X035814Y006259D02*
X035660Y006259D01*
X035507Y006028D02*
X035277Y006259D01*
X035660Y006489D02*
X035967Y006489D01*
X036121Y006489D02*
X036121Y006412D01*
X036274Y006259D01*
X036274Y006028D01*
X036274Y006259D02*
X036428Y006412D01*
X036428Y006489D01*
X005210Y011091D02*
X004903Y011091D01*
X005210Y011398D01*
X005210Y011474D01*
X005133Y011551D01*
X004979Y011551D01*
X004903Y011474D01*
X004442Y011551D02*
X004442Y011091D01*
X004749Y011091D01*
X002148Y014558D02*
X002148Y015019D01*
X002378Y015019D01*
X002455Y014942D01*
X002455Y014789D01*
X002378Y014712D01*
X002148Y014712D01*
X001994Y014712D02*
X001994Y014635D01*
X001918Y014558D01*
X001764Y014558D01*
X001687Y014635D01*
X001534Y014558D02*
X001380Y014558D01*
X001457Y014558D02*
X001457Y015019D01*
X001380Y015019D02*
X001534Y015019D01*
X001687Y014942D02*
X001687Y014865D01*
X001764Y014789D01*
X001918Y014789D01*
X001994Y014712D01*
X001994Y014942D02*
X001918Y015019D01*
X001764Y015019D01*
X001687Y014942D01*
X001227Y014942D02*
X001150Y015019D01*
X000920Y015019D01*
X000920Y014558D01*
X001150Y014558D01*
X001227Y014635D01*
X001227Y014942D01*
D22*
X023305Y012508D02*
X023655Y012508D01*
X025955Y012508D02*
X026305Y012508D01*
D23*
X025880Y012508D03*
X023730Y012508D03*
D24*
X012495Y008028D03*
D25*
X013155Y009258D03*
D26*
X013230Y009258D03*
X013230Y008358D03*
X013230Y010158D03*
D27*
X014005Y010158D03*
X014005Y009258D03*
X014005Y008358D03*
D28*
X002680Y011708D03*
D29*
X000329Y013391D02*
X000331Y013447D01*
X000337Y013503D01*
X000347Y013559D01*
X000360Y013613D01*
X000378Y013667D01*
X000399Y013719D01*
X000423Y013770D01*
X000452Y013819D01*
X000483Y013865D01*
X000518Y013910D01*
X000555Y013952D01*
X000596Y013991D01*
X000639Y014027D01*
X000685Y014060D01*
X000732Y014090D01*
X000782Y014116D01*
X000834Y014139D01*
X000887Y014159D01*
X000941Y014174D01*
X000996Y014186D01*
X001052Y014194D01*
X001108Y014198D01*
X001164Y014198D01*
X001220Y014194D01*
X001276Y014186D01*
X001331Y014174D01*
X001385Y014159D01*
X001438Y014139D01*
X001490Y014116D01*
X001539Y014090D01*
X001587Y014060D01*
X001633Y014027D01*
X001676Y013991D01*
X001717Y013952D01*
X001754Y013910D01*
X001789Y013865D01*
X001820Y013819D01*
X001849Y013770D01*
X001873Y013719D01*
X001894Y013667D01*
X001912Y013613D01*
X001925Y013559D01*
X001935Y013503D01*
X001941Y013447D01*
X001943Y013391D01*
X001941Y013335D01*
X001935Y013279D01*
X001925Y013223D01*
X001912Y013169D01*
X001894Y013115D01*
X001873Y013063D01*
X001849Y013012D01*
X001820Y012963D01*
X001789Y012917D01*
X001754Y012872D01*
X001717Y012830D01*
X001676Y012791D01*
X001633Y012755D01*
X001587Y012722D01*
X001540Y012692D01*
X001490Y012666D01*
X001438Y012643D01*
X001385Y012623D01*
X001331Y012608D01*
X001276Y012596D01*
X001220Y012588D01*
X001164Y012584D01*
X001108Y012584D01*
X001052Y012588D01*
X000996Y012596D01*
X000941Y012608D01*
X000887Y012623D01*
X000834Y012643D01*
X000782Y012666D01*
X000732Y012692D01*
X000685Y012722D01*
X000639Y012755D01*
X000596Y012791D01*
X000555Y012830D01*
X000518Y012872D01*
X000483Y012917D01*
X000452Y012963D01*
X000423Y013012D01*
X000399Y013063D01*
X000378Y013115D01*
X000360Y013169D01*
X000347Y013223D01*
X000337Y013279D01*
X000331Y013335D01*
X000329Y013391D01*
X029857Y013391D02*
X029859Y013447D01*
X029865Y013503D01*
X029875Y013559D01*
X029888Y013613D01*
X029906Y013667D01*
X029927Y013719D01*
X029951Y013770D01*
X029980Y013819D01*
X030011Y013865D01*
X030046Y013910D01*
X030083Y013952D01*
X030124Y013991D01*
X030167Y014027D01*
X030213Y014060D01*
X030260Y014090D01*
X030310Y014116D01*
X030362Y014139D01*
X030415Y014159D01*
X030469Y014174D01*
X030524Y014186D01*
X030580Y014194D01*
X030636Y014198D01*
X030692Y014198D01*
X030748Y014194D01*
X030804Y014186D01*
X030859Y014174D01*
X030913Y014159D01*
X030966Y014139D01*
X031018Y014116D01*
X031067Y014090D01*
X031115Y014060D01*
X031161Y014027D01*
X031204Y013991D01*
X031245Y013952D01*
X031282Y013910D01*
X031317Y013865D01*
X031348Y013819D01*
X031377Y013770D01*
X031401Y013719D01*
X031422Y013667D01*
X031440Y013613D01*
X031453Y013559D01*
X031463Y013503D01*
X031469Y013447D01*
X031471Y013391D01*
X031469Y013335D01*
X031463Y013279D01*
X031453Y013223D01*
X031440Y013169D01*
X031422Y013115D01*
X031401Y013063D01*
X031377Y013012D01*
X031348Y012963D01*
X031317Y012917D01*
X031282Y012872D01*
X031245Y012830D01*
X031204Y012791D01*
X031161Y012755D01*
X031115Y012722D01*
X031068Y012692D01*
X031018Y012666D01*
X030966Y012643D01*
X030913Y012623D01*
X030859Y012608D01*
X030804Y012596D01*
X030748Y012588D01*
X030692Y012584D01*
X030636Y012584D01*
X030580Y012588D01*
X030524Y012596D01*
X030469Y012608D01*
X030415Y012623D01*
X030362Y012643D01*
X030310Y012666D01*
X030260Y012692D01*
X030213Y012722D01*
X030167Y012755D01*
X030124Y012791D01*
X030083Y012830D01*
X030046Y012872D01*
X030011Y012917D01*
X029980Y012963D01*
X029951Y013012D01*
X029927Y013063D01*
X029906Y013115D01*
X029888Y013169D01*
X029875Y013223D01*
X029865Y013279D01*
X029859Y013335D01*
X029857Y013391D01*
X029857Y001186D02*
X029859Y001242D01*
X029865Y001298D01*
X029875Y001354D01*
X029888Y001408D01*
X029906Y001462D01*
X029927Y001514D01*
X029951Y001565D01*
X029980Y001614D01*
X030011Y001660D01*
X030046Y001705D01*
X030083Y001747D01*
X030124Y001786D01*
X030167Y001822D01*
X030213Y001855D01*
X030260Y001885D01*
X030310Y001911D01*
X030362Y001934D01*
X030415Y001954D01*
X030469Y001969D01*
X030524Y001981D01*
X030580Y001989D01*
X030636Y001993D01*
X030692Y001993D01*
X030748Y001989D01*
X030804Y001981D01*
X030859Y001969D01*
X030913Y001954D01*
X030966Y001934D01*
X031018Y001911D01*
X031067Y001885D01*
X031115Y001855D01*
X031161Y001822D01*
X031204Y001786D01*
X031245Y001747D01*
X031282Y001705D01*
X031317Y001660D01*
X031348Y001614D01*
X031377Y001565D01*
X031401Y001514D01*
X031422Y001462D01*
X031440Y001408D01*
X031453Y001354D01*
X031463Y001298D01*
X031469Y001242D01*
X031471Y001186D01*
X031469Y001130D01*
X031463Y001074D01*
X031453Y001018D01*
X031440Y000964D01*
X031422Y000910D01*
X031401Y000858D01*
X031377Y000807D01*
X031348Y000758D01*
X031317Y000712D01*
X031282Y000667D01*
X031245Y000625D01*
X031204Y000586D01*
X031161Y000550D01*
X031115Y000517D01*
X031068Y000487D01*
X031018Y000461D01*
X030966Y000438D01*
X030913Y000418D01*
X030859Y000403D01*
X030804Y000391D01*
X030748Y000383D01*
X030692Y000379D01*
X030636Y000379D01*
X030580Y000383D01*
X030524Y000391D01*
X030469Y000403D01*
X030415Y000418D01*
X030362Y000438D01*
X030310Y000461D01*
X030260Y000487D01*
X030213Y000517D01*
X030167Y000550D01*
X030124Y000586D01*
X030083Y000625D01*
X030046Y000667D01*
X030011Y000712D01*
X029980Y000758D01*
X029951Y000807D01*
X029927Y000858D01*
X029906Y000910D01*
X029888Y000964D01*
X029875Y001018D01*
X029865Y001074D01*
X029859Y001130D01*
X029857Y001186D01*
X000329Y001186D02*
X000331Y001242D01*
X000337Y001298D01*
X000347Y001354D01*
X000360Y001408D01*
X000378Y001462D01*
X000399Y001514D01*
X000423Y001565D01*
X000452Y001614D01*
X000483Y001660D01*
X000518Y001705D01*
X000555Y001747D01*
X000596Y001786D01*
X000639Y001822D01*
X000685Y001855D01*
X000732Y001885D01*
X000782Y001911D01*
X000834Y001934D01*
X000887Y001954D01*
X000941Y001969D01*
X000996Y001981D01*
X001052Y001989D01*
X001108Y001993D01*
X001164Y001993D01*
X001220Y001989D01*
X001276Y001981D01*
X001331Y001969D01*
X001385Y001954D01*
X001438Y001934D01*
X001490Y001911D01*
X001539Y001885D01*
X001587Y001855D01*
X001633Y001822D01*
X001676Y001786D01*
X001717Y001747D01*
X001754Y001705D01*
X001789Y001660D01*
X001820Y001614D01*
X001849Y001565D01*
X001873Y001514D01*
X001894Y001462D01*
X001912Y001408D01*
X001925Y001354D01*
X001935Y001298D01*
X001941Y001242D01*
X001943Y001186D01*
X001941Y001130D01*
X001935Y001074D01*
X001925Y001018D01*
X001912Y000964D01*
X001894Y000910D01*
X001873Y000858D01*
X001849Y000807D01*
X001820Y000758D01*
X001789Y000712D01*
X001754Y000667D01*
X001717Y000625D01*
X001676Y000586D01*
X001633Y000550D01*
X001587Y000517D01*
X001540Y000487D01*
X001490Y000461D01*
X001438Y000438D01*
X001385Y000418D01*
X001331Y000403D01*
X001276Y000391D01*
X001220Y000383D01*
X001164Y000379D01*
X001108Y000379D01*
X001052Y000383D01*
X000996Y000391D01*
X000941Y000403D01*
X000887Y000418D01*
X000834Y000438D01*
X000782Y000461D01*
X000732Y000487D01*
X000685Y000517D01*
X000639Y000550D01*
X000596Y000586D01*
X000555Y000625D01*
X000518Y000667D01*
X000483Y000712D01*
X000452Y000758D01*
X000423Y000807D01*
X000399Y000858D01*
X000378Y000910D01*
X000360Y000964D01*
X000347Y001018D01*
X000337Y001074D01*
X000331Y001130D01*
X000329Y001186D01*
D30*
G36*
X018127Y008369D02*
X018058Y008182D01*
X017119Y008523D01*
X017188Y008710D01*
X018127Y008369D01*
G37*
D31*
X007930Y008517D02*
X004302Y013391D01*
X003305Y013383D02*
X003302Y013391D01*
M02*
