%
M48
M72
T01C0.0197
T02C0.0315
T03C0.0320
T04C0.0354
T05C0.0394
T06C0.0400
T07C0.0433
T08C0.0440
T09C0.1300
%
T01
X36055Y7883
T02
X5055Y2508
X11555Y2633
X12680Y1883
X13930Y1883
X16430Y2133
X16430Y1133
X13930Y883
X12680Y883
X20555Y2133
X21555Y2133
X24180Y1883
X24180Y883
X27305Y883
X28555Y883
X28555Y1883
X27305Y1883
X36055Y4133
X30805Y6508
X33555Y8383
X38555Y8383
X38555Y10383
X38555Y12133
X33555Y12133
X30805Y11508
X33555Y10383
X27305Y9133
X27180Y10758
X22555Y13258
X20180Y14258
X20555Y10758
X20180Y9133
X13930Y7258
X13680Y8258
X9680Y7258
X9180Y8258
X12430Y4883
X33555Y14133
X38555Y14133
T03
X36555Y11383
X35555Y11383
X29680Y11633
X28680Y11883
X26305Y12508
X23305Y12508
X19180Y11258
X19180Y10258
X18245Y9541
X19180Y9258
X17726Y8728
X19180Y8258
X17384Y7789
X16430Y7008
X15430Y7008
X14430Y7008
X19180Y7258
X19180Y6258
X26930Y3758
X27930Y3758
X28930Y3758
X30930Y4133
X30930Y3133
X29305Y5508
X28305Y5508
X27305Y5508
X32055Y7258
X33055Y7258
X29680Y7633
X28680Y7883
X39055Y7258
X40055Y7258
X16365Y10225
X10680Y11758
X6680Y11758
X2680Y12008
X2680Y11008
X1430Y8008
X1430Y7008
X1430Y6008
X1430Y5008
X1430Y4008
X1430Y3008
T04
X7930Y593
X7930Y6293
X21585Y9866
X27282Y9668
T05
X18302Y13391
X17302Y13391
X16302Y13391
X15302Y13391
X14302Y13391
X13302Y13391
X12302Y13391
X11302Y13391
X10302Y13391
X9302Y13391
X8302Y13391
X7302Y13391
X6302Y13391
X5302Y13391
X4302Y13391
X3302Y13391
T06
X3305Y13383
X4305Y13383
X5305Y13383
X6305Y13383
X7305Y13383
X8305Y13383
X9305Y13383
X10305Y13383
X11305Y13383
X12305Y13383
X13305Y13383
X14305Y13383
X15305Y13383
X16305Y13383
X17305Y13383
X18305Y13383
X32275Y14023
X34835Y14023
X37275Y14023
X39835Y14023
X39835Y12243
X37275Y12243
X34835Y12243
X32275Y12243
X32275Y10273
X34835Y10273
X37275Y10273
X39835Y10273
X39835Y8493
X37275Y8493
X34835Y8493
X32275Y8493
X23805Y6133
X20805Y6133
X25055Y2633
X1055Y10508
X1055Y11508
T07
X4071Y10133
X6039Y10133
T08
X14305Y10158
X14305Y9258
X14305Y8358
T09
X10305Y9258
M30
